G75*
%MOIN*%
%OFA0B0*%
%FSLAX25Y25*%
%IPPOS*%
%LPD*%
%AMOC8*
5,1,8,0,0,1.08239X$1,22.5*
%
%ADD10C,0.00000*%
D10*
X0076250Y0002534D02*
X0076250Y0317495D01*
X0474951Y0317495D01*
X0474951Y0002534D01*
X0076250Y0002534D01*
X0074951Y0067534D02*
X0074953Y0067692D01*
X0074959Y0067850D01*
X0074969Y0068008D01*
X0074983Y0068166D01*
X0075001Y0068323D01*
X0075022Y0068480D01*
X0075048Y0068636D01*
X0075078Y0068792D01*
X0075111Y0068947D01*
X0075149Y0069100D01*
X0075190Y0069253D01*
X0075235Y0069405D01*
X0075284Y0069556D01*
X0075337Y0069705D01*
X0075393Y0069853D01*
X0075453Y0069999D01*
X0075517Y0070144D01*
X0075585Y0070287D01*
X0075656Y0070429D01*
X0075730Y0070569D01*
X0075808Y0070706D01*
X0075890Y0070842D01*
X0075974Y0070976D01*
X0076063Y0071107D01*
X0076154Y0071236D01*
X0076249Y0071363D01*
X0076346Y0071488D01*
X0076447Y0071610D01*
X0076551Y0071729D01*
X0076658Y0071846D01*
X0076768Y0071960D01*
X0076881Y0072071D01*
X0076996Y0072180D01*
X0077114Y0072285D01*
X0077235Y0072387D01*
X0077358Y0072487D01*
X0077484Y0072583D01*
X0077612Y0072676D01*
X0077742Y0072766D01*
X0077875Y0072852D01*
X0078010Y0072936D01*
X0078146Y0073015D01*
X0078285Y0073092D01*
X0078426Y0073164D01*
X0078568Y0073234D01*
X0078712Y0073299D01*
X0078858Y0073361D01*
X0079005Y0073419D01*
X0079154Y0073474D01*
X0079304Y0073525D01*
X0079455Y0073572D01*
X0079607Y0073615D01*
X0079760Y0073654D01*
X0079915Y0073690D01*
X0080070Y0073721D01*
X0080226Y0073749D01*
X0080382Y0073773D01*
X0080539Y0073793D01*
X0080697Y0073809D01*
X0080854Y0073821D01*
X0081013Y0073829D01*
X0081171Y0073833D01*
X0081329Y0073833D01*
X0081487Y0073829D01*
X0081646Y0073821D01*
X0081803Y0073809D01*
X0081961Y0073793D01*
X0082118Y0073773D01*
X0082274Y0073749D01*
X0082430Y0073721D01*
X0082585Y0073690D01*
X0082740Y0073654D01*
X0082893Y0073615D01*
X0083045Y0073572D01*
X0083196Y0073525D01*
X0083346Y0073474D01*
X0083495Y0073419D01*
X0083642Y0073361D01*
X0083788Y0073299D01*
X0083932Y0073234D01*
X0084074Y0073164D01*
X0084215Y0073092D01*
X0084354Y0073015D01*
X0084490Y0072936D01*
X0084625Y0072852D01*
X0084758Y0072766D01*
X0084888Y0072676D01*
X0085016Y0072583D01*
X0085142Y0072487D01*
X0085265Y0072387D01*
X0085386Y0072285D01*
X0085504Y0072180D01*
X0085619Y0072071D01*
X0085732Y0071960D01*
X0085842Y0071846D01*
X0085949Y0071729D01*
X0086053Y0071610D01*
X0086154Y0071488D01*
X0086251Y0071363D01*
X0086346Y0071236D01*
X0086437Y0071107D01*
X0086526Y0070976D01*
X0086610Y0070842D01*
X0086692Y0070706D01*
X0086770Y0070569D01*
X0086844Y0070429D01*
X0086915Y0070287D01*
X0086983Y0070144D01*
X0087047Y0069999D01*
X0087107Y0069853D01*
X0087163Y0069705D01*
X0087216Y0069556D01*
X0087265Y0069405D01*
X0087310Y0069253D01*
X0087351Y0069100D01*
X0087389Y0068947D01*
X0087422Y0068792D01*
X0087452Y0068636D01*
X0087478Y0068480D01*
X0087499Y0068323D01*
X0087517Y0068166D01*
X0087531Y0068008D01*
X0087541Y0067850D01*
X0087547Y0067692D01*
X0087549Y0067534D01*
X0087547Y0067376D01*
X0087541Y0067218D01*
X0087531Y0067060D01*
X0087517Y0066902D01*
X0087499Y0066745D01*
X0087478Y0066588D01*
X0087452Y0066432D01*
X0087422Y0066276D01*
X0087389Y0066121D01*
X0087351Y0065968D01*
X0087310Y0065815D01*
X0087265Y0065663D01*
X0087216Y0065512D01*
X0087163Y0065363D01*
X0087107Y0065215D01*
X0087047Y0065069D01*
X0086983Y0064924D01*
X0086915Y0064781D01*
X0086844Y0064639D01*
X0086770Y0064499D01*
X0086692Y0064362D01*
X0086610Y0064226D01*
X0086526Y0064092D01*
X0086437Y0063961D01*
X0086346Y0063832D01*
X0086251Y0063705D01*
X0086154Y0063580D01*
X0086053Y0063458D01*
X0085949Y0063339D01*
X0085842Y0063222D01*
X0085732Y0063108D01*
X0085619Y0062997D01*
X0085504Y0062888D01*
X0085386Y0062783D01*
X0085265Y0062681D01*
X0085142Y0062581D01*
X0085016Y0062485D01*
X0084888Y0062392D01*
X0084758Y0062302D01*
X0084625Y0062216D01*
X0084490Y0062132D01*
X0084354Y0062053D01*
X0084215Y0061976D01*
X0084074Y0061904D01*
X0083932Y0061834D01*
X0083788Y0061769D01*
X0083642Y0061707D01*
X0083495Y0061649D01*
X0083346Y0061594D01*
X0083196Y0061543D01*
X0083045Y0061496D01*
X0082893Y0061453D01*
X0082740Y0061414D01*
X0082585Y0061378D01*
X0082430Y0061347D01*
X0082274Y0061319D01*
X0082118Y0061295D01*
X0081961Y0061275D01*
X0081803Y0061259D01*
X0081646Y0061247D01*
X0081487Y0061239D01*
X0081329Y0061235D01*
X0081171Y0061235D01*
X0081013Y0061239D01*
X0080854Y0061247D01*
X0080697Y0061259D01*
X0080539Y0061275D01*
X0080382Y0061295D01*
X0080226Y0061319D01*
X0080070Y0061347D01*
X0079915Y0061378D01*
X0079760Y0061414D01*
X0079607Y0061453D01*
X0079455Y0061496D01*
X0079304Y0061543D01*
X0079154Y0061594D01*
X0079005Y0061649D01*
X0078858Y0061707D01*
X0078712Y0061769D01*
X0078568Y0061834D01*
X0078426Y0061904D01*
X0078285Y0061976D01*
X0078146Y0062053D01*
X0078010Y0062132D01*
X0077875Y0062216D01*
X0077742Y0062302D01*
X0077612Y0062392D01*
X0077484Y0062485D01*
X0077358Y0062581D01*
X0077235Y0062681D01*
X0077114Y0062783D01*
X0076996Y0062888D01*
X0076881Y0062997D01*
X0076768Y0063108D01*
X0076658Y0063222D01*
X0076551Y0063339D01*
X0076447Y0063458D01*
X0076346Y0063580D01*
X0076249Y0063705D01*
X0076154Y0063832D01*
X0076063Y0063961D01*
X0075974Y0064092D01*
X0075890Y0064226D01*
X0075808Y0064362D01*
X0075730Y0064499D01*
X0075656Y0064639D01*
X0075585Y0064781D01*
X0075517Y0064924D01*
X0075453Y0065069D01*
X0075393Y0065215D01*
X0075337Y0065363D01*
X0075284Y0065512D01*
X0075235Y0065663D01*
X0075190Y0065815D01*
X0075149Y0065968D01*
X0075111Y0066121D01*
X0075078Y0066276D01*
X0075048Y0066432D01*
X0075022Y0066588D01*
X0075001Y0066745D01*
X0074983Y0066902D01*
X0074969Y0067060D01*
X0074959Y0067218D01*
X0074953Y0067376D01*
X0074951Y0067534D01*
X0279951Y0087534D02*
X0279953Y0087692D01*
X0279959Y0087850D01*
X0279969Y0088008D01*
X0279983Y0088166D01*
X0280001Y0088323D01*
X0280022Y0088480D01*
X0280048Y0088636D01*
X0280078Y0088792D01*
X0280111Y0088947D01*
X0280149Y0089100D01*
X0280190Y0089253D01*
X0280235Y0089405D01*
X0280284Y0089556D01*
X0280337Y0089705D01*
X0280393Y0089853D01*
X0280453Y0089999D01*
X0280517Y0090144D01*
X0280585Y0090287D01*
X0280656Y0090429D01*
X0280730Y0090569D01*
X0280808Y0090706D01*
X0280890Y0090842D01*
X0280974Y0090976D01*
X0281063Y0091107D01*
X0281154Y0091236D01*
X0281249Y0091363D01*
X0281346Y0091488D01*
X0281447Y0091610D01*
X0281551Y0091729D01*
X0281658Y0091846D01*
X0281768Y0091960D01*
X0281881Y0092071D01*
X0281996Y0092180D01*
X0282114Y0092285D01*
X0282235Y0092387D01*
X0282358Y0092487D01*
X0282484Y0092583D01*
X0282612Y0092676D01*
X0282742Y0092766D01*
X0282875Y0092852D01*
X0283010Y0092936D01*
X0283146Y0093015D01*
X0283285Y0093092D01*
X0283426Y0093164D01*
X0283568Y0093234D01*
X0283712Y0093299D01*
X0283858Y0093361D01*
X0284005Y0093419D01*
X0284154Y0093474D01*
X0284304Y0093525D01*
X0284455Y0093572D01*
X0284607Y0093615D01*
X0284760Y0093654D01*
X0284915Y0093690D01*
X0285070Y0093721D01*
X0285226Y0093749D01*
X0285382Y0093773D01*
X0285539Y0093793D01*
X0285697Y0093809D01*
X0285854Y0093821D01*
X0286013Y0093829D01*
X0286171Y0093833D01*
X0286329Y0093833D01*
X0286487Y0093829D01*
X0286646Y0093821D01*
X0286803Y0093809D01*
X0286961Y0093793D01*
X0287118Y0093773D01*
X0287274Y0093749D01*
X0287430Y0093721D01*
X0287585Y0093690D01*
X0287740Y0093654D01*
X0287893Y0093615D01*
X0288045Y0093572D01*
X0288196Y0093525D01*
X0288346Y0093474D01*
X0288495Y0093419D01*
X0288642Y0093361D01*
X0288788Y0093299D01*
X0288932Y0093234D01*
X0289074Y0093164D01*
X0289215Y0093092D01*
X0289354Y0093015D01*
X0289490Y0092936D01*
X0289625Y0092852D01*
X0289758Y0092766D01*
X0289888Y0092676D01*
X0290016Y0092583D01*
X0290142Y0092487D01*
X0290265Y0092387D01*
X0290386Y0092285D01*
X0290504Y0092180D01*
X0290619Y0092071D01*
X0290732Y0091960D01*
X0290842Y0091846D01*
X0290949Y0091729D01*
X0291053Y0091610D01*
X0291154Y0091488D01*
X0291251Y0091363D01*
X0291346Y0091236D01*
X0291437Y0091107D01*
X0291526Y0090976D01*
X0291610Y0090842D01*
X0291692Y0090706D01*
X0291770Y0090569D01*
X0291844Y0090429D01*
X0291915Y0090287D01*
X0291983Y0090144D01*
X0292047Y0089999D01*
X0292107Y0089853D01*
X0292163Y0089705D01*
X0292216Y0089556D01*
X0292265Y0089405D01*
X0292310Y0089253D01*
X0292351Y0089100D01*
X0292389Y0088947D01*
X0292422Y0088792D01*
X0292452Y0088636D01*
X0292478Y0088480D01*
X0292499Y0088323D01*
X0292517Y0088166D01*
X0292531Y0088008D01*
X0292541Y0087850D01*
X0292547Y0087692D01*
X0292549Y0087534D01*
X0292547Y0087376D01*
X0292541Y0087218D01*
X0292531Y0087060D01*
X0292517Y0086902D01*
X0292499Y0086745D01*
X0292478Y0086588D01*
X0292452Y0086432D01*
X0292422Y0086276D01*
X0292389Y0086121D01*
X0292351Y0085968D01*
X0292310Y0085815D01*
X0292265Y0085663D01*
X0292216Y0085512D01*
X0292163Y0085363D01*
X0292107Y0085215D01*
X0292047Y0085069D01*
X0291983Y0084924D01*
X0291915Y0084781D01*
X0291844Y0084639D01*
X0291770Y0084499D01*
X0291692Y0084362D01*
X0291610Y0084226D01*
X0291526Y0084092D01*
X0291437Y0083961D01*
X0291346Y0083832D01*
X0291251Y0083705D01*
X0291154Y0083580D01*
X0291053Y0083458D01*
X0290949Y0083339D01*
X0290842Y0083222D01*
X0290732Y0083108D01*
X0290619Y0082997D01*
X0290504Y0082888D01*
X0290386Y0082783D01*
X0290265Y0082681D01*
X0290142Y0082581D01*
X0290016Y0082485D01*
X0289888Y0082392D01*
X0289758Y0082302D01*
X0289625Y0082216D01*
X0289490Y0082132D01*
X0289354Y0082053D01*
X0289215Y0081976D01*
X0289074Y0081904D01*
X0288932Y0081834D01*
X0288788Y0081769D01*
X0288642Y0081707D01*
X0288495Y0081649D01*
X0288346Y0081594D01*
X0288196Y0081543D01*
X0288045Y0081496D01*
X0287893Y0081453D01*
X0287740Y0081414D01*
X0287585Y0081378D01*
X0287430Y0081347D01*
X0287274Y0081319D01*
X0287118Y0081295D01*
X0286961Y0081275D01*
X0286803Y0081259D01*
X0286646Y0081247D01*
X0286487Y0081239D01*
X0286329Y0081235D01*
X0286171Y0081235D01*
X0286013Y0081239D01*
X0285854Y0081247D01*
X0285697Y0081259D01*
X0285539Y0081275D01*
X0285382Y0081295D01*
X0285226Y0081319D01*
X0285070Y0081347D01*
X0284915Y0081378D01*
X0284760Y0081414D01*
X0284607Y0081453D01*
X0284455Y0081496D01*
X0284304Y0081543D01*
X0284154Y0081594D01*
X0284005Y0081649D01*
X0283858Y0081707D01*
X0283712Y0081769D01*
X0283568Y0081834D01*
X0283426Y0081904D01*
X0283285Y0081976D01*
X0283146Y0082053D01*
X0283010Y0082132D01*
X0282875Y0082216D01*
X0282742Y0082302D01*
X0282612Y0082392D01*
X0282484Y0082485D01*
X0282358Y0082581D01*
X0282235Y0082681D01*
X0282114Y0082783D01*
X0281996Y0082888D01*
X0281881Y0082997D01*
X0281768Y0083108D01*
X0281658Y0083222D01*
X0281551Y0083339D01*
X0281447Y0083458D01*
X0281346Y0083580D01*
X0281249Y0083705D01*
X0281154Y0083832D01*
X0281063Y0083961D01*
X0280974Y0084092D01*
X0280890Y0084226D01*
X0280808Y0084362D01*
X0280730Y0084499D01*
X0280656Y0084639D01*
X0280585Y0084781D01*
X0280517Y0084924D01*
X0280453Y0085069D01*
X0280393Y0085215D01*
X0280337Y0085363D01*
X0280284Y0085512D01*
X0280235Y0085663D01*
X0280190Y0085815D01*
X0280149Y0085968D01*
X0280111Y0086121D01*
X0280078Y0086276D01*
X0280048Y0086432D01*
X0280022Y0086588D01*
X0280001Y0086745D01*
X0279983Y0086902D01*
X0279969Y0087060D01*
X0279959Y0087218D01*
X0279953Y0087376D01*
X0279951Y0087534D01*
X0399951Y0067534D02*
X0399953Y0067692D01*
X0399959Y0067850D01*
X0399969Y0068008D01*
X0399983Y0068166D01*
X0400001Y0068323D01*
X0400022Y0068480D01*
X0400048Y0068636D01*
X0400078Y0068792D01*
X0400111Y0068947D01*
X0400149Y0069100D01*
X0400190Y0069253D01*
X0400235Y0069405D01*
X0400284Y0069556D01*
X0400337Y0069705D01*
X0400393Y0069853D01*
X0400453Y0069999D01*
X0400517Y0070144D01*
X0400585Y0070287D01*
X0400656Y0070429D01*
X0400730Y0070569D01*
X0400808Y0070706D01*
X0400890Y0070842D01*
X0400974Y0070976D01*
X0401063Y0071107D01*
X0401154Y0071236D01*
X0401249Y0071363D01*
X0401346Y0071488D01*
X0401447Y0071610D01*
X0401551Y0071729D01*
X0401658Y0071846D01*
X0401768Y0071960D01*
X0401881Y0072071D01*
X0401996Y0072180D01*
X0402114Y0072285D01*
X0402235Y0072387D01*
X0402358Y0072487D01*
X0402484Y0072583D01*
X0402612Y0072676D01*
X0402742Y0072766D01*
X0402875Y0072852D01*
X0403010Y0072936D01*
X0403146Y0073015D01*
X0403285Y0073092D01*
X0403426Y0073164D01*
X0403568Y0073234D01*
X0403712Y0073299D01*
X0403858Y0073361D01*
X0404005Y0073419D01*
X0404154Y0073474D01*
X0404304Y0073525D01*
X0404455Y0073572D01*
X0404607Y0073615D01*
X0404760Y0073654D01*
X0404915Y0073690D01*
X0405070Y0073721D01*
X0405226Y0073749D01*
X0405382Y0073773D01*
X0405539Y0073793D01*
X0405697Y0073809D01*
X0405854Y0073821D01*
X0406013Y0073829D01*
X0406171Y0073833D01*
X0406329Y0073833D01*
X0406487Y0073829D01*
X0406646Y0073821D01*
X0406803Y0073809D01*
X0406961Y0073793D01*
X0407118Y0073773D01*
X0407274Y0073749D01*
X0407430Y0073721D01*
X0407585Y0073690D01*
X0407740Y0073654D01*
X0407893Y0073615D01*
X0408045Y0073572D01*
X0408196Y0073525D01*
X0408346Y0073474D01*
X0408495Y0073419D01*
X0408642Y0073361D01*
X0408788Y0073299D01*
X0408932Y0073234D01*
X0409074Y0073164D01*
X0409215Y0073092D01*
X0409354Y0073015D01*
X0409490Y0072936D01*
X0409625Y0072852D01*
X0409758Y0072766D01*
X0409888Y0072676D01*
X0410016Y0072583D01*
X0410142Y0072487D01*
X0410265Y0072387D01*
X0410386Y0072285D01*
X0410504Y0072180D01*
X0410619Y0072071D01*
X0410732Y0071960D01*
X0410842Y0071846D01*
X0410949Y0071729D01*
X0411053Y0071610D01*
X0411154Y0071488D01*
X0411251Y0071363D01*
X0411346Y0071236D01*
X0411437Y0071107D01*
X0411526Y0070976D01*
X0411610Y0070842D01*
X0411692Y0070706D01*
X0411770Y0070569D01*
X0411844Y0070429D01*
X0411915Y0070287D01*
X0411983Y0070144D01*
X0412047Y0069999D01*
X0412107Y0069853D01*
X0412163Y0069705D01*
X0412216Y0069556D01*
X0412265Y0069405D01*
X0412310Y0069253D01*
X0412351Y0069100D01*
X0412389Y0068947D01*
X0412422Y0068792D01*
X0412452Y0068636D01*
X0412478Y0068480D01*
X0412499Y0068323D01*
X0412517Y0068166D01*
X0412531Y0068008D01*
X0412541Y0067850D01*
X0412547Y0067692D01*
X0412549Y0067534D01*
X0412547Y0067376D01*
X0412541Y0067218D01*
X0412531Y0067060D01*
X0412517Y0066902D01*
X0412499Y0066745D01*
X0412478Y0066588D01*
X0412452Y0066432D01*
X0412422Y0066276D01*
X0412389Y0066121D01*
X0412351Y0065968D01*
X0412310Y0065815D01*
X0412265Y0065663D01*
X0412216Y0065512D01*
X0412163Y0065363D01*
X0412107Y0065215D01*
X0412047Y0065069D01*
X0411983Y0064924D01*
X0411915Y0064781D01*
X0411844Y0064639D01*
X0411770Y0064499D01*
X0411692Y0064362D01*
X0411610Y0064226D01*
X0411526Y0064092D01*
X0411437Y0063961D01*
X0411346Y0063832D01*
X0411251Y0063705D01*
X0411154Y0063580D01*
X0411053Y0063458D01*
X0410949Y0063339D01*
X0410842Y0063222D01*
X0410732Y0063108D01*
X0410619Y0062997D01*
X0410504Y0062888D01*
X0410386Y0062783D01*
X0410265Y0062681D01*
X0410142Y0062581D01*
X0410016Y0062485D01*
X0409888Y0062392D01*
X0409758Y0062302D01*
X0409625Y0062216D01*
X0409490Y0062132D01*
X0409354Y0062053D01*
X0409215Y0061976D01*
X0409074Y0061904D01*
X0408932Y0061834D01*
X0408788Y0061769D01*
X0408642Y0061707D01*
X0408495Y0061649D01*
X0408346Y0061594D01*
X0408196Y0061543D01*
X0408045Y0061496D01*
X0407893Y0061453D01*
X0407740Y0061414D01*
X0407585Y0061378D01*
X0407430Y0061347D01*
X0407274Y0061319D01*
X0407118Y0061295D01*
X0406961Y0061275D01*
X0406803Y0061259D01*
X0406646Y0061247D01*
X0406487Y0061239D01*
X0406329Y0061235D01*
X0406171Y0061235D01*
X0406013Y0061239D01*
X0405854Y0061247D01*
X0405697Y0061259D01*
X0405539Y0061275D01*
X0405382Y0061295D01*
X0405226Y0061319D01*
X0405070Y0061347D01*
X0404915Y0061378D01*
X0404760Y0061414D01*
X0404607Y0061453D01*
X0404455Y0061496D01*
X0404304Y0061543D01*
X0404154Y0061594D01*
X0404005Y0061649D01*
X0403858Y0061707D01*
X0403712Y0061769D01*
X0403568Y0061834D01*
X0403426Y0061904D01*
X0403285Y0061976D01*
X0403146Y0062053D01*
X0403010Y0062132D01*
X0402875Y0062216D01*
X0402742Y0062302D01*
X0402612Y0062392D01*
X0402484Y0062485D01*
X0402358Y0062581D01*
X0402235Y0062681D01*
X0402114Y0062783D01*
X0401996Y0062888D01*
X0401881Y0062997D01*
X0401768Y0063108D01*
X0401658Y0063222D01*
X0401551Y0063339D01*
X0401447Y0063458D01*
X0401346Y0063580D01*
X0401249Y0063705D01*
X0401154Y0063832D01*
X0401063Y0063961D01*
X0400974Y0064092D01*
X0400890Y0064226D01*
X0400808Y0064362D01*
X0400730Y0064499D01*
X0400656Y0064639D01*
X0400585Y0064781D01*
X0400517Y0064924D01*
X0400453Y0065069D01*
X0400393Y0065215D01*
X0400337Y0065363D01*
X0400284Y0065512D01*
X0400235Y0065663D01*
X0400190Y0065815D01*
X0400149Y0065968D01*
X0400111Y0066121D01*
X0400078Y0066276D01*
X0400048Y0066432D01*
X0400022Y0066588D01*
X0400001Y0066745D01*
X0399983Y0066902D01*
X0399969Y0067060D01*
X0399959Y0067218D01*
X0399953Y0067376D01*
X0399951Y0067534D01*
X0279951Y0197534D02*
X0279953Y0197692D01*
X0279959Y0197850D01*
X0279969Y0198008D01*
X0279983Y0198166D01*
X0280001Y0198323D01*
X0280022Y0198480D01*
X0280048Y0198636D01*
X0280078Y0198792D01*
X0280111Y0198947D01*
X0280149Y0199100D01*
X0280190Y0199253D01*
X0280235Y0199405D01*
X0280284Y0199556D01*
X0280337Y0199705D01*
X0280393Y0199853D01*
X0280453Y0199999D01*
X0280517Y0200144D01*
X0280585Y0200287D01*
X0280656Y0200429D01*
X0280730Y0200569D01*
X0280808Y0200706D01*
X0280890Y0200842D01*
X0280974Y0200976D01*
X0281063Y0201107D01*
X0281154Y0201236D01*
X0281249Y0201363D01*
X0281346Y0201488D01*
X0281447Y0201610D01*
X0281551Y0201729D01*
X0281658Y0201846D01*
X0281768Y0201960D01*
X0281881Y0202071D01*
X0281996Y0202180D01*
X0282114Y0202285D01*
X0282235Y0202387D01*
X0282358Y0202487D01*
X0282484Y0202583D01*
X0282612Y0202676D01*
X0282742Y0202766D01*
X0282875Y0202852D01*
X0283010Y0202936D01*
X0283146Y0203015D01*
X0283285Y0203092D01*
X0283426Y0203164D01*
X0283568Y0203234D01*
X0283712Y0203299D01*
X0283858Y0203361D01*
X0284005Y0203419D01*
X0284154Y0203474D01*
X0284304Y0203525D01*
X0284455Y0203572D01*
X0284607Y0203615D01*
X0284760Y0203654D01*
X0284915Y0203690D01*
X0285070Y0203721D01*
X0285226Y0203749D01*
X0285382Y0203773D01*
X0285539Y0203793D01*
X0285697Y0203809D01*
X0285854Y0203821D01*
X0286013Y0203829D01*
X0286171Y0203833D01*
X0286329Y0203833D01*
X0286487Y0203829D01*
X0286646Y0203821D01*
X0286803Y0203809D01*
X0286961Y0203793D01*
X0287118Y0203773D01*
X0287274Y0203749D01*
X0287430Y0203721D01*
X0287585Y0203690D01*
X0287740Y0203654D01*
X0287893Y0203615D01*
X0288045Y0203572D01*
X0288196Y0203525D01*
X0288346Y0203474D01*
X0288495Y0203419D01*
X0288642Y0203361D01*
X0288788Y0203299D01*
X0288932Y0203234D01*
X0289074Y0203164D01*
X0289215Y0203092D01*
X0289354Y0203015D01*
X0289490Y0202936D01*
X0289625Y0202852D01*
X0289758Y0202766D01*
X0289888Y0202676D01*
X0290016Y0202583D01*
X0290142Y0202487D01*
X0290265Y0202387D01*
X0290386Y0202285D01*
X0290504Y0202180D01*
X0290619Y0202071D01*
X0290732Y0201960D01*
X0290842Y0201846D01*
X0290949Y0201729D01*
X0291053Y0201610D01*
X0291154Y0201488D01*
X0291251Y0201363D01*
X0291346Y0201236D01*
X0291437Y0201107D01*
X0291526Y0200976D01*
X0291610Y0200842D01*
X0291692Y0200706D01*
X0291770Y0200569D01*
X0291844Y0200429D01*
X0291915Y0200287D01*
X0291983Y0200144D01*
X0292047Y0199999D01*
X0292107Y0199853D01*
X0292163Y0199705D01*
X0292216Y0199556D01*
X0292265Y0199405D01*
X0292310Y0199253D01*
X0292351Y0199100D01*
X0292389Y0198947D01*
X0292422Y0198792D01*
X0292452Y0198636D01*
X0292478Y0198480D01*
X0292499Y0198323D01*
X0292517Y0198166D01*
X0292531Y0198008D01*
X0292541Y0197850D01*
X0292547Y0197692D01*
X0292549Y0197534D01*
X0292547Y0197376D01*
X0292541Y0197218D01*
X0292531Y0197060D01*
X0292517Y0196902D01*
X0292499Y0196745D01*
X0292478Y0196588D01*
X0292452Y0196432D01*
X0292422Y0196276D01*
X0292389Y0196121D01*
X0292351Y0195968D01*
X0292310Y0195815D01*
X0292265Y0195663D01*
X0292216Y0195512D01*
X0292163Y0195363D01*
X0292107Y0195215D01*
X0292047Y0195069D01*
X0291983Y0194924D01*
X0291915Y0194781D01*
X0291844Y0194639D01*
X0291770Y0194499D01*
X0291692Y0194362D01*
X0291610Y0194226D01*
X0291526Y0194092D01*
X0291437Y0193961D01*
X0291346Y0193832D01*
X0291251Y0193705D01*
X0291154Y0193580D01*
X0291053Y0193458D01*
X0290949Y0193339D01*
X0290842Y0193222D01*
X0290732Y0193108D01*
X0290619Y0192997D01*
X0290504Y0192888D01*
X0290386Y0192783D01*
X0290265Y0192681D01*
X0290142Y0192581D01*
X0290016Y0192485D01*
X0289888Y0192392D01*
X0289758Y0192302D01*
X0289625Y0192216D01*
X0289490Y0192132D01*
X0289354Y0192053D01*
X0289215Y0191976D01*
X0289074Y0191904D01*
X0288932Y0191834D01*
X0288788Y0191769D01*
X0288642Y0191707D01*
X0288495Y0191649D01*
X0288346Y0191594D01*
X0288196Y0191543D01*
X0288045Y0191496D01*
X0287893Y0191453D01*
X0287740Y0191414D01*
X0287585Y0191378D01*
X0287430Y0191347D01*
X0287274Y0191319D01*
X0287118Y0191295D01*
X0286961Y0191275D01*
X0286803Y0191259D01*
X0286646Y0191247D01*
X0286487Y0191239D01*
X0286329Y0191235D01*
X0286171Y0191235D01*
X0286013Y0191239D01*
X0285854Y0191247D01*
X0285697Y0191259D01*
X0285539Y0191275D01*
X0285382Y0191295D01*
X0285226Y0191319D01*
X0285070Y0191347D01*
X0284915Y0191378D01*
X0284760Y0191414D01*
X0284607Y0191453D01*
X0284455Y0191496D01*
X0284304Y0191543D01*
X0284154Y0191594D01*
X0284005Y0191649D01*
X0283858Y0191707D01*
X0283712Y0191769D01*
X0283568Y0191834D01*
X0283426Y0191904D01*
X0283285Y0191976D01*
X0283146Y0192053D01*
X0283010Y0192132D01*
X0282875Y0192216D01*
X0282742Y0192302D01*
X0282612Y0192392D01*
X0282484Y0192485D01*
X0282358Y0192581D01*
X0282235Y0192681D01*
X0282114Y0192783D01*
X0281996Y0192888D01*
X0281881Y0192997D01*
X0281768Y0193108D01*
X0281658Y0193222D01*
X0281551Y0193339D01*
X0281447Y0193458D01*
X0281346Y0193580D01*
X0281249Y0193705D01*
X0281154Y0193832D01*
X0281063Y0193961D01*
X0280974Y0194092D01*
X0280890Y0194226D01*
X0280808Y0194362D01*
X0280730Y0194499D01*
X0280656Y0194639D01*
X0280585Y0194781D01*
X0280517Y0194924D01*
X0280453Y0195069D01*
X0280393Y0195215D01*
X0280337Y0195363D01*
X0280284Y0195512D01*
X0280235Y0195663D01*
X0280190Y0195815D01*
X0280149Y0195968D01*
X0280111Y0196121D01*
X0280078Y0196276D01*
X0280048Y0196432D01*
X0280022Y0196588D01*
X0280001Y0196745D01*
X0279983Y0196902D01*
X0279969Y0197060D01*
X0279959Y0197218D01*
X0279953Y0197376D01*
X0279951Y0197534D01*
X0374951Y0257534D02*
X0374953Y0257692D01*
X0374959Y0257850D01*
X0374969Y0258008D01*
X0374983Y0258166D01*
X0375001Y0258323D01*
X0375022Y0258480D01*
X0375048Y0258636D01*
X0375078Y0258792D01*
X0375111Y0258947D01*
X0375149Y0259100D01*
X0375190Y0259253D01*
X0375235Y0259405D01*
X0375284Y0259556D01*
X0375337Y0259705D01*
X0375393Y0259853D01*
X0375453Y0259999D01*
X0375517Y0260144D01*
X0375585Y0260287D01*
X0375656Y0260429D01*
X0375730Y0260569D01*
X0375808Y0260706D01*
X0375890Y0260842D01*
X0375974Y0260976D01*
X0376063Y0261107D01*
X0376154Y0261236D01*
X0376249Y0261363D01*
X0376346Y0261488D01*
X0376447Y0261610D01*
X0376551Y0261729D01*
X0376658Y0261846D01*
X0376768Y0261960D01*
X0376881Y0262071D01*
X0376996Y0262180D01*
X0377114Y0262285D01*
X0377235Y0262387D01*
X0377358Y0262487D01*
X0377484Y0262583D01*
X0377612Y0262676D01*
X0377742Y0262766D01*
X0377875Y0262852D01*
X0378010Y0262936D01*
X0378146Y0263015D01*
X0378285Y0263092D01*
X0378426Y0263164D01*
X0378568Y0263234D01*
X0378712Y0263299D01*
X0378858Y0263361D01*
X0379005Y0263419D01*
X0379154Y0263474D01*
X0379304Y0263525D01*
X0379455Y0263572D01*
X0379607Y0263615D01*
X0379760Y0263654D01*
X0379915Y0263690D01*
X0380070Y0263721D01*
X0380226Y0263749D01*
X0380382Y0263773D01*
X0380539Y0263793D01*
X0380697Y0263809D01*
X0380854Y0263821D01*
X0381013Y0263829D01*
X0381171Y0263833D01*
X0381329Y0263833D01*
X0381487Y0263829D01*
X0381646Y0263821D01*
X0381803Y0263809D01*
X0381961Y0263793D01*
X0382118Y0263773D01*
X0382274Y0263749D01*
X0382430Y0263721D01*
X0382585Y0263690D01*
X0382740Y0263654D01*
X0382893Y0263615D01*
X0383045Y0263572D01*
X0383196Y0263525D01*
X0383346Y0263474D01*
X0383495Y0263419D01*
X0383642Y0263361D01*
X0383788Y0263299D01*
X0383932Y0263234D01*
X0384074Y0263164D01*
X0384215Y0263092D01*
X0384354Y0263015D01*
X0384490Y0262936D01*
X0384625Y0262852D01*
X0384758Y0262766D01*
X0384888Y0262676D01*
X0385016Y0262583D01*
X0385142Y0262487D01*
X0385265Y0262387D01*
X0385386Y0262285D01*
X0385504Y0262180D01*
X0385619Y0262071D01*
X0385732Y0261960D01*
X0385842Y0261846D01*
X0385949Y0261729D01*
X0386053Y0261610D01*
X0386154Y0261488D01*
X0386251Y0261363D01*
X0386346Y0261236D01*
X0386437Y0261107D01*
X0386526Y0260976D01*
X0386610Y0260842D01*
X0386692Y0260706D01*
X0386770Y0260569D01*
X0386844Y0260429D01*
X0386915Y0260287D01*
X0386983Y0260144D01*
X0387047Y0259999D01*
X0387107Y0259853D01*
X0387163Y0259705D01*
X0387216Y0259556D01*
X0387265Y0259405D01*
X0387310Y0259253D01*
X0387351Y0259100D01*
X0387389Y0258947D01*
X0387422Y0258792D01*
X0387452Y0258636D01*
X0387478Y0258480D01*
X0387499Y0258323D01*
X0387517Y0258166D01*
X0387531Y0258008D01*
X0387541Y0257850D01*
X0387547Y0257692D01*
X0387549Y0257534D01*
X0387547Y0257376D01*
X0387541Y0257218D01*
X0387531Y0257060D01*
X0387517Y0256902D01*
X0387499Y0256745D01*
X0387478Y0256588D01*
X0387452Y0256432D01*
X0387422Y0256276D01*
X0387389Y0256121D01*
X0387351Y0255968D01*
X0387310Y0255815D01*
X0387265Y0255663D01*
X0387216Y0255512D01*
X0387163Y0255363D01*
X0387107Y0255215D01*
X0387047Y0255069D01*
X0386983Y0254924D01*
X0386915Y0254781D01*
X0386844Y0254639D01*
X0386770Y0254499D01*
X0386692Y0254362D01*
X0386610Y0254226D01*
X0386526Y0254092D01*
X0386437Y0253961D01*
X0386346Y0253832D01*
X0386251Y0253705D01*
X0386154Y0253580D01*
X0386053Y0253458D01*
X0385949Y0253339D01*
X0385842Y0253222D01*
X0385732Y0253108D01*
X0385619Y0252997D01*
X0385504Y0252888D01*
X0385386Y0252783D01*
X0385265Y0252681D01*
X0385142Y0252581D01*
X0385016Y0252485D01*
X0384888Y0252392D01*
X0384758Y0252302D01*
X0384625Y0252216D01*
X0384490Y0252132D01*
X0384354Y0252053D01*
X0384215Y0251976D01*
X0384074Y0251904D01*
X0383932Y0251834D01*
X0383788Y0251769D01*
X0383642Y0251707D01*
X0383495Y0251649D01*
X0383346Y0251594D01*
X0383196Y0251543D01*
X0383045Y0251496D01*
X0382893Y0251453D01*
X0382740Y0251414D01*
X0382585Y0251378D01*
X0382430Y0251347D01*
X0382274Y0251319D01*
X0382118Y0251295D01*
X0381961Y0251275D01*
X0381803Y0251259D01*
X0381646Y0251247D01*
X0381487Y0251239D01*
X0381329Y0251235D01*
X0381171Y0251235D01*
X0381013Y0251239D01*
X0380854Y0251247D01*
X0380697Y0251259D01*
X0380539Y0251275D01*
X0380382Y0251295D01*
X0380226Y0251319D01*
X0380070Y0251347D01*
X0379915Y0251378D01*
X0379760Y0251414D01*
X0379607Y0251453D01*
X0379455Y0251496D01*
X0379304Y0251543D01*
X0379154Y0251594D01*
X0379005Y0251649D01*
X0378858Y0251707D01*
X0378712Y0251769D01*
X0378568Y0251834D01*
X0378426Y0251904D01*
X0378285Y0251976D01*
X0378146Y0252053D01*
X0378010Y0252132D01*
X0377875Y0252216D01*
X0377742Y0252302D01*
X0377612Y0252392D01*
X0377484Y0252485D01*
X0377358Y0252581D01*
X0377235Y0252681D01*
X0377114Y0252783D01*
X0376996Y0252888D01*
X0376881Y0252997D01*
X0376768Y0253108D01*
X0376658Y0253222D01*
X0376551Y0253339D01*
X0376447Y0253458D01*
X0376346Y0253580D01*
X0376249Y0253705D01*
X0376154Y0253832D01*
X0376063Y0253961D01*
X0375974Y0254092D01*
X0375890Y0254226D01*
X0375808Y0254362D01*
X0375730Y0254499D01*
X0375656Y0254639D01*
X0375585Y0254781D01*
X0375517Y0254924D01*
X0375453Y0255069D01*
X0375393Y0255215D01*
X0375337Y0255363D01*
X0375284Y0255512D01*
X0375235Y0255663D01*
X0375190Y0255815D01*
X0375149Y0255968D01*
X0375111Y0256121D01*
X0375078Y0256276D01*
X0375048Y0256432D01*
X0375022Y0256588D01*
X0375001Y0256745D01*
X0374983Y0256902D01*
X0374969Y0257060D01*
X0374959Y0257218D01*
X0374953Y0257376D01*
X0374951Y0257534D01*
X0147588Y0306904D02*
X0147590Y0307012D01*
X0147596Y0307121D01*
X0147606Y0307229D01*
X0147620Y0307336D01*
X0147638Y0307443D01*
X0147659Y0307550D01*
X0147685Y0307655D01*
X0147715Y0307760D01*
X0147748Y0307863D01*
X0147785Y0307965D01*
X0147826Y0308065D01*
X0147870Y0308164D01*
X0147919Y0308262D01*
X0147970Y0308357D01*
X0148025Y0308450D01*
X0148084Y0308542D01*
X0148146Y0308631D01*
X0148211Y0308718D01*
X0148279Y0308802D01*
X0148350Y0308884D01*
X0148424Y0308963D01*
X0148501Y0309039D01*
X0148581Y0309113D01*
X0148664Y0309183D01*
X0148749Y0309251D01*
X0148836Y0309315D01*
X0148926Y0309376D01*
X0149018Y0309434D01*
X0149112Y0309488D01*
X0149208Y0309539D01*
X0149305Y0309586D01*
X0149405Y0309630D01*
X0149506Y0309670D01*
X0149608Y0309706D01*
X0149711Y0309738D01*
X0149816Y0309767D01*
X0149922Y0309791D01*
X0150028Y0309812D01*
X0150135Y0309829D01*
X0150243Y0309842D01*
X0150351Y0309851D01*
X0150460Y0309856D01*
X0150568Y0309857D01*
X0150677Y0309854D01*
X0150785Y0309847D01*
X0150893Y0309836D01*
X0151000Y0309821D01*
X0151107Y0309802D01*
X0151213Y0309779D01*
X0151318Y0309753D01*
X0151423Y0309722D01*
X0151525Y0309688D01*
X0151627Y0309650D01*
X0151727Y0309608D01*
X0151826Y0309563D01*
X0151923Y0309514D01*
X0152017Y0309461D01*
X0152110Y0309405D01*
X0152201Y0309346D01*
X0152290Y0309283D01*
X0152376Y0309218D01*
X0152460Y0309149D01*
X0152541Y0309077D01*
X0152619Y0309002D01*
X0152695Y0308924D01*
X0152768Y0308843D01*
X0152838Y0308760D01*
X0152904Y0308675D01*
X0152968Y0308587D01*
X0153028Y0308496D01*
X0153085Y0308404D01*
X0153138Y0308309D01*
X0153188Y0308213D01*
X0153234Y0308115D01*
X0153277Y0308015D01*
X0153316Y0307914D01*
X0153351Y0307811D01*
X0153383Y0307708D01*
X0153410Y0307603D01*
X0153434Y0307497D01*
X0153454Y0307390D01*
X0153470Y0307283D01*
X0153482Y0307175D01*
X0153490Y0307067D01*
X0153494Y0306958D01*
X0153494Y0306850D01*
X0153490Y0306741D01*
X0153482Y0306633D01*
X0153470Y0306525D01*
X0153454Y0306418D01*
X0153434Y0306311D01*
X0153410Y0306205D01*
X0153383Y0306100D01*
X0153351Y0305997D01*
X0153316Y0305894D01*
X0153277Y0305793D01*
X0153234Y0305693D01*
X0153188Y0305595D01*
X0153138Y0305499D01*
X0153085Y0305404D01*
X0153028Y0305312D01*
X0152968Y0305221D01*
X0152904Y0305133D01*
X0152838Y0305048D01*
X0152768Y0304965D01*
X0152695Y0304884D01*
X0152619Y0304806D01*
X0152541Y0304731D01*
X0152460Y0304659D01*
X0152376Y0304590D01*
X0152290Y0304525D01*
X0152201Y0304462D01*
X0152110Y0304403D01*
X0152018Y0304347D01*
X0151923Y0304294D01*
X0151826Y0304245D01*
X0151727Y0304200D01*
X0151627Y0304158D01*
X0151525Y0304120D01*
X0151423Y0304086D01*
X0151318Y0304055D01*
X0151213Y0304029D01*
X0151107Y0304006D01*
X0151000Y0303987D01*
X0150893Y0303972D01*
X0150785Y0303961D01*
X0150677Y0303954D01*
X0150568Y0303951D01*
X0150460Y0303952D01*
X0150351Y0303957D01*
X0150243Y0303966D01*
X0150135Y0303979D01*
X0150028Y0303996D01*
X0149922Y0304017D01*
X0149816Y0304041D01*
X0149711Y0304070D01*
X0149608Y0304102D01*
X0149506Y0304138D01*
X0149405Y0304178D01*
X0149305Y0304222D01*
X0149208Y0304269D01*
X0149112Y0304320D01*
X0149018Y0304374D01*
X0148926Y0304432D01*
X0148836Y0304493D01*
X0148749Y0304557D01*
X0148664Y0304625D01*
X0148581Y0304695D01*
X0148501Y0304769D01*
X0148424Y0304845D01*
X0148350Y0304924D01*
X0148279Y0305006D01*
X0148211Y0305090D01*
X0148146Y0305177D01*
X0148084Y0305266D01*
X0148025Y0305358D01*
X0147970Y0305451D01*
X0147919Y0305546D01*
X0147870Y0305644D01*
X0147826Y0305743D01*
X0147785Y0305843D01*
X0147748Y0305945D01*
X0147715Y0306048D01*
X0147685Y0306153D01*
X0147659Y0306258D01*
X0147638Y0306365D01*
X0147620Y0306472D01*
X0147606Y0306579D01*
X0147596Y0306687D01*
X0147590Y0306796D01*
X0147588Y0306904D01*
X0127903Y0287219D02*
X0127905Y0287327D01*
X0127911Y0287436D01*
X0127921Y0287544D01*
X0127935Y0287651D01*
X0127953Y0287758D01*
X0127974Y0287865D01*
X0128000Y0287970D01*
X0128030Y0288075D01*
X0128063Y0288178D01*
X0128100Y0288280D01*
X0128141Y0288380D01*
X0128185Y0288479D01*
X0128234Y0288577D01*
X0128285Y0288672D01*
X0128340Y0288765D01*
X0128399Y0288857D01*
X0128461Y0288946D01*
X0128526Y0289033D01*
X0128594Y0289117D01*
X0128665Y0289199D01*
X0128739Y0289278D01*
X0128816Y0289354D01*
X0128896Y0289428D01*
X0128979Y0289498D01*
X0129064Y0289566D01*
X0129151Y0289630D01*
X0129241Y0289691D01*
X0129333Y0289749D01*
X0129427Y0289803D01*
X0129523Y0289854D01*
X0129620Y0289901D01*
X0129720Y0289945D01*
X0129821Y0289985D01*
X0129923Y0290021D01*
X0130026Y0290053D01*
X0130131Y0290082D01*
X0130237Y0290106D01*
X0130343Y0290127D01*
X0130450Y0290144D01*
X0130558Y0290157D01*
X0130666Y0290166D01*
X0130775Y0290171D01*
X0130883Y0290172D01*
X0130992Y0290169D01*
X0131100Y0290162D01*
X0131208Y0290151D01*
X0131315Y0290136D01*
X0131422Y0290117D01*
X0131528Y0290094D01*
X0131633Y0290068D01*
X0131738Y0290037D01*
X0131840Y0290003D01*
X0131942Y0289965D01*
X0132042Y0289923D01*
X0132141Y0289878D01*
X0132238Y0289829D01*
X0132332Y0289776D01*
X0132425Y0289720D01*
X0132516Y0289661D01*
X0132605Y0289598D01*
X0132691Y0289533D01*
X0132775Y0289464D01*
X0132856Y0289392D01*
X0132934Y0289317D01*
X0133010Y0289239D01*
X0133083Y0289158D01*
X0133153Y0289075D01*
X0133219Y0288990D01*
X0133283Y0288902D01*
X0133343Y0288811D01*
X0133400Y0288719D01*
X0133453Y0288624D01*
X0133503Y0288528D01*
X0133549Y0288430D01*
X0133592Y0288330D01*
X0133631Y0288229D01*
X0133666Y0288126D01*
X0133698Y0288023D01*
X0133725Y0287918D01*
X0133749Y0287812D01*
X0133769Y0287705D01*
X0133785Y0287598D01*
X0133797Y0287490D01*
X0133805Y0287382D01*
X0133809Y0287273D01*
X0133809Y0287165D01*
X0133805Y0287056D01*
X0133797Y0286948D01*
X0133785Y0286840D01*
X0133769Y0286733D01*
X0133749Y0286626D01*
X0133725Y0286520D01*
X0133698Y0286415D01*
X0133666Y0286312D01*
X0133631Y0286209D01*
X0133592Y0286108D01*
X0133549Y0286008D01*
X0133503Y0285910D01*
X0133453Y0285814D01*
X0133400Y0285719D01*
X0133343Y0285627D01*
X0133283Y0285536D01*
X0133219Y0285448D01*
X0133153Y0285363D01*
X0133083Y0285280D01*
X0133010Y0285199D01*
X0132934Y0285121D01*
X0132856Y0285046D01*
X0132775Y0284974D01*
X0132691Y0284905D01*
X0132605Y0284840D01*
X0132516Y0284777D01*
X0132425Y0284718D01*
X0132333Y0284662D01*
X0132238Y0284609D01*
X0132141Y0284560D01*
X0132042Y0284515D01*
X0131942Y0284473D01*
X0131840Y0284435D01*
X0131738Y0284401D01*
X0131633Y0284370D01*
X0131528Y0284344D01*
X0131422Y0284321D01*
X0131315Y0284302D01*
X0131208Y0284287D01*
X0131100Y0284276D01*
X0130992Y0284269D01*
X0130883Y0284266D01*
X0130775Y0284267D01*
X0130666Y0284272D01*
X0130558Y0284281D01*
X0130450Y0284294D01*
X0130343Y0284311D01*
X0130237Y0284332D01*
X0130131Y0284356D01*
X0130026Y0284385D01*
X0129923Y0284417D01*
X0129821Y0284453D01*
X0129720Y0284493D01*
X0129620Y0284537D01*
X0129523Y0284584D01*
X0129427Y0284635D01*
X0129333Y0284689D01*
X0129241Y0284747D01*
X0129151Y0284808D01*
X0129064Y0284872D01*
X0128979Y0284940D01*
X0128896Y0285010D01*
X0128816Y0285084D01*
X0128739Y0285160D01*
X0128665Y0285239D01*
X0128594Y0285321D01*
X0128526Y0285405D01*
X0128461Y0285492D01*
X0128399Y0285581D01*
X0128340Y0285673D01*
X0128285Y0285766D01*
X0128234Y0285861D01*
X0128185Y0285959D01*
X0128141Y0286058D01*
X0128100Y0286158D01*
X0128063Y0286260D01*
X0128030Y0286363D01*
X0128000Y0286468D01*
X0127974Y0286573D01*
X0127953Y0286680D01*
X0127935Y0286787D01*
X0127921Y0286894D01*
X0127911Y0287002D01*
X0127905Y0287111D01*
X0127903Y0287219D01*
X0108218Y0306904D02*
X0108220Y0307012D01*
X0108226Y0307121D01*
X0108236Y0307229D01*
X0108250Y0307336D01*
X0108268Y0307443D01*
X0108289Y0307550D01*
X0108315Y0307655D01*
X0108345Y0307760D01*
X0108378Y0307863D01*
X0108415Y0307965D01*
X0108456Y0308065D01*
X0108500Y0308164D01*
X0108549Y0308262D01*
X0108600Y0308357D01*
X0108655Y0308450D01*
X0108714Y0308542D01*
X0108776Y0308631D01*
X0108841Y0308718D01*
X0108909Y0308802D01*
X0108980Y0308884D01*
X0109054Y0308963D01*
X0109131Y0309039D01*
X0109211Y0309113D01*
X0109294Y0309183D01*
X0109379Y0309251D01*
X0109466Y0309315D01*
X0109556Y0309376D01*
X0109648Y0309434D01*
X0109742Y0309488D01*
X0109838Y0309539D01*
X0109935Y0309586D01*
X0110035Y0309630D01*
X0110136Y0309670D01*
X0110238Y0309706D01*
X0110341Y0309738D01*
X0110446Y0309767D01*
X0110552Y0309791D01*
X0110658Y0309812D01*
X0110765Y0309829D01*
X0110873Y0309842D01*
X0110981Y0309851D01*
X0111090Y0309856D01*
X0111198Y0309857D01*
X0111307Y0309854D01*
X0111415Y0309847D01*
X0111523Y0309836D01*
X0111630Y0309821D01*
X0111737Y0309802D01*
X0111843Y0309779D01*
X0111948Y0309753D01*
X0112053Y0309722D01*
X0112155Y0309688D01*
X0112257Y0309650D01*
X0112357Y0309608D01*
X0112456Y0309563D01*
X0112553Y0309514D01*
X0112647Y0309461D01*
X0112740Y0309405D01*
X0112831Y0309346D01*
X0112920Y0309283D01*
X0113006Y0309218D01*
X0113090Y0309149D01*
X0113171Y0309077D01*
X0113249Y0309002D01*
X0113325Y0308924D01*
X0113398Y0308843D01*
X0113468Y0308760D01*
X0113534Y0308675D01*
X0113598Y0308587D01*
X0113658Y0308496D01*
X0113715Y0308404D01*
X0113768Y0308309D01*
X0113818Y0308213D01*
X0113864Y0308115D01*
X0113907Y0308015D01*
X0113946Y0307914D01*
X0113981Y0307811D01*
X0114013Y0307708D01*
X0114040Y0307603D01*
X0114064Y0307497D01*
X0114084Y0307390D01*
X0114100Y0307283D01*
X0114112Y0307175D01*
X0114120Y0307067D01*
X0114124Y0306958D01*
X0114124Y0306850D01*
X0114120Y0306741D01*
X0114112Y0306633D01*
X0114100Y0306525D01*
X0114084Y0306418D01*
X0114064Y0306311D01*
X0114040Y0306205D01*
X0114013Y0306100D01*
X0113981Y0305997D01*
X0113946Y0305894D01*
X0113907Y0305793D01*
X0113864Y0305693D01*
X0113818Y0305595D01*
X0113768Y0305499D01*
X0113715Y0305404D01*
X0113658Y0305312D01*
X0113598Y0305221D01*
X0113534Y0305133D01*
X0113468Y0305048D01*
X0113398Y0304965D01*
X0113325Y0304884D01*
X0113249Y0304806D01*
X0113171Y0304731D01*
X0113090Y0304659D01*
X0113006Y0304590D01*
X0112920Y0304525D01*
X0112831Y0304462D01*
X0112740Y0304403D01*
X0112648Y0304347D01*
X0112553Y0304294D01*
X0112456Y0304245D01*
X0112357Y0304200D01*
X0112257Y0304158D01*
X0112155Y0304120D01*
X0112053Y0304086D01*
X0111948Y0304055D01*
X0111843Y0304029D01*
X0111737Y0304006D01*
X0111630Y0303987D01*
X0111523Y0303972D01*
X0111415Y0303961D01*
X0111307Y0303954D01*
X0111198Y0303951D01*
X0111090Y0303952D01*
X0110981Y0303957D01*
X0110873Y0303966D01*
X0110765Y0303979D01*
X0110658Y0303996D01*
X0110552Y0304017D01*
X0110446Y0304041D01*
X0110341Y0304070D01*
X0110238Y0304102D01*
X0110136Y0304138D01*
X0110035Y0304178D01*
X0109935Y0304222D01*
X0109838Y0304269D01*
X0109742Y0304320D01*
X0109648Y0304374D01*
X0109556Y0304432D01*
X0109466Y0304493D01*
X0109379Y0304557D01*
X0109294Y0304625D01*
X0109211Y0304695D01*
X0109131Y0304769D01*
X0109054Y0304845D01*
X0108980Y0304924D01*
X0108909Y0305006D01*
X0108841Y0305090D01*
X0108776Y0305177D01*
X0108714Y0305266D01*
X0108655Y0305358D01*
X0108600Y0305451D01*
X0108549Y0305546D01*
X0108500Y0305644D01*
X0108456Y0305743D01*
X0108415Y0305843D01*
X0108378Y0305945D01*
X0108345Y0306048D01*
X0108315Y0306153D01*
X0108289Y0306258D01*
X0108268Y0306365D01*
X0108250Y0306472D01*
X0108236Y0306579D01*
X0108226Y0306687D01*
X0108220Y0306796D01*
X0108218Y0306904D01*
X0079951Y0257534D02*
X0079953Y0257692D01*
X0079959Y0257850D01*
X0079969Y0258008D01*
X0079983Y0258166D01*
X0080001Y0258323D01*
X0080022Y0258480D01*
X0080048Y0258636D01*
X0080078Y0258792D01*
X0080111Y0258947D01*
X0080149Y0259100D01*
X0080190Y0259253D01*
X0080235Y0259405D01*
X0080284Y0259556D01*
X0080337Y0259705D01*
X0080393Y0259853D01*
X0080453Y0259999D01*
X0080517Y0260144D01*
X0080585Y0260287D01*
X0080656Y0260429D01*
X0080730Y0260569D01*
X0080808Y0260706D01*
X0080890Y0260842D01*
X0080974Y0260976D01*
X0081063Y0261107D01*
X0081154Y0261236D01*
X0081249Y0261363D01*
X0081346Y0261488D01*
X0081447Y0261610D01*
X0081551Y0261729D01*
X0081658Y0261846D01*
X0081768Y0261960D01*
X0081881Y0262071D01*
X0081996Y0262180D01*
X0082114Y0262285D01*
X0082235Y0262387D01*
X0082358Y0262487D01*
X0082484Y0262583D01*
X0082612Y0262676D01*
X0082742Y0262766D01*
X0082875Y0262852D01*
X0083010Y0262936D01*
X0083146Y0263015D01*
X0083285Y0263092D01*
X0083426Y0263164D01*
X0083568Y0263234D01*
X0083712Y0263299D01*
X0083858Y0263361D01*
X0084005Y0263419D01*
X0084154Y0263474D01*
X0084304Y0263525D01*
X0084455Y0263572D01*
X0084607Y0263615D01*
X0084760Y0263654D01*
X0084915Y0263690D01*
X0085070Y0263721D01*
X0085226Y0263749D01*
X0085382Y0263773D01*
X0085539Y0263793D01*
X0085697Y0263809D01*
X0085854Y0263821D01*
X0086013Y0263829D01*
X0086171Y0263833D01*
X0086329Y0263833D01*
X0086487Y0263829D01*
X0086646Y0263821D01*
X0086803Y0263809D01*
X0086961Y0263793D01*
X0087118Y0263773D01*
X0087274Y0263749D01*
X0087430Y0263721D01*
X0087585Y0263690D01*
X0087740Y0263654D01*
X0087893Y0263615D01*
X0088045Y0263572D01*
X0088196Y0263525D01*
X0088346Y0263474D01*
X0088495Y0263419D01*
X0088642Y0263361D01*
X0088788Y0263299D01*
X0088932Y0263234D01*
X0089074Y0263164D01*
X0089215Y0263092D01*
X0089354Y0263015D01*
X0089490Y0262936D01*
X0089625Y0262852D01*
X0089758Y0262766D01*
X0089888Y0262676D01*
X0090016Y0262583D01*
X0090142Y0262487D01*
X0090265Y0262387D01*
X0090386Y0262285D01*
X0090504Y0262180D01*
X0090619Y0262071D01*
X0090732Y0261960D01*
X0090842Y0261846D01*
X0090949Y0261729D01*
X0091053Y0261610D01*
X0091154Y0261488D01*
X0091251Y0261363D01*
X0091346Y0261236D01*
X0091437Y0261107D01*
X0091526Y0260976D01*
X0091610Y0260842D01*
X0091692Y0260706D01*
X0091770Y0260569D01*
X0091844Y0260429D01*
X0091915Y0260287D01*
X0091983Y0260144D01*
X0092047Y0259999D01*
X0092107Y0259853D01*
X0092163Y0259705D01*
X0092216Y0259556D01*
X0092265Y0259405D01*
X0092310Y0259253D01*
X0092351Y0259100D01*
X0092389Y0258947D01*
X0092422Y0258792D01*
X0092452Y0258636D01*
X0092478Y0258480D01*
X0092499Y0258323D01*
X0092517Y0258166D01*
X0092531Y0258008D01*
X0092541Y0257850D01*
X0092547Y0257692D01*
X0092549Y0257534D01*
X0092547Y0257376D01*
X0092541Y0257218D01*
X0092531Y0257060D01*
X0092517Y0256902D01*
X0092499Y0256745D01*
X0092478Y0256588D01*
X0092452Y0256432D01*
X0092422Y0256276D01*
X0092389Y0256121D01*
X0092351Y0255968D01*
X0092310Y0255815D01*
X0092265Y0255663D01*
X0092216Y0255512D01*
X0092163Y0255363D01*
X0092107Y0255215D01*
X0092047Y0255069D01*
X0091983Y0254924D01*
X0091915Y0254781D01*
X0091844Y0254639D01*
X0091770Y0254499D01*
X0091692Y0254362D01*
X0091610Y0254226D01*
X0091526Y0254092D01*
X0091437Y0253961D01*
X0091346Y0253832D01*
X0091251Y0253705D01*
X0091154Y0253580D01*
X0091053Y0253458D01*
X0090949Y0253339D01*
X0090842Y0253222D01*
X0090732Y0253108D01*
X0090619Y0252997D01*
X0090504Y0252888D01*
X0090386Y0252783D01*
X0090265Y0252681D01*
X0090142Y0252581D01*
X0090016Y0252485D01*
X0089888Y0252392D01*
X0089758Y0252302D01*
X0089625Y0252216D01*
X0089490Y0252132D01*
X0089354Y0252053D01*
X0089215Y0251976D01*
X0089074Y0251904D01*
X0088932Y0251834D01*
X0088788Y0251769D01*
X0088642Y0251707D01*
X0088495Y0251649D01*
X0088346Y0251594D01*
X0088196Y0251543D01*
X0088045Y0251496D01*
X0087893Y0251453D01*
X0087740Y0251414D01*
X0087585Y0251378D01*
X0087430Y0251347D01*
X0087274Y0251319D01*
X0087118Y0251295D01*
X0086961Y0251275D01*
X0086803Y0251259D01*
X0086646Y0251247D01*
X0086487Y0251239D01*
X0086329Y0251235D01*
X0086171Y0251235D01*
X0086013Y0251239D01*
X0085854Y0251247D01*
X0085697Y0251259D01*
X0085539Y0251275D01*
X0085382Y0251295D01*
X0085226Y0251319D01*
X0085070Y0251347D01*
X0084915Y0251378D01*
X0084760Y0251414D01*
X0084607Y0251453D01*
X0084455Y0251496D01*
X0084304Y0251543D01*
X0084154Y0251594D01*
X0084005Y0251649D01*
X0083858Y0251707D01*
X0083712Y0251769D01*
X0083568Y0251834D01*
X0083426Y0251904D01*
X0083285Y0251976D01*
X0083146Y0252053D01*
X0083010Y0252132D01*
X0082875Y0252216D01*
X0082742Y0252302D01*
X0082612Y0252392D01*
X0082484Y0252485D01*
X0082358Y0252581D01*
X0082235Y0252681D01*
X0082114Y0252783D01*
X0081996Y0252888D01*
X0081881Y0252997D01*
X0081768Y0253108D01*
X0081658Y0253222D01*
X0081551Y0253339D01*
X0081447Y0253458D01*
X0081346Y0253580D01*
X0081249Y0253705D01*
X0081154Y0253832D01*
X0081063Y0253961D01*
X0080974Y0254092D01*
X0080890Y0254226D01*
X0080808Y0254362D01*
X0080730Y0254499D01*
X0080656Y0254639D01*
X0080585Y0254781D01*
X0080517Y0254924D01*
X0080453Y0255069D01*
X0080393Y0255215D01*
X0080337Y0255363D01*
X0080284Y0255512D01*
X0080235Y0255663D01*
X0080190Y0255815D01*
X0080149Y0255968D01*
X0080111Y0256121D01*
X0080078Y0256276D01*
X0080048Y0256432D01*
X0080022Y0256588D01*
X0080001Y0256745D01*
X0079983Y0256902D01*
X0079969Y0257060D01*
X0079959Y0257218D01*
X0079953Y0257376D01*
X0079951Y0257534D01*
M02*
