G75*
%MOIN*%
%OFA0B0*%
%FSLAX25Y25*%
%IPPOS*%
%LPD*%
%AMOC8*
5,1,8,0,0,1.08239X$1,22.5*
%
%ADD10C,0.00000*%
%ADD11C,0.01000*%
%ADD12C,0.00400*%
%ADD13C,0.00800*%
%ADD14C,0.00600*%
%ADD15C,0.01200*%
%ADD16C,0.00900*%
%ADD17C,0.00500*%
%ADD18R,0.02000X0.01500*%
D10*
X0076250Y0002534D02*
X0076250Y0317495D01*
X0474951Y0317495D01*
X0474951Y0002534D01*
X0076250Y0002534D01*
X0074951Y0067534D02*
X0074953Y0067692D01*
X0074959Y0067850D01*
X0074969Y0068008D01*
X0074983Y0068166D01*
X0075001Y0068323D01*
X0075022Y0068480D01*
X0075048Y0068636D01*
X0075078Y0068792D01*
X0075111Y0068947D01*
X0075149Y0069100D01*
X0075190Y0069253D01*
X0075235Y0069405D01*
X0075284Y0069556D01*
X0075337Y0069705D01*
X0075393Y0069853D01*
X0075453Y0069999D01*
X0075517Y0070144D01*
X0075585Y0070287D01*
X0075656Y0070429D01*
X0075730Y0070569D01*
X0075808Y0070706D01*
X0075890Y0070842D01*
X0075974Y0070976D01*
X0076063Y0071107D01*
X0076154Y0071236D01*
X0076249Y0071363D01*
X0076346Y0071488D01*
X0076447Y0071610D01*
X0076551Y0071729D01*
X0076658Y0071846D01*
X0076768Y0071960D01*
X0076881Y0072071D01*
X0076996Y0072180D01*
X0077114Y0072285D01*
X0077235Y0072387D01*
X0077358Y0072487D01*
X0077484Y0072583D01*
X0077612Y0072676D01*
X0077742Y0072766D01*
X0077875Y0072852D01*
X0078010Y0072936D01*
X0078146Y0073015D01*
X0078285Y0073092D01*
X0078426Y0073164D01*
X0078568Y0073234D01*
X0078712Y0073299D01*
X0078858Y0073361D01*
X0079005Y0073419D01*
X0079154Y0073474D01*
X0079304Y0073525D01*
X0079455Y0073572D01*
X0079607Y0073615D01*
X0079760Y0073654D01*
X0079915Y0073690D01*
X0080070Y0073721D01*
X0080226Y0073749D01*
X0080382Y0073773D01*
X0080539Y0073793D01*
X0080697Y0073809D01*
X0080854Y0073821D01*
X0081013Y0073829D01*
X0081171Y0073833D01*
X0081329Y0073833D01*
X0081487Y0073829D01*
X0081646Y0073821D01*
X0081803Y0073809D01*
X0081961Y0073793D01*
X0082118Y0073773D01*
X0082274Y0073749D01*
X0082430Y0073721D01*
X0082585Y0073690D01*
X0082740Y0073654D01*
X0082893Y0073615D01*
X0083045Y0073572D01*
X0083196Y0073525D01*
X0083346Y0073474D01*
X0083495Y0073419D01*
X0083642Y0073361D01*
X0083788Y0073299D01*
X0083932Y0073234D01*
X0084074Y0073164D01*
X0084215Y0073092D01*
X0084354Y0073015D01*
X0084490Y0072936D01*
X0084625Y0072852D01*
X0084758Y0072766D01*
X0084888Y0072676D01*
X0085016Y0072583D01*
X0085142Y0072487D01*
X0085265Y0072387D01*
X0085386Y0072285D01*
X0085504Y0072180D01*
X0085619Y0072071D01*
X0085732Y0071960D01*
X0085842Y0071846D01*
X0085949Y0071729D01*
X0086053Y0071610D01*
X0086154Y0071488D01*
X0086251Y0071363D01*
X0086346Y0071236D01*
X0086437Y0071107D01*
X0086526Y0070976D01*
X0086610Y0070842D01*
X0086692Y0070706D01*
X0086770Y0070569D01*
X0086844Y0070429D01*
X0086915Y0070287D01*
X0086983Y0070144D01*
X0087047Y0069999D01*
X0087107Y0069853D01*
X0087163Y0069705D01*
X0087216Y0069556D01*
X0087265Y0069405D01*
X0087310Y0069253D01*
X0087351Y0069100D01*
X0087389Y0068947D01*
X0087422Y0068792D01*
X0087452Y0068636D01*
X0087478Y0068480D01*
X0087499Y0068323D01*
X0087517Y0068166D01*
X0087531Y0068008D01*
X0087541Y0067850D01*
X0087547Y0067692D01*
X0087549Y0067534D01*
X0087547Y0067376D01*
X0087541Y0067218D01*
X0087531Y0067060D01*
X0087517Y0066902D01*
X0087499Y0066745D01*
X0087478Y0066588D01*
X0087452Y0066432D01*
X0087422Y0066276D01*
X0087389Y0066121D01*
X0087351Y0065968D01*
X0087310Y0065815D01*
X0087265Y0065663D01*
X0087216Y0065512D01*
X0087163Y0065363D01*
X0087107Y0065215D01*
X0087047Y0065069D01*
X0086983Y0064924D01*
X0086915Y0064781D01*
X0086844Y0064639D01*
X0086770Y0064499D01*
X0086692Y0064362D01*
X0086610Y0064226D01*
X0086526Y0064092D01*
X0086437Y0063961D01*
X0086346Y0063832D01*
X0086251Y0063705D01*
X0086154Y0063580D01*
X0086053Y0063458D01*
X0085949Y0063339D01*
X0085842Y0063222D01*
X0085732Y0063108D01*
X0085619Y0062997D01*
X0085504Y0062888D01*
X0085386Y0062783D01*
X0085265Y0062681D01*
X0085142Y0062581D01*
X0085016Y0062485D01*
X0084888Y0062392D01*
X0084758Y0062302D01*
X0084625Y0062216D01*
X0084490Y0062132D01*
X0084354Y0062053D01*
X0084215Y0061976D01*
X0084074Y0061904D01*
X0083932Y0061834D01*
X0083788Y0061769D01*
X0083642Y0061707D01*
X0083495Y0061649D01*
X0083346Y0061594D01*
X0083196Y0061543D01*
X0083045Y0061496D01*
X0082893Y0061453D01*
X0082740Y0061414D01*
X0082585Y0061378D01*
X0082430Y0061347D01*
X0082274Y0061319D01*
X0082118Y0061295D01*
X0081961Y0061275D01*
X0081803Y0061259D01*
X0081646Y0061247D01*
X0081487Y0061239D01*
X0081329Y0061235D01*
X0081171Y0061235D01*
X0081013Y0061239D01*
X0080854Y0061247D01*
X0080697Y0061259D01*
X0080539Y0061275D01*
X0080382Y0061295D01*
X0080226Y0061319D01*
X0080070Y0061347D01*
X0079915Y0061378D01*
X0079760Y0061414D01*
X0079607Y0061453D01*
X0079455Y0061496D01*
X0079304Y0061543D01*
X0079154Y0061594D01*
X0079005Y0061649D01*
X0078858Y0061707D01*
X0078712Y0061769D01*
X0078568Y0061834D01*
X0078426Y0061904D01*
X0078285Y0061976D01*
X0078146Y0062053D01*
X0078010Y0062132D01*
X0077875Y0062216D01*
X0077742Y0062302D01*
X0077612Y0062392D01*
X0077484Y0062485D01*
X0077358Y0062581D01*
X0077235Y0062681D01*
X0077114Y0062783D01*
X0076996Y0062888D01*
X0076881Y0062997D01*
X0076768Y0063108D01*
X0076658Y0063222D01*
X0076551Y0063339D01*
X0076447Y0063458D01*
X0076346Y0063580D01*
X0076249Y0063705D01*
X0076154Y0063832D01*
X0076063Y0063961D01*
X0075974Y0064092D01*
X0075890Y0064226D01*
X0075808Y0064362D01*
X0075730Y0064499D01*
X0075656Y0064639D01*
X0075585Y0064781D01*
X0075517Y0064924D01*
X0075453Y0065069D01*
X0075393Y0065215D01*
X0075337Y0065363D01*
X0075284Y0065512D01*
X0075235Y0065663D01*
X0075190Y0065815D01*
X0075149Y0065968D01*
X0075111Y0066121D01*
X0075078Y0066276D01*
X0075048Y0066432D01*
X0075022Y0066588D01*
X0075001Y0066745D01*
X0074983Y0066902D01*
X0074969Y0067060D01*
X0074959Y0067218D01*
X0074953Y0067376D01*
X0074951Y0067534D01*
X0279951Y0087534D02*
X0279953Y0087692D01*
X0279959Y0087850D01*
X0279969Y0088008D01*
X0279983Y0088166D01*
X0280001Y0088323D01*
X0280022Y0088480D01*
X0280048Y0088636D01*
X0280078Y0088792D01*
X0280111Y0088947D01*
X0280149Y0089100D01*
X0280190Y0089253D01*
X0280235Y0089405D01*
X0280284Y0089556D01*
X0280337Y0089705D01*
X0280393Y0089853D01*
X0280453Y0089999D01*
X0280517Y0090144D01*
X0280585Y0090287D01*
X0280656Y0090429D01*
X0280730Y0090569D01*
X0280808Y0090706D01*
X0280890Y0090842D01*
X0280974Y0090976D01*
X0281063Y0091107D01*
X0281154Y0091236D01*
X0281249Y0091363D01*
X0281346Y0091488D01*
X0281447Y0091610D01*
X0281551Y0091729D01*
X0281658Y0091846D01*
X0281768Y0091960D01*
X0281881Y0092071D01*
X0281996Y0092180D01*
X0282114Y0092285D01*
X0282235Y0092387D01*
X0282358Y0092487D01*
X0282484Y0092583D01*
X0282612Y0092676D01*
X0282742Y0092766D01*
X0282875Y0092852D01*
X0283010Y0092936D01*
X0283146Y0093015D01*
X0283285Y0093092D01*
X0283426Y0093164D01*
X0283568Y0093234D01*
X0283712Y0093299D01*
X0283858Y0093361D01*
X0284005Y0093419D01*
X0284154Y0093474D01*
X0284304Y0093525D01*
X0284455Y0093572D01*
X0284607Y0093615D01*
X0284760Y0093654D01*
X0284915Y0093690D01*
X0285070Y0093721D01*
X0285226Y0093749D01*
X0285382Y0093773D01*
X0285539Y0093793D01*
X0285697Y0093809D01*
X0285854Y0093821D01*
X0286013Y0093829D01*
X0286171Y0093833D01*
X0286329Y0093833D01*
X0286487Y0093829D01*
X0286646Y0093821D01*
X0286803Y0093809D01*
X0286961Y0093793D01*
X0287118Y0093773D01*
X0287274Y0093749D01*
X0287430Y0093721D01*
X0287585Y0093690D01*
X0287740Y0093654D01*
X0287893Y0093615D01*
X0288045Y0093572D01*
X0288196Y0093525D01*
X0288346Y0093474D01*
X0288495Y0093419D01*
X0288642Y0093361D01*
X0288788Y0093299D01*
X0288932Y0093234D01*
X0289074Y0093164D01*
X0289215Y0093092D01*
X0289354Y0093015D01*
X0289490Y0092936D01*
X0289625Y0092852D01*
X0289758Y0092766D01*
X0289888Y0092676D01*
X0290016Y0092583D01*
X0290142Y0092487D01*
X0290265Y0092387D01*
X0290386Y0092285D01*
X0290504Y0092180D01*
X0290619Y0092071D01*
X0290732Y0091960D01*
X0290842Y0091846D01*
X0290949Y0091729D01*
X0291053Y0091610D01*
X0291154Y0091488D01*
X0291251Y0091363D01*
X0291346Y0091236D01*
X0291437Y0091107D01*
X0291526Y0090976D01*
X0291610Y0090842D01*
X0291692Y0090706D01*
X0291770Y0090569D01*
X0291844Y0090429D01*
X0291915Y0090287D01*
X0291983Y0090144D01*
X0292047Y0089999D01*
X0292107Y0089853D01*
X0292163Y0089705D01*
X0292216Y0089556D01*
X0292265Y0089405D01*
X0292310Y0089253D01*
X0292351Y0089100D01*
X0292389Y0088947D01*
X0292422Y0088792D01*
X0292452Y0088636D01*
X0292478Y0088480D01*
X0292499Y0088323D01*
X0292517Y0088166D01*
X0292531Y0088008D01*
X0292541Y0087850D01*
X0292547Y0087692D01*
X0292549Y0087534D01*
X0292547Y0087376D01*
X0292541Y0087218D01*
X0292531Y0087060D01*
X0292517Y0086902D01*
X0292499Y0086745D01*
X0292478Y0086588D01*
X0292452Y0086432D01*
X0292422Y0086276D01*
X0292389Y0086121D01*
X0292351Y0085968D01*
X0292310Y0085815D01*
X0292265Y0085663D01*
X0292216Y0085512D01*
X0292163Y0085363D01*
X0292107Y0085215D01*
X0292047Y0085069D01*
X0291983Y0084924D01*
X0291915Y0084781D01*
X0291844Y0084639D01*
X0291770Y0084499D01*
X0291692Y0084362D01*
X0291610Y0084226D01*
X0291526Y0084092D01*
X0291437Y0083961D01*
X0291346Y0083832D01*
X0291251Y0083705D01*
X0291154Y0083580D01*
X0291053Y0083458D01*
X0290949Y0083339D01*
X0290842Y0083222D01*
X0290732Y0083108D01*
X0290619Y0082997D01*
X0290504Y0082888D01*
X0290386Y0082783D01*
X0290265Y0082681D01*
X0290142Y0082581D01*
X0290016Y0082485D01*
X0289888Y0082392D01*
X0289758Y0082302D01*
X0289625Y0082216D01*
X0289490Y0082132D01*
X0289354Y0082053D01*
X0289215Y0081976D01*
X0289074Y0081904D01*
X0288932Y0081834D01*
X0288788Y0081769D01*
X0288642Y0081707D01*
X0288495Y0081649D01*
X0288346Y0081594D01*
X0288196Y0081543D01*
X0288045Y0081496D01*
X0287893Y0081453D01*
X0287740Y0081414D01*
X0287585Y0081378D01*
X0287430Y0081347D01*
X0287274Y0081319D01*
X0287118Y0081295D01*
X0286961Y0081275D01*
X0286803Y0081259D01*
X0286646Y0081247D01*
X0286487Y0081239D01*
X0286329Y0081235D01*
X0286171Y0081235D01*
X0286013Y0081239D01*
X0285854Y0081247D01*
X0285697Y0081259D01*
X0285539Y0081275D01*
X0285382Y0081295D01*
X0285226Y0081319D01*
X0285070Y0081347D01*
X0284915Y0081378D01*
X0284760Y0081414D01*
X0284607Y0081453D01*
X0284455Y0081496D01*
X0284304Y0081543D01*
X0284154Y0081594D01*
X0284005Y0081649D01*
X0283858Y0081707D01*
X0283712Y0081769D01*
X0283568Y0081834D01*
X0283426Y0081904D01*
X0283285Y0081976D01*
X0283146Y0082053D01*
X0283010Y0082132D01*
X0282875Y0082216D01*
X0282742Y0082302D01*
X0282612Y0082392D01*
X0282484Y0082485D01*
X0282358Y0082581D01*
X0282235Y0082681D01*
X0282114Y0082783D01*
X0281996Y0082888D01*
X0281881Y0082997D01*
X0281768Y0083108D01*
X0281658Y0083222D01*
X0281551Y0083339D01*
X0281447Y0083458D01*
X0281346Y0083580D01*
X0281249Y0083705D01*
X0281154Y0083832D01*
X0281063Y0083961D01*
X0280974Y0084092D01*
X0280890Y0084226D01*
X0280808Y0084362D01*
X0280730Y0084499D01*
X0280656Y0084639D01*
X0280585Y0084781D01*
X0280517Y0084924D01*
X0280453Y0085069D01*
X0280393Y0085215D01*
X0280337Y0085363D01*
X0280284Y0085512D01*
X0280235Y0085663D01*
X0280190Y0085815D01*
X0280149Y0085968D01*
X0280111Y0086121D01*
X0280078Y0086276D01*
X0280048Y0086432D01*
X0280022Y0086588D01*
X0280001Y0086745D01*
X0279983Y0086902D01*
X0279969Y0087060D01*
X0279959Y0087218D01*
X0279953Y0087376D01*
X0279951Y0087534D01*
X0399951Y0067534D02*
X0399953Y0067692D01*
X0399959Y0067850D01*
X0399969Y0068008D01*
X0399983Y0068166D01*
X0400001Y0068323D01*
X0400022Y0068480D01*
X0400048Y0068636D01*
X0400078Y0068792D01*
X0400111Y0068947D01*
X0400149Y0069100D01*
X0400190Y0069253D01*
X0400235Y0069405D01*
X0400284Y0069556D01*
X0400337Y0069705D01*
X0400393Y0069853D01*
X0400453Y0069999D01*
X0400517Y0070144D01*
X0400585Y0070287D01*
X0400656Y0070429D01*
X0400730Y0070569D01*
X0400808Y0070706D01*
X0400890Y0070842D01*
X0400974Y0070976D01*
X0401063Y0071107D01*
X0401154Y0071236D01*
X0401249Y0071363D01*
X0401346Y0071488D01*
X0401447Y0071610D01*
X0401551Y0071729D01*
X0401658Y0071846D01*
X0401768Y0071960D01*
X0401881Y0072071D01*
X0401996Y0072180D01*
X0402114Y0072285D01*
X0402235Y0072387D01*
X0402358Y0072487D01*
X0402484Y0072583D01*
X0402612Y0072676D01*
X0402742Y0072766D01*
X0402875Y0072852D01*
X0403010Y0072936D01*
X0403146Y0073015D01*
X0403285Y0073092D01*
X0403426Y0073164D01*
X0403568Y0073234D01*
X0403712Y0073299D01*
X0403858Y0073361D01*
X0404005Y0073419D01*
X0404154Y0073474D01*
X0404304Y0073525D01*
X0404455Y0073572D01*
X0404607Y0073615D01*
X0404760Y0073654D01*
X0404915Y0073690D01*
X0405070Y0073721D01*
X0405226Y0073749D01*
X0405382Y0073773D01*
X0405539Y0073793D01*
X0405697Y0073809D01*
X0405854Y0073821D01*
X0406013Y0073829D01*
X0406171Y0073833D01*
X0406329Y0073833D01*
X0406487Y0073829D01*
X0406646Y0073821D01*
X0406803Y0073809D01*
X0406961Y0073793D01*
X0407118Y0073773D01*
X0407274Y0073749D01*
X0407430Y0073721D01*
X0407585Y0073690D01*
X0407740Y0073654D01*
X0407893Y0073615D01*
X0408045Y0073572D01*
X0408196Y0073525D01*
X0408346Y0073474D01*
X0408495Y0073419D01*
X0408642Y0073361D01*
X0408788Y0073299D01*
X0408932Y0073234D01*
X0409074Y0073164D01*
X0409215Y0073092D01*
X0409354Y0073015D01*
X0409490Y0072936D01*
X0409625Y0072852D01*
X0409758Y0072766D01*
X0409888Y0072676D01*
X0410016Y0072583D01*
X0410142Y0072487D01*
X0410265Y0072387D01*
X0410386Y0072285D01*
X0410504Y0072180D01*
X0410619Y0072071D01*
X0410732Y0071960D01*
X0410842Y0071846D01*
X0410949Y0071729D01*
X0411053Y0071610D01*
X0411154Y0071488D01*
X0411251Y0071363D01*
X0411346Y0071236D01*
X0411437Y0071107D01*
X0411526Y0070976D01*
X0411610Y0070842D01*
X0411692Y0070706D01*
X0411770Y0070569D01*
X0411844Y0070429D01*
X0411915Y0070287D01*
X0411983Y0070144D01*
X0412047Y0069999D01*
X0412107Y0069853D01*
X0412163Y0069705D01*
X0412216Y0069556D01*
X0412265Y0069405D01*
X0412310Y0069253D01*
X0412351Y0069100D01*
X0412389Y0068947D01*
X0412422Y0068792D01*
X0412452Y0068636D01*
X0412478Y0068480D01*
X0412499Y0068323D01*
X0412517Y0068166D01*
X0412531Y0068008D01*
X0412541Y0067850D01*
X0412547Y0067692D01*
X0412549Y0067534D01*
X0412547Y0067376D01*
X0412541Y0067218D01*
X0412531Y0067060D01*
X0412517Y0066902D01*
X0412499Y0066745D01*
X0412478Y0066588D01*
X0412452Y0066432D01*
X0412422Y0066276D01*
X0412389Y0066121D01*
X0412351Y0065968D01*
X0412310Y0065815D01*
X0412265Y0065663D01*
X0412216Y0065512D01*
X0412163Y0065363D01*
X0412107Y0065215D01*
X0412047Y0065069D01*
X0411983Y0064924D01*
X0411915Y0064781D01*
X0411844Y0064639D01*
X0411770Y0064499D01*
X0411692Y0064362D01*
X0411610Y0064226D01*
X0411526Y0064092D01*
X0411437Y0063961D01*
X0411346Y0063832D01*
X0411251Y0063705D01*
X0411154Y0063580D01*
X0411053Y0063458D01*
X0410949Y0063339D01*
X0410842Y0063222D01*
X0410732Y0063108D01*
X0410619Y0062997D01*
X0410504Y0062888D01*
X0410386Y0062783D01*
X0410265Y0062681D01*
X0410142Y0062581D01*
X0410016Y0062485D01*
X0409888Y0062392D01*
X0409758Y0062302D01*
X0409625Y0062216D01*
X0409490Y0062132D01*
X0409354Y0062053D01*
X0409215Y0061976D01*
X0409074Y0061904D01*
X0408932Y0061834D01*
X0408788Y0061769D01*
X0408642Y0061707D01*
X0408495Y0061649D01*
X0408346Y0061594D01*
X0408196Y0061543D01*
X0408045Y0061496D01*
X0407893Y0061453D01*
X0407740Y0061414D01*
X0407585Y0061378D01*
X0407430Y0061347D01*
X0407274Y0061319D01*
X0407118Y0061295D01*
X0406961Y0061275D01*
X0406803Y0061259D01*
X0406646Y0061247D01*
X0406487Y0061239D01*
X0406329Y0061235D01*
X0406171Y0061235D01*
X0406013Y0061239D01*
X0405854Y0061247D01*
X0405697Y0061259D01*
X0405539Y0061275D01*
X0405382Y0061295D01*
X0405226Y0061319D01*
X0405070Y0061347D01*
X0404915Y0061378D01*
X0404760Y0061414D01*
X0404607Y0061453D01*
X0404455Y0061496D01*
X0404304Y0061543D01*
X0404154Y0061594D01*
X0404005Y0061649D01*
X0403858Y0061707D01*
X0403712Y0061769D01*
X0403568Y0061834D01*
X0403426Y0061904D01*
X0403285Y0061976D01*
X0403146Y0062053D01*
X0403010Y0062132D01*
X0402875Y0062216D01*
X0402742Y0062302D01*
X0402612Y0062392D01*
X0402484Y0062485D01*
X0402358Y0062581D01*
X0402235Y0062681D01*
X0402114Y0062783D01*
X0401996Y0062888D01*
X0401881Y0062997D01*
X0401768Y0063108D01*
X0401658Y0063222D01*
X0401551Y0063339D01*
X0401447Y0063458D01*
X0401346Y0063580D01*
X0401249Y0063705D01*
X0401154Y0063832D01*
X0401063Y0063961D01*
X0400974Y0064092D01*
X0400890Y0064226D01*
X0400808Y0064362D01*
X0400730Y0064499D01*
X0400656Y0064639D01*
X0400585Y0064781D01*
X0400517Y0064924D01*
X0400453Y0065069D01*
X0400393Y0065215D01*
X0400337Y0065363D01*
X0400284Y0065512D01*
X0400235Y0065663D01*
X0400190Y0065815D01*
X0400149Y0065968D01*
X0400111Y0066121D01*
X0400078Y0066276D01*
X0400048Y0066432D01*
X0400022Y0066588D01*
X0400001Y0066745D01*
X0399983Y0066902D01*
X0399969Y0067060D01*
X0399959Y0067218D01*
X0399953Y0067376D01*
X0399951Y0067534D01*
X0279951Y0197534D02*
X0279953Y0197692D01*
X0279959Y0197850D01*
X0279969Y0198008D01*
X0279983Y0198166D01*
X0280001Y0198323D01*
X0280022Y0198480D01*
X0280048Y0198636D01*
X0280078Y0198792D01*
X0280111Y0198947D01*
X0280149Y0199100D01*
X0280190Y0199253D01*
X0280235Y0199405D01*
X0280284Y0199556D01*
X0280337Y0199705D01*
X0280393Y0199853D01*
X0280453Y0199999D01*
X0280517Y0200144D01*
X0280585Y0200287D01*
X0280656Y0200429D01*
X0280730Y0200569D01*
X0280808Y0200706D01*
X0280890Y0200842D01*
X0280974Y0200976D01*
X0281063Y0201107D01*
X0281154Y0201236D01*
X0281249Y0201363D01*
X0281346Y0201488D01*
X0281447Y0201610D01*
X0281551Y0201729D01*
X0281658Y0201846D01*
X0281768Y0201960D01*
X0281881Y0202071D01*
X0281996Y0202180D01*
X0282114Y0202285D01*
X0282235Y0202387D01*
X0282358Y0202487D01*
X0282484Y0202583D01*
X0282612Y0202676D01*
X0282742Y0202766D01*
X0282875Y0202852D01*
X0283010Y0202936D01*
X0283146Y0203015D01*
X0283285Y0203092D01*
X0283426Y0203164D01*
X0283568Y0203234D01*
X0283712Y0203299D01*
X0283858Y0203361D01*
X0284005Y0203419D01*
X0284154Y0203474D01*
X0284304Y0203525D01*
X0284455Y0203572D01*
X0284607Y0203615D01*
X0284760Y0203654D01*
X0284915Y0203690D01*
X0285070Y0203721D01*
X0285226Y0203749D01*
X0285382Y0203773D01*
X0285539Y0203793D01*
X0285697Y0203809D01*
X0285854Y0203821D01*
X0286013Y0203829D01*
X0286171Y0203833D01*
X0286329Y0203833D01*
X0286487Y0203829D01*
X0286646Y0203821D01*
X0286803Y0203809D01*
X0286961Y0203793D01*
X0287118Y0203773D01*
X0287274Y0203749D01*
X0287430Y0203721D01*
X0287585Y0203690D01*
X0287740Y0203654D01*
X0287893Y0203615D01*
X0288045Y0203572D01*
X0288196Y0203525D01*
X0288346Y0203474D01*
X0288495Y0203419D01*
X0288642Y0203361D01*
X0288788Y0203299D01*
X0288932Y0203234D01*
X0289074Y0203164D01*
X0289215Y0203092D01*
X0289354Y0203015D01*
X0289490Y0202936D01*
X0289625Y0202852D01*
X0289758Y0202766D01*
X0289888Y0202676D01*
X0290016Y0202583D01*
X0290142Y0202487D01*
X0290265Y0202387D01*
X0290386Y0202285D01*
X0290504Y0202180D01*
X0290619Y0202071D01*
X0290732Y0201960D01*
X0290842Y0201846D01*
X0290949Y0201729D01*
X0291053Y0201610D01*
X0291154Y0201488D01*
X0291251Y0201363D01*
X0291346Y0201236D01*
X0291437Y0201107D01*
X0291526Y0200976D01*
X0291610Y0200842D01*
X0291692Y0200706D01*
X0291770Y0200569D01*
X0291844Y0200429D01*
X0291915Y0200287D01*
X0291983Y0200144D01*
X0292047Y0199999D01*
X0292107Y0199853D01*
X0292163Y0199705D01*
X0292216Y0199556D01*
X0292265Y0199405D01*
X0292310Y0199253D01*
X0292351Y0199100D01*
X0292389Y0198947D01*
X0292422Y0198792D01*
X0292452Y0198636D01*
X0292478Y0198480D01*
X0292499Y0198323D01*
X0292517Y0198166D01*
X0292531Y0198008D01*
X0292541Y0197850D01*
X0292547Y0197692D01*
X0292549Y0197534D01*
X0292547Y0197376D01*
X0292541Y0197218D01*
X0292531Y0197060D01*
X0292517Y0196902D01*
X0292499Y0196745D01*
X0292478Y0196588D01*
X0292452Y0196432D01*
X0292422Y0196276D01*
X0292389Y0196121D01*
X0292351Y0195968D01*
X0292310Y0195815D01*
X0292265Y0195663D01*
X0292216Y0195512D01*
X0292163Y0195363D01*
X0292107Y0195215D01*
X0292047Y0195069D01*
X0291983Y0194924D01*
X0291915Y0194781D01*
X0291844Y0194639D01*
X0291770Y0194499D01*
X0291692Y0194362D01*
X0291610Y0194226D01*
X0291526Y0194092D01*
X0291437Y0193961D01*
X0291346Y0193832D01*
X0291251Y0193705D01*
X0291154Y0193580D01*
X0291053Y0193458D01*
X0290949Y0193339D01*
X0290842Y0193222D01*
X0290732Y0193108D01*
X0290619Y0192997D01*
X0290504Y0192888D01*
X0290386Y0192783D01*
X0290265Y0192681D01*
X0290142Y0192581D01*
X0290016Y0192485D01*
X0289888Y0192392D01*
X0289758Y0192302D01*
X0289625Y0192216D01*
X0289490Y0192132D01*
X0289354Y0192053D01*
X0289215Y0191976D01*
X0289074Y0191904D01*
X0288932Y0191834D01*
X0288788Y0191769D01*
X0288642Y0191707D01*
X0288495Y0191649D01*
X0288346Y0191594D01*
X0288196Y0191543D01*
X0288045Y0191496D01*
X0287893Y0191453D01*
X0287740Y0191414D01*
X0287585Y0191378D01*
X0287430Y0191347D01*
X0287274Y0191319D01*
X0287118Y0191295D01*
X0286961Y0191275D01*
X0286803Y0191259D01*
X0286646Y0191247D01*
X0286487Y0191239D01*
X0286329Y0191235D01*
X0286171Y0191235D01*
X0286013Y0191239D01*
X0285854Y0191247D01*
X0285697Y0191259D01*
X0285539Y0191275D01*
X0285382Y0191295D01*
X0285226Y0191319D01*
X0285070Y0191347D01*
X0284915Y0191378D01*
X0284760Y0191414D01*
X0284607Y0191453D01*
X0284455Y0191496D01*
X0284304Y0191543D01*
X0284154Y0191594D01*
X0284005Y0191649D01*
X0283858Y0191707D01*
X0283712Y0191769D01*
X0283568Y0191834D01*
X0283426Y0191904D01*
X0283285Y0191976D01*
X0283146Y0192053D01*
X0283010Y0192132D01*
X0282875Y0192216D01*
X0282742Y0192302D01*
X0282612Y0192392D01*
X0282484Y0192485D01*
X0282358Y0192581D01*
X0282235Y0192681D01*
X0282114Y0192783D01*
X0281996Y0192888D01*
X0281881Y0192997D01*
X0281768Y0193108D01*
X0281658Y0193222D01*
X0281551Y0193339D01*
X0281447Y0193458D01*
X0281346Y0193580D01*
X0281249Y0193705D01*
X0281154Y0193832D01*
X0281063Y0193961D01*
X0280974Y0194092D01*
X0280890Y0194226D01*
X0280808Y0194362D01*
X0280730Y0194499D01*
X0280656Y0194639D01*
X0280585Y0194781D01*
X0280517Y0194924D01*
X0280453Y0195069D01*
X0280393Y0195215D01*
X0280337Y0195363D01*
X0280284Y0195512D01*
X0280235Y0195663D01*
X0280190Y0195815D01*
X0280149Y0195968D01*
X0280111Y0196121D01*
X0280078Y0196276D01*
X0280048Y0196432D01*
X0280022Y0196588D01*
X0280001Y0196745D01*
X0279983Y0196902D01*
X0279969Y0197060D01*
X0279959Y0197218D01*
X0279953Y0197376D01*
X0279951Y0197534D01*
X0374951Y0257534D02*
X0374953Y0257692D01*
X0374959Y0257850D01*
X0374969Y0258008D01*
X0374983Y0258166D01*
X0375001Y0258323D01*
X0375022Y0258480D01*
X0375048Y0258636D01*
X0375078Y0258792D01*
X0375111Y0258947D01*
X0375149Y0259100D01*
X0375190Y0259253D01*
X0375235Y0259405D01*
X0375284Y0259556D01*
X0375337Y0259705D01*
X0375393Y0259853D01*
X0375453Y0259999D01*
X0375517Y0260144D01*
X0375585Y0260287D01*
X0375656Y0260429D01*
X0375730Y0260569D01*
X0375808Y0260706D01*
X0375890Y0260842D01*
X0375974Y0260976D01*
X0376063Y0261107D01*
X0376154Y0261236D01*
X0376249Y0261363D01*
X0376346Y0261488D01*
X0376447Y0261610D01*
X0376551Y0261729D01*
X0376658Y0261846D01*
X0376768Y0261960D01*
X0376881Y0262071D01*
X0376996Y0262180D01*
X0377114Y0262285D01*
X0377235Y0262387D01*
X0377358Y0262487D01*
X0377484Y0262583D01*
X0377612Y0262676D01*
X0377742Y0262766D01*
X0377875Y0262852D01*
X0378010Y0262936D01*
X0378146Y0263015D01*
X0378285Y0263092D01*
X0378426Y0263164D01*
X0378568Y0263234D01*
X0378712Y0263299D01*
X0378858Y0263361D01*
X0379005Y0263419D01*
X0379154Y0263474D01*
X0379304Y0263525D01*
X0379455Y0263572D01*
X0379607Y0263615D01*
X0379760Y0263654D01*
X0379915Y0263690D01*
X0380070Y0263721D01*
X0380226Y0263749D01*
X0380382Y0263773D01*
X0380539Y0263793D01*
X0380697Y0263809D01*
X0380854Y0263821D01*
X0381013Y0263829D01*
X0381171Y0263833D01*
X0381329Y0263833D01*
X0381487Y0263829D01*
X0381646Y0263821D01*
X0381803Y0263809D01*
X0381961Y0263793D01*
X0382118Y0263773D01*
X0382274Y0263749D01*
X0382430Y0263721D01*
X0382585Y0263690D01*
X0382740Y0263654D01*
X0382893Y0263615D01*
X0383045Y0263572D01*
X0383196Y0263525D01*
X0383346Y0263474D01*
X0383495Y0263419D01*
X0383642Y0263361D01*
X0383788Y0263299D01*
X0383932Y0263234D01*
X0384074Y0263164D01*
X0384215Y0263092D01*
X0384354Y0263015D01*
X0384490Y0262936D01*
X0384625Y0262852D01*
X0384758Y0262766D01*
X0384888Y0262676D01*
X0385016Y0262583D01*
X0385142Y0262487D01*
X0385265Y0262387D01*
X0385386Y0262285D01*
X0385504Y0262180D01*
X0385619Y0262071D01*
X0385732Y0261960D01*
X0385842Y0261846D01*
X0385949Y0261729D01*
X0386053Y0261610D01*
X0386154Y0261488D01*
X0386251Y0261363D01*
X0386346Y0261236D01*
X0386437Y0261107D01*
X0386526Y0260976D01*
X0386610Y0260842D01*
X0386692Y0260706D01*
X0386770Y0260569D01*
X0386844Y0260429D01*
X0386915Y0260287D01*
X0386983Y0260144D01*
X0387047Y0259999D01*
X0387107Y0259853D01*
X0387163Y0259705D01*
X0387216Y0259556D01*
X0387265Y0259405D01*
X0387310Y0259253D01*
X0387351Y0259100D01*
X0387389Y0258947D01*
X0387422Y0258792D01*
X0387452Y0258636D01*
X0387478Y0258480D01*
X0387499Y0258323D01*
X0387517Y0258166D01*
X0387531Y0258008D01*
X0387541Y0257850D01*
X0387547Y0257692D01*
X0387549Y0257534D01*
X0387547Y0257376D01*
X0387541Y0257218D01*
X0387531Y0257060D01*
X0387517Y0256902D01*
X0387499Y0256745D01*
X0387478Y0256588D01*
X0387452Y0256432D01*
X0387422Y0256276D01*
X0387389Y0256121D01*
X0387351Y0255968D01*
X0387310Y0255815D01*
X0387265Y0255663D01*
X0387216Y0255512D01*
X0387163Y0255363D01*
X0387107Y0255215D01*
X0387047Y0255069D01*
X0386983Y0254924D01*
X0386915Y0254781D01*
X0386844Y0254639D01*
X0386770Y0254499D01*
X0386692Y0254362D01*
X0386610Y0254226D01*
X0386526Y0254092D01*
X0386437Y0253961D01*
X0386346Y0253832D01*
X0386251Y0253705D01*
X0386154Y0253580D01*
X0386053Y0253458D01*
X0385949Y0253339D01*
X0385842Y0253222D01*
X0385732Y0253108D01*
X0385619Y0252997D01*
X0385504Y0252888D01*
X0385386Y0252783D01*
X0385265Y0252681D01*
X0385142Y0252581D01*
X0385016Y0252485D01*
X0384888Y0252392D01*
X0384758Y0252302D01*
X0384625Y0252216D01*
X0384490Y0252132D01*
X0384354Y0252053D01*
X0384215Y0251976D01*
X0384074Y0251904D01*
X0383932Y0251834D01*
X0383788Y0251769D01*
X0383642Y0251707D01*
X0383495Y0251649D01*
X0383346Y0251594D01*
X0383196Y0251543D01*
X0383045Y0251496D01*
X0382893Y0251453D01*
X0382740Y0251414D01*
X0382585Y0251378D01*
X0382430Y0251347D01*
X0382274Y0251319D01*
X0382118Y0251295D01*
X0381961Y0251275D01*
X0381803Y0251259D01*
X0381646Y0251247D01*
X0381487Y0251239D01*
X0381329Y0251235D01*
X0381171Y0251235D01*
X0381013Y0251239D01*
X0380854Y0251247D01*
X0380697Y0251259D01*
X0380539Y0251275D01*
X0380382Y0251295D01*
X0380226Y0251319D01*
X0380070Y0251347D01*
X0379915Y0251378D01*
X0379760Y0251414D01*
X0379607Y0251453D01*
X0379455Y0251496D01*
X0379304Y0251543D01*
X0379154Y0251594D01*
X0379005Y0251649D01*
X0378858Y0251707D01*
X0378712Y0251769D01*
X0378568Y0251834D01*
X0378426Y0251904D01*
X0378285Y0251976D01*
X0378146Y0252053D01*
X0378010Y0252132D01*
X0377875Y0252216D01*
X0377742Y0252302D01*
X0377612Y0252392D01*
X0377484Y0252485D01*
X0377358Y0252581D01*
X0377235Y0252681D01*
X0377114Y0252783D01*
X0376996Y0252888D01*
X0376881Y0252997D01*
X0376768Y0253108D01*
X0376658Y0253222D01*
X0376551Y0253339D01*
X0376447Y0253458D01*
X0376346Y0253580D01*
X0376249Y0253705D01*
X0376154Y0253832D01*
X0376063Y0253961D01*
X0375974Y0254092D01*
X0375890Y0254226D01*
X0375808Y0254362D01*
X0375730Y0254499D01*
X0375656Y0254639D01*
X0375585Y0254781D01*
X0375517Y0254924D01*
X0375453Y0255069D01*
X0375393Y0255215D01*
X0375337Y0255363D01*
X0375284Y0255512D01*
X0375235Y0255663D01*
X0375190Y0255815D01*
X0375149Y0255968D01*
X0375111Y0256121D01*
X0375078Y0256276D01*
X0375048Y0256432D01*
X0375022Y0256588D01*
X0375001Y0256745D01*
X0374983Y0256902D01*
X0374969Y0257060D01*
X0374959Y0257218D01*
X0374953Y0257376D01*
X0374951Y0257534D01*
X0147588Y0306904D02*
X0147590Y0307012D01*
X0147596Y0307121D01*
X0147606Y0307229D01*
X0147620Y0307336D01*
X0147638Y0307443D01*
X0147659Y0307550D01*
X0147685Y0307655D01*
X0147715Y0307760D01*
X0147748Y0307863D01*
X0147785Y0307965D01*
X0147826Y0308065D01*
X0147870Y0308164D01*
X0147919Y0308262D01*
X0147970Y0308357D01*
X0148025Y0308450D01*
X0148084Y0308542D01*
X0148146Y0308631D01*
X0148211Y0308718D01*
X0148279Y0308802D01*
X0148350Y0308884D01*
X0148424Y0308963D01*
X0148501Y0309039D01*
X0148581Y0309113D01*
X0148664Y0309183D01*
X0148749Y0309251D01*
X0148836Y0309315D01*
X0148926Y0309376D01*
X0149018Y0309434D01*
X0149112Y0309488D01*
X0149208Y0309539D01*
X0149305Y0309586D01*
X0149405Y0309630D01*
X0149506Y0309670D01*
X0149608Y0309706D01*
X0149711Y0309738D01*
X0149816Y0309767D01*
X0149922Y0309791D01*
X0150028Y0309812D01*
X0150135Y0309829D01*
X0150243Y0309842D01*
X0150351Y0309851D01*
X0150460Y0309856D01*
X0150568Y0309857D01*
X0150677Y0309854D01*
X0150785Y0309847D01*
X0150893Y0309836D01*
X0151000Y0309821D01*
X0151107Y0309802D01*
X0151213Y0309779D01*
X0151318Y0309753D01*
X0151423Y0309722D01*
X0151525Y0309688D01*
X0151627Y0309650D01*
X0151727Y0309608D01*
X0151826Y0309563D01*
X0151923Y0309514D01*
X0152017Y0309461D01*
X0152110Y0309405D01*
X0152201Y0309346D01*
X0152290Y0309283D01*
X0152376Y0309218D01*
X0152460Y0309149D01*
X0152541Y0309077D01*
X0152619Y0309002D01*
X0152695Y0308924D01*
X0152768Y0308843D01*
X0152838Y0308760D01*
X0152904Y0308675D01*
X0152968Y0308587D01*
X0153028Y0308496D01*
X0153085Y0308404D01*
X0153138Y0308309D01*
X0153188Y0308213D01*
X0153234Y0308115D01*
X0153277Y0308015D01*
X0153316Y0307914D01*
X0153351Y0307811D01*
X0153383Y0307708D01*
X0153410Y0307603D01*
X0153434Y0307497D01*
X0153454Y0307390D01*
X0153470Y0307283D01*
X0153482Y0307175D01*
X0153490Y0307067D01*
X0153494Y0306958D01*
X0153494Y0306850D01*
X0153490Y0306741D01*
X0153482Y0306633D01*
X0153470Y0306525D01*
X0153454Y0306418D01*
X0153434Y0306311D01*
X0153410Y0306205D01*
X0153383Y0306100D01*
X0153351Y0305997D01*
X0153316Y0305894D01*
X0153277Y0305793D01*
X0153234Y0305693D01*
X0153188Y0305595D01*
X0153138Y0305499D01*
X0153085Y0305404D01*
X0153028Y0305312D01*
X0152968Y0305221D01*
X0152904Y0305133D01*
X0152838Y0305048D01*
X0152768Y0304965D01*
X0152695Y0304884D01*
X0152619Y0304806D01*
X0152541Y0304731D01*
X0152460Y0304659D01*
X0152376Y0304590D01*
X0152290Y0304525D01*
X0152201Y0304462D01*
X0152110Y0304403D01*
X0152018Y0304347D01*
X0151923Y0304294D01*
X0151826Y0304245D01*
X0151727Y0304200D01*
X0151627Y0304158D01*
X0151525Y0304120D01*
X0151423Y0304086D01*
X0151318Y0304055D01*
X0151213Y0304029D01*
X0151107Y0304006D01*
X0151000Y0303987D01*
X0150893Y0303972D01*
X0150785Y0303961D01*
X0150677Y0303954D01*
X0150568Y0303951D01*
X0150460Y0303952D01*
X0150351Y0303957D01*
X0150243Y0303966D01*
X0150135Y0303979D01*
X0150028Y0303996D01*
X0149922Y0304017D01*
X0149816Y0304041D01*
X0149711Y0304070D01*
X0149608Y0304102D01*
X0149506Y0304138D01*
X0149405Y0304178D01*
X0149305Y0304222D01*
X0149208Y0304269D01*
X0149112Y0304320D01*
X0149018Y0304374D01*
X0148926Y0304432D01*
X0148836Y0304493D01*
X0148749Y0304557D01*
X0148664Y0304625D01*
X0148581Y0304695D01*
X0148501Y0304769D01*
X0148424Y0304845D01*
X0148350Y0304924D01*
X0148279Y0305006D01*
X0148211Y0305090D01*
X0148146Y0305177D01*
X0148084Y0305266D01*
X0148025Y0305358D01*
X0147970Y0305451D01*
X0147919Y0305546D01*
X0147870Y0305644D01*
X0147826Y0305743D01*
X0147785Y0305843D01*
X0147748Y0305945D01*
X0147715Y0306048D01*
X0147685Y0306153D01*
X0147659Y0306258D01*
X0147638Y0306365D01*
X0147620Y0306472D01*
X0147606Y0306579D01*
X0147596Y0306687D01*
X0147590Y0306796D01*
X0147588Y0306904D01*
X0127903Y0287219D02*
X0127905Y0287327D01*
X0127911Y0287436D01*
X0127921Y0287544D01*
X0127935Y0287651D01*
X0127953Y0287758D01*
X0127974Y0287865D01*
X0128000Y0287970D01*
X0128030Y0288075D01*
X0128063Y0288178D01*
X0128100Y0288280D01*
X0128141Y0288380D01*
X0128185Y0288479D01*
X0128234Y0288577D01*
X0128285Y0288672D01*
X0128340Y0288765D01*
X0128399Y0288857D01*
X0128461Y0288946D01*
X0128526Y0289033D01*
X0128594Y0289117D01*
X0128665Y0289199D01*
X0128739Y0289278D01*
X0128816Y0289354D01*
X0128896Y0289428D01*
X0128979Y0289498D01*
X0129064Y0289566D01*
X0129151Y0289630D01*
X0129241Y0289691D01*
X0129333Y0289749D01*
X0129427Y0289803D01*
X0129523Y0289854D01*
X0129620Y0289901D01*
X0129720Y0289945D01*
X0129821Y0289985D01*
X0129923Y0290021D01*
X0130026Y0290053D01*
X0130131Y0290082D01*
X0130237Y0290106D01*
X0130343Y0290127D01*
X0130450Y0290144D01*
X0130558Y0290157D01*
X0130666Y0290166D01*
X0130775Y0290171D01*
X0130883Y0290172D01*
X0130992Y0290169D01*
X0131100Y0290162D01*
X0131208Y0290151D01*
X0131315Y0290136D01*
X0131422Y0290117D01*
X0131528Y0290094D01*
X0131633Y0290068D01*
X0131738Y0290037D01*
X0131840Y0290003D01*
X0131942Y0289965D01*
X0132042Y0289923D01*
X0132141Y0289878D01*
X0132238Y0289829D01*
X0132332Y0289776D01*
X0132425Y0289720D01*
X0132516Y0289661D01*
X0132605Y0289598D01*
X0132691Y0289533D01*
X0132775Y0289464D01*
X0132856Y0289392D01*
X0132934Y0289317D01*
X0133010Y0289239D01*
X0133083Y0289158D01*
X0133153Y0289075D01*
X0133219Y0288990D01*
X0133283Y0288902D01*
X0133343Y0288811D01*
X0133400Y0288719D01*
X0133453Y0288624D01*
X0133503Y0288528D01*
X0133549Y0288430D01*
X0133592Y0288330D01*
X0133631Y0288229D01*
X0133666Y0288126D01*
X0133698Y0288023D01*
X0133725Y0287918D01*
X0133749Y0287812D01*
X0133769Y0287705D01*
X0133785Y0287598D01*
X0133797Y0287490D01*
X0133805Y0287382D01*
X0133809Y0287273D01*
X0133809Y0287165D01*
X0133805Y0287056D01*
X0133797Y0286948D01*
X0133785Y0286840D01*
X0133769Y0286733D01*
X0133749Y0286626D01*
X0133725Y0286520D01*
X0133698Y0286415D01*
X0133666Y0286312D01*
X0133631Y0286209D01*
X0133592Y0286108D01*
X0133549Y0286008D01*
X0133503Y0285910D01*
X0133453Y0285814D01*
X0133400Y0285719D01*
X0133343Y0285627D01*
X0133283Y0285536D01*
X0133219Y0285448D01*
X0133153Y0285363D01*
X0133083Y0285280D01*
X0133010Y0285199D01*
X0132934Y0285121D01*
X0132856Y0285046D01*
X0132775Y0284974D01*
X0132691Y0284905D01*
X0132605Y0284840D01*
X0132516Y0284777D01*
X0132425Y0284718D01*
X0132333Y0284662D01*
X0132238Y0284609D01*
X0132141Y0284560D01*
X0132042Y0284515D01*
X0131942Y0284473D01*
X0131840Y0284435D01*
X0131738Y0284401D01*
X0131633Y0284370D01*
X0131528Y0284344D01*
X0131422Y0284321D01*
X0131315Y0284302D01*
X0131208Y0284287D01*
X0131100Y0284276D01*
X0130992Y0284269D01*
X0130883Y0284266D01*
X0130775Y0284267D01*
X0130666Y0284272D01*
X0130558Y0284281D01*
X0130450Y0284294D01*
X0130343Y0284311D01*
X0130237Y0284332D01*
X0130131Y0284356D01*
X0130026Y0284385D01*
X0129923Y0284417D01*
X0129821Y0284453D01*
X0129720Y0284493D01*
X0129620Y0284537D01*
X0129523Y0284584D01*
X0129427Y0284635D01*
X0129333Y0284689D01*
X0129241Y0284747D01*
X0129151Y0284808D01*
X0129064Y0284872D01*
X0128979Y0284940D01*
X0128896Y0285010D01*
X0128816Y0285084D01*
X0128739Y0285160D01*
X0128665Y0285239D01*
X0128594Y0285321D01*
X0128526Y0285405D01*
X0128461Y0285492D01*
X0128399Y0285581D01*
X0128340Y0285673D01*
X0128285Y0285766D01*
X0128234Y0285861D01*
X0128185Y0285959D01*
X0128141Y0286058D01*
X0128100Y0286158D01*
X0128063Y0286260D01*
X0128030Y0286363D01*
X0128000Y0286468D01*
X0127974Y0286573D01*
X0127953Y0286680D01*
X0127935Y0286787D01*
X0127921Y0286894D01*
X0127911Y0287002D01*
X0127905Y0287111D01*
X0127903Y0287219D01*
X0108218Y0306904D02*
X0108220Y0307012D01*
X0108226Y0307121D01*
X0108236Y0307229D01*
X0108250Y0307336D01*
X0108268Y0307443D01*
X0108289Y0307550D01*
X0108315Y0307655D01*
X0108345Y0307760D01*
X0108378Y0307863D01*
X0108415Y0307965D01*
X0108456Y0308065D01*
X0108500Y0308164D01*
X0108549Y0308262D01*
X0108600Y0308357D01*
X0108655Y0308450D01*
X0108714Y0308542D01*
X0108776Y0308631D01*
X0108841Y0308718D01*
X0108909Y0308802D01*
X0108980Y0308884D01*
X0109054Y0308963D01*
X0109131Y0309039D01*
X0109211Y0309113D01*
X0109294Y0309183D01*
X0109379Y0309251D01*
X0109466Y0309315D01*
X0109556Y0309376D01*
X0109648Y0309434D01*
X0109742Y0309488D01*
X0109838Y0309539D01*
X0109935Y0309586D01*
X0110035Y0309630D01*
X0110136Y0309670D01*
X0110238Y0309706D01*
X0110341Y0309738D01*
X0110446Y0309767D01*
X0110552Y0309791D01*
X0110658Y0309812D01*
X0110765Y0309829D01*
X0110873Y0309842D01*
X0110981Y0309851D01*
X0111090Y0309856D01*
X0111198Y0309857D01*
X0111307Y0309854D01*
X0111415Y0309847D01*
X0111523Y0309836D01*
X0111630Y0309821D01*
X0111737Y0309802D01*
X0111843Y0309779D01*
X0111948Y0309753D01*
X0112053Y0309722D01*
X0112155Y0309688D01*
X0112257Y0309650D01*
X0112357Y0309608D01*
X0112456Y0309563D01*
X0112553Y0309514D01*
X0112647Y0309461D01*
X0112740Y0309405D01*
X0112831Y0309346D01*
X0112920Y0309283D01*
X0113006Y0309218D01*
X0113090Y0309149D01*
X0113171Y0309077D01*
X0113249Y0309002D01*
X0113325Y0308924D01*
X0113398Y0308843D01*
X0113468Y0308760D01*
X0113534Y0308675D01*
X0113598Y0308587D01*
X0113658Y0308496D01*
X0113715Y0308404D01*
X0113768Y0308309D01*
X0113818Y0308213D01*
X0113864Y0308115D01*
X0113907Y0308015D01*
X0113946Y0307914D01*
X0113981Y0307811D01*
X0114013Y0307708D01*
X0114040Y0307603D01*
X0114064Y0307497D01*
X0114084Y0307390D01*
X0114100Y0307283D01*
X0114112Y0307175D01*
X0114120Y0307067D01*
X0114124Y0306958D01*
X0114124Y0306850D01*
X0114120Y0306741D01*
X0114112Y0306633D01*
X0114100Y0306525D01*
X0114084Y0306418D01*
X0114064Y0306311D01*
X0114040Y0306205D01*
X0114013Y0306100D01*
X0113981Y0305997D01*
X0113946Y0305894D01*
X0113907Y0305793D01*
X0113864Y0305693D01*
X0113818Y0305595D01*
X0113768Y0305499D01*
X0113715Y0305404D01*
X0113658Y0305312D01*
X0113598Y0305221D01*
X0113534Y0305133D01*
X0113468Y0305048D01*
X0113398Y0304965D01*
X0113325Y0304884D01*
X0113249Y0304806D01*
X0113171Y0304731D01*
X0113090Y0304659D01*
X0113006Y0304590D01*
X0112920Y0304525D01*
X0112831Y0304462D01*
X0112740Y0304403D01*
X0112648Y0304347D01*
X0112553Y0304294D01*
X0112456Y0304245D01*
X0112357Y0304200D01*
X0112257Y0304158D01*
X0112155Y0304120D01*
X0112053Y0304086D01*
X0111948Y0304055D01*
X0111843Y0304029D01*
X0111737Y0304006D01*
X0111630Y0303987D01*
X0111523Y0303972D01*
X0111415Y0303961D01*
X0111307Y0303954D01*
X0111198Y0303951D01*
X0111090Y0303952D01*
X0110981Y0303957D01*
X0110873Y0303966D01*
X0110765Y0303979D01*
X0110658Y0303996D01*
X0110552Y0304017D01*
X0110446Y0304041D01*
X0110341Y0304070D01*
X0110238Y0304102D01*
X0110136Y0304138D01*
X0110035Y0304178D01*
X0109935Y0304222D01*
X0109838Y0304269D01*
X0109742Y0304320D01*
X0109648Y0304374D01*
X0109556Y0304432D01*
X0109466Y0304493D01*
X0109379Y0304557D01*
X0109294Y0304625D01*
X0109211Y0304695D01*
X0109131Y0304769D01*
X0109054Y0304845D01*
X0108980Y0304924D01*
X0108909Y0305006D01*
X0108841Y0305090D01*
X0108776Y0305177D01*
X0108714Y0305266D01*
X0108655Y0305358D01*
X0108600Y0305451D01*
X0108549Y0305546D01*
X0108500Y0305644D01*
X0108456Y0305743D01*
X0108415Y0305843D01*
X0108378Y0305945D01*
X0108345Y0306048D01*
X0108315Y0306153D01*
X0108289Y0306258D01*
X0108268Y0306365D01*
X0108250Y0306472D01*
X0108236Y0306579D01*
X0108226Y0306687D01*
X0108220Y0306796D01*
X0108218Y0306904D01*
X0079951Y0257534D02*
X0079953Y0257692D01*
X0079959Y0257850D01*
X0079969Y0258008D01*
X0079983Y0258166D01*
X0080001Y0258323D01*
X0080022Y0258480D01*
X0080048Y0258636D01*
X0080078Y0258792D01*
X0080111Y0258947D01*
X0080149Y0259100D01*
X0080190Y0259253D01*
X0080235Y0259405D01*
X0080284Y0259556D01*
X0080337Y0259705D01*
X0080393Y0259853D01*
X0080453Y0259999D01*
X0080517Y0260144D01*
X0080585Y0260287D01*
X0080656Y0260429D01*
X0080730Y0260569D01*
X0080808Y0260706D01*
X0080890Y0260842D01*
X0080974Y0260976D01*
X0081063Y0261107D01*
X0081154Y0261236D01*
X0081249Y0261363D01*
X0081346Y0261488D01*
X0081447Y0261610D01*
X0081551Y0261729D01*
X0081658Y0261846D01*
X0081768Y0261960D01*
X0081881Y0262071D01*
X0081996Y0262180D01*
X0082114Y0262285D01*
X0082235Y0262387D01*
X0082358Y0262487D01*
X0082484Y0262583D01*
X0082612Y0262676D01*
X0082742Y0262766D01*
X0082875Y0262852D01*
X0083010Y0262936D01*
X0083146Y0263015D01*
X0083285Y0263092D01*
X0083426Y0263164D01*
X0083568Y0263234D01*
X0083712Y0263299D01*
X0083858Y0263361D01*
X0084005Y0263419D01*
X0084154Y0263474D01*
X0084304Y0263525D01*
X0084455Y0263572D01*
X0084607Y0263615D01*
X0084760Y0263654D01*
X0084915Y0263690D01*
X0085070Y0263721D01*
X0085226Y0263749D01*
X0085382Y0263773D01*
X0085539Y0263793D01*
X0085697Y0263809D01*
X0085854Y0263821D01*
X0086013Y0263829D01*
X0086171Y0263833D01*
X0086329Y0263833D01*
X0086487Y0263829D01*
X0086646Y0263821D01*
X0086803Y0263809D01*
X0086961Y0263793D01*
X0087118Y0263773D01*
X0087274Y0263749D01*
X0087430Y0263721D01*
X0087585Y0263690D01*
X0087740Y0263654D01*
X0087893Y0263615D01*
X0088045Y0263572D01*
X0088196Y0263525D01*
X0088346Y0263474D01*
X0088495Y0263419D01*
X0088642Y0263361D01*
X0088788Y0263299D01*
X0088932Y0263234D01*
X0089074Y0263164D01*
X0089215Y0263092D01*
X0089354Y0263015D01*
X0089490Y0262936D01*
X0089625Y0262852D01*
X0089758Y0262766D01*
X0089888Y0262676D01*
X0090016Y0262583D01*
X0090142Y0262487D01*
X0090265Y0262387D01*
X0090386Y0262285D01*
X0090504Y0262180D01*
X0090619Y0262071D01*
X0090732Y0261960D01*
X0090842Y0261846D01*
X0090949Y0261729D01*
X0091053Y0261610D01*
X0091154Y0261488D01*
X0091251Y0261363D01*
X0091346Y0261236D01*
X0091437Y0261107D01*
X0091526Y0260976D01*
X0091610Y0260842D01*
X0091692Y0260706D01*
X0091770Y0260569D01*
X0091844Y0260429D01*
X0091915Y0260287D01*
X0091983Y0260144D01*
X0092047Y0259999D01*
X0092107Y0259853D01*
X0092163Y0259705D01*
X0092216Y0259556D01*
X0092265Y0259405D01*
X0092310Y0259253D01*
X0092351Y0259100D01*
X0092389Y0258947D01*
X0092422Y0258792D01*
X0092452Y0258636D01*
X0092478Y0258480D01*
X0092499Y0258323D01*
X0092517Y0258166D01*
X0092531Y0258008D01*
X0092541Y0257850D01*
X0092547Y0257692D01*
X0092549Y0257534D01*
X0092547Y0257376D01*
X0092541Y0257218D01*
X0092531Y0257060D01*
X0092517Y0256902D01*
X0092499Y0256745D01*
X0092478Y0256588D01*
X0092452Y0256432D01*
X0092422Y0256276D01*
X0092389Y0256121D01*
X0092351Y0255968D01*
X0092310Y0255815D01*
X0092265Y0255663D01*
X0092216Y0255512D01*
X0092163Y0255363D01*
X0092107Y0255215D01*
X0092047Y0255069D01*
X0091983Y0254924D01*
X0091915Y0254781D01*
X0091844Y0254639D01*
X0091770Y0254499D01*
X0091692Y0254362D01*
X0091610Y0254226D01*
X0091526Y0254092D01*
X0091437Y0253961D01*
X0091346Y0253832D01*
X0091251Y0253705D01*
X0091154Y0253580D01*
X0091053Y0253458D01*
X0090949Y0253339D01*
X0090842Y0253222D01*
X0090732Y0253108D01*
X0090619Y0252997D01*
X0090504Y0252888D01*
X0090386Y0252783D01*
X0090265Y0252681D01*
X0090142Y0252581D01*
X0090016Y0252485D01*
X0089888Y0252392D01*
X0089758Y0252302D01*
X0089625Y0252216D01*
X0089490Y0252132D01*
X0089354Y0252053D01*
X0089215Y0251976D01*
X0089074Y0251904D01*
X0088932Y0251834D01*
X0088788Y0251769D01*
X0088642Y0251707D01*
X0088495Y0251649D01*
X0088346Y0251594D01*
X0088196Y0251543D01*
X0088045Y0251496D01*
X0087893Y0251453D01*
X0087740Y0251414D01*
X0087585Y0251378D01*
X0087430Y0251347D01*
X0087274Y0251319D01*
X0087118Y0251295D01*
X0086961Y0251275D01*
X0086803Y0251259D01*
X0086646Y0251247D01*
X0086487Y0251239D01*
X0086329Y0251235D01*
X0086171Y0251235D01*
X0086013Y0251239D01*
X0085854Y0251247D01*
X0085697Y0251259D01*
X0085539Y0251275D01*
X0085382Y0251295D01*
X0085226Y0251319D01*
X0085070Y0251347D01*
X0084915Y0251378D01*
X0084760Y0251414D01*
X0084607Y0251453D01*
X0084455Y0251496D01*
X0084304Y0251543D01*
X0084154Y0251594D01*
X0084005Y0251649D01*
X0083858Y0251707D01*
X0083712Y0251769D01*
X0083568Y0251834D01*
X0083426Y0251904D01*
X0083285Y0251976D01*
X0083146Y0252053D01*
X0083010Y0252132D01*
X0082875Y0252216D01*
X0082742Y0252302D01*
X0082612Y0252392D01*
X0082484Y0252485D01*
X0082358Y0252581D01*
X0082235Y0252681D01*
X0082114Y0252783D01*
X0081996Y0252888D01*
X0081881Y0252997D01*
X0081768Y0253108D01*
X0081658Y0253222D01*
X0081551Y0253339D01*
X0081447Y0253458D01*
X0081346Y0253580D01*
X0081249Y0253705D01*
X0081154Y0253832D01*
X0081063Y0253961D01*
X0080974Y0254092D01*
X0080890Y0254226D01*
X0080808Y0254362D01*
X0080730Y0254499D01*
X0080656Y0254639D01*
X0080585Y0254781D01*
X0080517Y0254924D01*
X0080453Y0255069D01*
X0080393Y0255215D01*
X0080337Y0255363D01*
X0080284Y0255512D01*
X0080235Y0255663D01*
X0080190Y0255815D01*
X0080149Y0255968D01*
X0080111Y0256121D01*
X0080078Y0256276D01*
X0080048Y0256432D01*
X0080022Y0256588D01*
X0080001Y0256745D01*
X0079983Y0256902D01*
X0079969Y0257060D01*
X0079959Y0257218D01*
X0079953Y0257376D01*
X0079951Y0257534D01*
D11*
X0157156Y0210890D02*
X0157156Y0188253D01*
X0245344Y0188253D01*
X0245344Y0210890D01*
X0157156Y0210890D01*
X0166211Y0190448D02*
X0166211Y0188479D01*
X0157156Y0175890D02*
X0157156Y0153253D01*
X0245344Y0153253D01*
X0245344Y0175890D01*
X0157156Y0175890D01*
X0166211Y0155448D02*
X0166211Y0153479D01*
X0167156Y0125890D02*
X0167156Y0103253D01*
X0255344Y0103253D01*
X0255344Y0125890D01*
X0167156Y0125890D01*
X0176211Y0105448D02*
X0176211Y0103479D01*
X0150738Y0091816D02*
X0111762Y0091816D01*
X0111762Y0069178D01*
X0150738Y0069178D01*
X0150738Y0091816D01*
X0141486Y0091589D02*
X0141486Y0089621D01*
X0121407Y0089621D02*
X0121407Y0091589D01*
X0110531Y0056944D02*
X0087894Y0056944D01*
X0087894Y0008125D01*
X0110531Y0008125D01*
X0110531Y0056944D01*
X0122156Y0055890D02*
X0122156Y0033253D01*
X0210344Y0033253D01*
X0210344Y0055890D01*
X0122156Y0055890D01*
X0110305Y0047888D02*
X0108337Y0047888D01*
X0122156Y0030890D02*
X0122156Y0008253D01*
X0210344Y0008253D01*
X0210344Y0030890D01*
X0122156Y0030890D01*
X0131211Y0033479D02*
X0131211Y0035448D01*
X0110305Y0017573D02*
X0108337Y0017573D01*
X0131211Y0010448D02*
X0131211Y0008479D01*
X0201683Y0008479D02*
X0201683Y0010448D01*
X0201683Y0033479D02*
X0201683Y0035448D01*
X0237195Y0042770D02*
X0239163Y0042770D01*
X0236969Y0052022D02*
X0236969Y0013046D01*
X0259606Y0013046D01*
X0259606Y0052022D01*
X0236969Y0052022D01*
X0261969Y0052022D02*
X0261969Y0013046D01*
X0284606Y0013046D01*
X0284606Y0052022D01*
X0261969Y0052022D01*
X0262195Y0042770D02*
X0264163Y0042770D01*
X0287195Y0042770D02*
X0289163Y0042770D01*
X0286969Y0052022D02*
X0286969Y0013046D01*
X0309606Y0013046D01*
X0309606Y0052022D01*
X0286969Y0052022D01*
X0311969Y0052022D02*
X0311969Y0013046D01*
X0334606Y0013046D01*
X0334606Y0052022D01*
X0311969Y0052022D01*
X0312195Y0042770D02*
X0314163Y0042770D01*
X0337195Y0042770D02*
X0339163Y0042770D01*
X0336969Y0052022D02*
X0336969Y0013046D01*
X0359606Y0013046D01*
X0359606Y0052022D01*
X0336969Y0052022D01*
X0361969Y0052022D02*
X0361969Y0013046D01*
X0384606Y0013046D01*
X0384606Y0052022D01*
X0361969Y0052022D01*
X0362195Y0042770D02*
X0364163Y0042770D01*
X0387195Y0042770D02*
X0389163Y0042770D01*
X0386969Y0052022D02*
X0386969Y0013046D01*
X0409606Y0013046D01*
X0409606Y0052022D01*
X0386969Y0052022D01*
X0426762Y0058253D02*
X0465738Y0058253D01*
X0465738Y0080890D01*
X0426762Y0080890D01*
X0426762Y0058253D01*
X0436014Y0058479D02*
X0436014Y0060448D01*
X0456093Y0060448D02*
X0456093Y0058479D01*
X0456093Y0083479D02*
X0456093Y0085448D01*
X0465738Y0083253D02*
X0426762Y0083253D01*
X0426762Y0105890D01*
X0465738Y0105890D01*
X0465738Y0083253D01*
X0436014Y0083479D02*
X0436014Y0085448D01*
X0436014Y0108479D02*
X0436014Y0110448D01*
X0426762Y0108253D02*
X0465738Y0108253D01*
X0465738Y0130890D01*
X0426762Y0130890D01*
X0426762Y0108253D01*
X0456093Y0108479D02*
X0456093Y0110448D01*
X0456093Y0143479D02*
X0456093Y0145448D01*
X0465738Y0143253D02*
X0426762Y0143253D01*
X0426762Y0165890D01*
X0465738Y0165890D01*
X0465738Y0143253D01*
X0436014Y0143479D02*
X0436014Y0145448D01*
X0436014Y0168479D02*
X0436014Y0170448D01*
X0426762Y0168253D02*
X0465738Y0168253D01*
X0465738Y0190890D01*
X0426762Y0190890D01*
X0426762Y0168253D01*
X0456093Y0168479D02*
X0456093Y0170448D01*
X0456093Y0193479D02*
X0456093Y0195448D01*
X0465738Y0193253D02*
X0426762Y0193253D01*
X0426762Y0215890D01*
X0465738Y0215890D01*
X0465738Y0193253D01*
X0436014Y0193479D02*
X0436014Y0195448D01*
X0436014Y0218479D02*
X0436014Y0220448D01*
X0426762Y0218253D02*
X0465738Y0218253D01*
X0465738Y0240890D01*
X0426762Y0240890D01*
X0426762Y0218253D01*
X0456093Y0218479D02*
X0456093Y0220448D01*
X0456093Y0243479D02*
X0456093Y0245448D01*
X0465738Y0243253D02*
X0426762Y0243253D01*
X0426762Y0265890D01*
X0465738Y0265890D01*
X0465738Y0243253D01*
X0436014Y0243479D02*
X0436014Y0245448D01*
X0456683Y0278479D02*
X0456683Y0280448D01*
X0465344Y0278253D02*
X0377156Y0278253D01*
X0377156Y0300890D01*
X0465344Y0300890D01*
X0465344Y0278253D01*
X0386211Y0278479D02*
X0386211Y0280448D01*
X0370344Y0278253D02*
X0282156Y0278253D01*
X0282156Y0300890D01*
X0370344Y0300890D01*
X0370344Y0278253D01*
X0361683Y0278479D02*
X0361683Y0280448D01*
X0291211Y0280448D02*
X0291211Y0278479D01*
X0275738Y0278253D02*
X0236762Y0278253D01*
X0236762Y0300890D01*
X0275738Y0300890D01*
X0275738Y0278253D01*
X0266093Y0278479D02*
X0266093Y0280448D01*
X0246014Y0280448D02*
X0246014Y0278479D01*
X0230738Y0278253D02*
X0191762Y0278253D01*
X0191762Y0300890D01*
X0230738Y0300890D01*
X0230738Y0278253D01*
X0221093Y0278479D02*
X0221093Y0280448D01*
X0201014Y0280448D02*
X0201014Y0278479D01*
X0236683Y0190448D02*
X0236683Y0188479D01*
X0236683Y0155448D02*
X0236683Y0153479D01*
X0267156Y0145890D02*
X0267156Y0123253D01*
X0355344Y0123253D01*
X0355344Y0145890D01*
X0267156Y0145890D01*
X0276211Y0125448D02*
X0276211Y0123479D01*
X0246683Y0105448D02*
X0246683Y0103479D01*
X0316762Y0153253D02*
X0355738Y0153253D01*
X0355738Y0175890D01*
X0316762Y0175890D01*
X0316762Y0153253D01*
X0326014Y0153479D02*
X0326014Y0155448D01*
X0346093Y0155448D02*
X0346093Y0153479D01*
X0346683Y0125448D02*
X0346683Y0123479D01*
X0339163Y0022692D02*
X0337195Y0022692D01*
X0314163Y0022692D02*
X0312195Y0022692D01*
X0289163Y0022692D02*
X0287195Y0022692D01*
X0264163Y0022692D02*
X0262195Y0022692D01*
X0239163Y0022692D02*
X0237195Y0022692D01*
X0362195Y0022692D02*
X0364163Y0022692D01*
X0387195Y0022692D02*
X0389163Y0022692D01*
D12*
X0393419Y0008207D02*
X0395220Y0008207D01*
X0395821Y0007607D01*
X0395821Y0006406D01*
X0395220Y0005805D01*
X0393419Y0005805D01*
X0393419Y0004604D02*
X0393419Y0008207D01*
X0397102Y0007607D02*
X0397102Y0005205D01*
X0397702Y0004604D01*
X0398903Y0004604D01*
X0399504Y0005205D01*
X0399504Y0007607D01*
X0398903Y0008207D01*
X0397702Y0008207D01*
X0397102Y0007607D01*
X0400785Y0008207D02*
X0403187Y0008207D01*
X0401986Y0008207D02*
X0401986Y0004604D01*
X0404468Y0005205D02*
X0405068Y0004604D01*
X0406269Y0004604D01*
X0406870Y0005205D01*
X0406870Y0005805D01*
X0406269Y0006406D01*
X0405669Y0006406D01*
X0406269Y0006406D02*
X0406870Y0007006D01*
X0406870Y0007607D01*
X0406269Y0008207D01*
X0405068Y0008207D01*
X0404468Y0007607D01*
X0381870Y0007607D02*
X0381269Y0008207D01*
X0380068Y0008207D01*
X0379468Y0007607D01*
X0378187Y0008207D02*
X0375785Y0008207D01*
X0376986Y0008207D02*
X0376986Y0004604D01*
X0379468Y0004604D02*
X0381870Y0007006D01*
X0381870Y0007607D01*
X0381870Y0004604D02*
X0379468Y0004604D01*
X0374504Y0005205D02*
X0374504Y0007607D01*
X0373903Y0008207D01*
X0372702Y0008207D01*
X0372102Y0007607D01*
X0372102Y0005205D01*
X0372702Y0004604D01*
X0373903Y0004604D01*
X0374504Y0005205D01*
X0370821Y0006406D02*
X0370821Y0007607D01*
X0370220Y0008207D01*
X0368419Y0008207D01*
X0368419Y0004604D01*
X0368419Y0005805D02*
X0370220Y0005805D01*
X0370821Y0006406D01*
X0356870Y0004604D02*
X0354468Y0004604D01*
X0355669Y0004604D02*
X0355669Y0008207D01*
X0354468Y0007006D01*
X0353187Y0008207D02*
X0350785Y0008207D01*
X0351986Y0008207D02*
X0351986Y0004604D01*
X0349504Y0005205D02*
X0349504Y0007607D01*
X0348903Y0008207D01*
X0347702Y0008207D01*
X0347102Y0007607D01*
X0347102Y0005205D01*
X0347702Y0004604D01*
X0348903Y0004604D01*
X0349504Y0005205D01*
X0345821Y0006406D02*
X0345821Y0007607D01*
X0345220Y0008207D01*
X0343419Y0008207D01*
X0343419Y0004604D01*
X0343419Y0005805D02*
X0345220Y0005805D01*
X0345821Y0006406D01*
X0328187Y0005205D02*
X0328187Y0007607D01*
X0327586Y0008207D01*
X0325785Y0008207D01*
X0325785Y0004604D01*
X0327586Y0004604D01*
X0328187Y0005205D01*
X0324504Y0005205D02*
X0324504Y0008207D01*
X0322102Y0008207D02*
X0322102Y0005205D01*
X0322702Y0004604D01*
X0323903Y0004604D01*
X0324504Y0005205D01*
X0320821Y0004604D02*
X0319620Y0005805D01*
X0320220Y0005805D02*
X0318419Y0005805D01*
X0318419Y0004604D02*
X0318419Y0008207D01*
X0320220Y0008207D01*
X0320821Y0007607D01*
X0320821Y0006406D01*
X0320220Y0005805D01*
X0303187Y0006406D02*
X0302586Y0005805D01*
X0300785Y0005805D01*
X0300785Y0004604D02*
X0300785Y0008207D01*
X0302586Y0008207D01*
X0303187Y0007607D01*
X0303187Y0006406D01*
X0301986Y0005805D02*
X0303187Y0004604D01*
X0299504Y0004604D02*
X0299504Y0008207D01*
X0299504Y0006406D02*
X0297102Y0006406D01*
X0297102Y0008207D02*
X0297102Y0004604D01*
X0294620Y0004604D02*
X0294620Y0008207D01*
X0293419Y0008207D02*
X0295821Y0008207D01*
X0278187Y0008207D02*
X0275785Y0008207D01*
X0275785Y0004604D01*
X0278187Y0004604D01*
X0276986Y0006406D02*
X0275785Y0006406D01*
X0274504Y0004604D02*
X0272102Y0004604D01*
X0272102Y0008207D01*
X0270821Y0008207D02*
X0268419Y0008207D01*
X0268419Y0004604D01*
X0270821Y0004604D01*
X0269620Y0006406D02*
X0268419Y0006406D01*
X0251959Y0004604D02*
X0249557Y0004604D01*
X0249557Y0008207D01*
X0248303Y0008207D02*
X0247102Y0008207D01*
X0247702Y0008207D02*
X0247702Y0004604D01*
X0247102Y0004604D02*
X0248303Y0004604D01*
X0245821Y0004604D02*
X0245821Y0007006D01*
X0244620Y0008207D01*
X0243419Y0007006D01*
X0243419Y0004604D01*
X0243419Y0006406D02*
X0245821Y0006406D01*
X0119770Y0010510D02*
X0116167Y0010510D01*
X0116167Y0009309D02*
X0116167Y0011711D01*
X0116167Y0012992D02*
X0116167Y0014794D01*
X0116768Y0015394D01*
X0117969Y0015394D01*
X0118569Y0014794D01*
X0118569Y0012992D01*
X0118569Y0014193D02*
X0119770Y0015394D01*
X0119770Y0016675D02*
X0119770Y0017876D01*
X0119770Y0017276D02*
X0116167Y0017276D01*
X0116167Y0017876D02*
X0116167Y0016675D01*
X0116167Y0019131D02*
X0117368Y0020332D01*
X0116167Y0021533D01*
X0119770Y0021533D01*
X0119770Y0022814D02*
X0116167Y0022814D01*
X0116167Y0024615D01*
X0116768Y0025216D01*
X0117969Y0025216D01*
X0118569Y0024615D01*
X0118569Y0022814D01*
X0118569Y0024015D02*
X0119770Y0025216D01*
X0119770Y0019131D02*
X0116167Y0019131D01*
X0116167Y0012992D02*
X0119770Y0012992D01*
X0108200Y0005536D02*
X0107600Y0006136D01*
X0106399Y0006136D01*
X0105798Y0005536D01*
X0105798Y0004935D01*
X0106399Y0004335D01*
X0107600Y0004335D01*
X0108200Y0003734D01*
X0108200Y0003134D01*
X0107600Y0002533D01*
X0106399Y0002533D01*
X0105798Y0003134D01*
X0104517Y0003134D02*
X0104517Y0006136D01*
X0102115Y0006136D02*
X0102115Y0003134D01*
X0102716Y0002533D01*
X0103917Y0002533D01*
X0104517Y0003134D01*
X0100834Y0006136D02*
X0098432Y0006136D01*
X0099633Y0006136D02*
X0099633Y0002533D01*
X0097151Y0002533D02*
X0097151Y0004935D01*
X0095950Y0006136D01*
X0094749Y0004935D01*
X0094749Y0002533D01*
X0094749Y0004335D02*
X0097151Y0004335D01*
X0093468Y0006136D02*
X0091066Y0006136D01*
X0092267Y0006136D02*
X0092267Y0002533D01*
X0089785Y0003134D02*
X0089184Y0002533D01*
X0087983Y0002533D01*
X0087383Y0003134D01*
X0087983Y0004335D02*
X0089184Y0004335D01*
X0089785Y0003734D01*
X0089785Y0003134D01*
X0087983Y0004335D02*
X0087383Y0004935D01*
X0087383Y0005536D01*
X0087983Y0006136D01*
X0089184Y0006136D01*
X0089785Y0005536D01*
X0116167Y0034309D02*
X0116167Y0036711D01*
X0116167Y0035510D02*
X0119770Y0035510D01*
X0119770Y0037992D02*
X0116167Y0037992D01*
X0116167Y0039794D01*
X0116768Y0040394D01*
X0117969Y0040394D01*
X0118569Y0039794D01*
X0118569Y0037992D01*
X0118569Y0039193D02*
X0119770Y0040394D01*
X0119770Y0041675D02*
X0119770Y0042876D01*
X0119770Y0042276D02*
X0116167Y0042276D01*
X0116167Y0042876D02*
X0116167Y0041675D01*
X0116167Y0044131D02*
X0117368Y0045332D01*
X0116167Y0046533D01*
X0119770Y0046533D01*
X0119770Y0047814D02*
X0116167Y0047814D01*
X0119770Y0047814D02*
X0119770Y0050216D01*
X0119770Y0044131D02*
X0116167Y0044131D01*
X0117102Y0094604D02*
X0117102Y0098207D01*
X0118903Y0098207D01*
X0119504Y0097607D01*
X0119504Y0096406D01*
X0118903Y0095805D01*
X0117102Y0095805D01*
X0115821Y0096406D02*
X0115220Y0095805D01*
X0113419Y0095805D01*
X0113419Y0094604D02*
X0113419Y0098207D01*
X0115220Y0098207D01*
X0115821Y0097607D01*
X0115821Y0096406D01*
X0120785Y0098207D02*
X0121986Y0097006D01*
X0123187Y0098207D01*
X0123187Y0094604D01*
X0120785Y0094604D02*
X0120785Y0098207D01*
X0122447Y0107734D02*
X0122447Y0109486D01*
X0123031Y0110069D01*
X0124199Y0110069D01*
X0124782Y0109486D01*
X0124782Y0107734D01*
X0124782Y0108902D02*
X0125950Y0110069D01*
X0125950Y0111325D02*
X0125950Y0113661D01*
X0125950Y0112493D02*
X0122447Y0112493D01*
X0123615Y0111325D01*
X0122447Y0107734D02*
X0125950Y0107734D01*
X0161167Y0107992D02*
X0161167Y0109794D01*
X0161768Y0110394D01*
X0164170Y0110394D01*
X0164770Y0109794D01*
X0164770Y0107992D01*
X0161167Y0107992D01*
X0161768Y0106711D02*
X0161167Y0106110D01*
X0161167Y0104909D01*
X0161768Y0104309D01*
X0162368Y0104309D01*
X0162969Y0104909D01*
X0162969Y0106110D01*
X0163569Y0106711D01*
X0164170Y0106711D01*
X0164770Y0106110D01*
X0164770Y0104909D01*
X0164170Y0104309D01*
X0154770Y0154309D02*
X0151167Y0154309D01*
X0151167Y0156110D01*
X0151768Y0156711D01*
X0152969Y0156711D01*
X0153569Y0156110D01*
X0153569Y0154309D01*
X0153569Y0155510D02*
X0154770Y0156711D01*
X0154170Y0157992D02*
X0154770Y0158593D01*
X0154770Y0159794D01*
X0154170Y0160394D01*
X0151768Y0160394D01*
X0151167Y0159794D01*
X0151167Y0158593D01*
X0151768Y0157992D01*
X0154170Y0157992D01*
X0151167Y0161675D02*
X0151167Y0164077D01*
X0151167Y0162876D02*
X0154770Y0162876D01*
X0155371Y0165358D02*
X0155371Y0167760D01*
X0154770Y0169041D02*
X0152368Y0171444D01*
X0151768Y0171444D01*
X0151167Y0170843D01*
X0151167Y0169642D01*
X0151768Y0169041D01*
X0154770Y0169041D02*
X0154770Y0171444D01*
X0154770Y0189309D02*
X0151167Y0189309D01*
X0151167Y0191110D01*
X0151768Y0191711D01*
X0152969Y0191711D01*
X0153569Y0191110D01*
X0153569Y0189309D01*
X0153569Y0190510D02*
X0154770Y0191711D01*
X0154170Y0192992D02*
X0151768Y0192992D01*
X0151167Y0193593D01*
X0151167Y0194794D01*
X0151768Y0195394D01*
X0154170Y0195394D01*
X0154770Y0194794D01*
X0154770Y0193593D01*
X0154170Y0192992D01*
X0151167Y0196675D02*
X0151167Y0199077D01*
X0151167Y0197876D02*
X0154770Y0197876D01*
X0155371Y0200358D02*
X0155371Y0202760D01*
X0154770Y0204041D02*
X0154770Y0206444D01*
X0154770Y0205243D02*
X0151167Y0205243D01*
X0152368Y0204041D01*
X0185577Y0279703D02*
X0189180Y0279703D01*
X0189180Y0282105D01*
X0188579Y0283386D02*
X0186177Y0283386D01*
X0185577Y0283986D01*
X0185577Y0285187D01*
X0186177Y0285788D01*
X0185577Y0287069D02*
X0185577Y0288870D01*
X0186177Y0289471D01*
X0188579Y0289471D01*
X0189180Y0288870D01*
X0189180Y0287069D01*
X0185577Y0287069D01*
X0188579Y0285788D02*
X0189180Y0285187D01*
X0189180Y0283986D01*
X0188579Y0283386D01*
X0189780Y0290752D02*
X0189780Y0293154D01*
X0188579Y0294435D02*
X0189180Y0295036D01*
X0189180Y0296237D01*
X0188579Y0296837D01*
X0188579Y0298118D02*
X0189180Y0298719D01*
X0189180Y0299920D01*
X0188579Y0300520D01*
X0186177Y0300520D01*
X0185577Y0299920D01*
X0185577Y0298719D01*
X0186177Y0298118D01*
X0188579Y0298118D01*
X0186177Y0296837D02*
X0185577Y0296237D01*
X0185577Y0295036D01*
X0186177Y0294435D01*
X0188579Y0294435D01*
X0189180Y0301801D02*
X0185577Y0301801D01*
X0189180Y0304204D01*
X0185577Y0304204D01*
X0185577Y0305485D02*
X0185577Y0307887D01*
X0185577Y0306686D02*
X0189180Y0306686D01*
X0230577Y0291953D02*
X0231778Y0293154D01*
X0234180Y0293154D01*
X0232378Y0293154D02*
X0232378Y0290752D01*
X0231778Y0290752D02*
X0230577Y0291953D01*
X0231778Y0290752D02*
X0234180Y0290752D01*
X0233579Y0289471D02*
X0234180Y0288870D01*
X0234180Y0287069D01*
X0230577Y0287069D01*
X0230577Y0288870D01*
X0231177Y0289471D01*
X0233579Y0289471D01*
X0233579Y0285788D02*
X0234180Y0285187D01*
X0234180Y0283986D01*
X0233579Y0283386D01*
X0231177Y0283386D01*
X0230577Y0283986D01*
X0230577Y0285187D01*
X0231177Y0285788D01*
X0234180Y0282105D02*
X0234180Y0279703D01*
X0230577Y0279703D01*
X0276167Y0279309D02*
X0279770Y0279309D01*
X0279770Y0281711D01*
X0279170Y0282992D02*
X0276768Y0282992D01*
X0276167Y0283593D01*
X0276167Y0284794D01*
X0276768Y0285394D01*
X0276167Y0286675D02*
X0276167Y0288477D01*
X0276768Y0289077D01*
X0279170Y0289077D01*
X0279770Y0288477D01*
X0279770Y0286675D01*
X0276167Y0286675D01*
X0279170Y0285394D02*
X0279770Y0284794D01*
X0279770Y0283593D01*
X0279170Y0282992D01*
X0279770Y0290358D02*
X0276167Y0290358D01*
X0276167Y0292160D01*
X0276768Y0292760D01*
X0277368Y0292760D01*
X0277969Y0292160D01*
X0277969Y0290358D01*
X0279770Y0290358D02*
X0279770Y0292160D01*
X0279170Y0292760D01*
X0278569Y0292760D01*
X0277969Y0292160D01*
X0371167Y0292160D02*
X0371167Y0290959D01*
X0371768Y0290358D01*
X0374170Y0290358D01*
X0374770Y0290959D01*
X0374770Y0292160D01*
X0374170Y0292760D01*
X0371768Y0292760D02*
X0371167Y0292160D01*
X0371768Y0289077D02*
X0371167Y0288477D01*
X0371167Y0286675D01*
X0374770Y0286675D01*
X0374770Y0288477D01*
X0374170Y0289077D01*
X0371768Y0289077D01*
X0371768Y0285394D02*
X0371167Y0284794D01*
X0371167Y0283593D01*
X0371768Y0282992D01*
X0374170Y0282992D01*
X0374770Y0283593D01*
X0374770Y0284794D01*
X0374170Y0285394D01*
X0374770Y0281711D02*
X0374770Y0279309D01*
X0371167Y0279309D01*
X0470577Y0257042D02*
X0471778Y0255841D01*
X0471177Y0254560D02*
X0470577Y0253960D01*
X0470577Y0252158D01*
X0474180Y0252158D01*
X0474180Y0253960D01*
X0473579Y0254560D01*
X0471177Y0254560D01*
X0470577Y0257042D02*
X0474180Y0257042D01*
X0474180Y0255841D02*
X0474180Y0258243D01*
X0474180Y0250904D02*
X0474180Y0249703D01*
X0474180Y0250303D02*
X0470577Y0250303D01*
X0470577Y0249703D02*
X0470577Y0250904D01*
X0471177Y0233243D02*
X0470577Y0232643D01*
X0470577Y0231442D01*
X0471177Y0230841D01*
X0471177Y0229560D02*
X0470577Y0228960D01*
X0470577Y0227158D01*
X0474180Y0227158D01*
X0474180Y0228960D01*
X0473579Y0229560D01*
X0471177Y0229560D01*
X0474180Y0230841D02*
X0471778Y0233243D01*
X0471177Y0233243D01*
X0474180Y0233243D02*
X0474180Y0230841D01*
X0474180Y0225904D02*
X0474180Y0224703D01*
X0474180Y0225303D02*
X0470577Y0225303D01*
X0470577Y0224703D02*
X0470577Y0225904D01*
X0470577Y0211837D02*
X0474180Y0209435D01*
X0474780Y0208154D02*
X0474780Y0205752D01*
X0474180Y0204471D02*
X0472979Y0203270D01*
X0472979Y0203870D02*
X0472979Y0202069D01*
X0474180Y0202069D02*
X0470577Y0202069D01*
X0470577Y0203870D01*
X0471177Y0204471D01*
X0472378Y0204471D01*
X0472979Y0203870D01*
X0472378Y0200788D02*
X0472378Y0198386D01*
X0470577Y0198386D02*
X0474180Y0198386D01*
X0474180Y0200788D02*
X0470577Y0200788D01*
X0470577Y0197105D02*
X0470577Y0194703D01*
X0470577Y0195904D02*
X0474180Y0195904D01*
X0474180Y0184471D02*
X0470577Y0184471D01*
X0470577Y0182069D02*
X0474180Y0184471D01*
X0474180Y0182069D02*
X0470577Y0182069D01*
X0471177Y0180788D02*
X0472378Y0180788D01*
X0472979Y0180187D01*
X0472979Y0178386D01*
X0472979Y0179587D02*
X0474180Y0180788D01*
X0474180Y0178386D02*
X0470577Y0178386D01*
X0470577Y0180187D01*
X0471177Y0180788D01*
X0470577Y0177105D02*
X0470577Y0174703D01*
X0470577Y0175904D02*
X0474180Y0175904D01*
X0474180Y0163154D02*
X0472979Y0161953D01*
X0472979Y0162554D02*
X0472979Y0160752D01*
X0474180Y0160752D02*
X0470577Y0160752D01*
X0470577Y0162554D01*
X0471177Y0163154D01*
X0472378Y0163154D01*
X0472979Y0162554D01*
X0472378Y0159471D02*
X0472378Y0157069D01*
X0471778Y0157069D02*
X0470577Y0158270D01*
X0471778Y0159471D01*
X0474180Y0159471D01*
X0474180Y0157069D02*
X0471778Y0157069D01*
X0470577Y0155788D02*
X0470577Y0153386D01*
X0474180Y0153386D01*
X0474180Y0155788D01*
X0472378Y0154587D02*
X0472378Y0153386D01*
X0472378Y0152105D02*
X0472378Y0150904D01*
X0472378Y0152105D02*
X0473579Y0152105D01*
X0474180Y0151504D01*
X0474180Y0150303D01*
X0473579Y0149703D01*
X0471177Y0149703D01*
X0470577Y0150303D01*
X0470577Y0151504D01*
X0471177Y0152105D01*
X0471177Y0130520D02*
X0472378Y0130520D01*
X0472979Y0129920D01*
X0472979Y0128118D01*
X0474180Y0128118D02*
X0470577Y0128118D01*
X0470577Y0129920D01*
X0471177Y0130520D01*
X0472979Y0129319D02*
X0474180Y0130520D01*
X0473579Y0126837D02*
X0471177Y0126837D01*
X0470577Y0126237D01*
X0470577Y0124435D01*
X0474180Y0124435D01*
X0474180Y0126237D01*
X0473579Y0126837D01*
X0474780Y0123154D02*
X0474780Y0120752D01*
X0473579Y0119471D02*
X0471177Y0119471D01*
X0470577Y0118870D01*
X0470577Y0117069D01*
X0474180Y0117069D01*
X0474180Y0118870D01*
X0473579Y0119471D01*
X0473579Y0115788D02*
X0470577Y0115788D01*
X0470577Y0113386D02*
X0473579Y0113386D01*
X0474180Y0113986D01*
X0474180Y0115187D01*
X0473579Y0115788D01*
X0474180Y0112105D02*
X0472979Y0110904D01*
X0472979Y0111504D02*
X0472979Y0109703D01*
X0474180Y0109703D02*
X0470577Y0109703D01*
X0470577Y0111504D01*
X0471177Y0112105D01*
X0472378Y0112105D01*
X0472979Y0111504D01*
X0472378Y0105520D02*
X0472979Y0104920D01*
X0472979Y0103118D01*
X0474180Y0103118D02*
X0470577Y0103118D01*
X0470577Y0104920D01*
X0471177Y0105520D01*
X0472378Y0105520D01*
X0472979Y0104319D02*
X0474180Y0105520D01*
X0473579Y0101837D02*
X0471177Y0101837D01*
X0470577Y0101237D01*
X0470577Y0099435D01*
X0474180Y0099435D01*
X0474180Y0101237D01*
X0473579Y0101837D01*
X0474780Y0098154D02*
X0474780Y0095752D01*
X0474180Y0094471D02*
X0474180Y0092069D01*
X0470577Y0092069D01*
X0470577Y0094471D01*
X0472378Y0093270D02*
X0472378Y0092069D01*
X0474180Y0090788D02*
X0474180Y0088386D01*
X0470577Y0088386D01*
X0470577Y0087105D02*
X0470577Y0084703D01*
X0474180Y0084703D01*
X0474180Y0087105D01*
X0472378Y0085904D02*
X0472378Y0084703D01*
X0472378Y0079293D02*
X0472979Y0078692D01*
X0472979Y0076891D01*
X0472979Y0078092D02*
X0474180Y0079293D01*
X0472378Y0079293D02*
X0471177Y0079293D01*
X0470577Y0078692D01*
X0470577Y0076891D01*
X0474180Y0076891D01*
X0473579Y0075610D02*
X0471177Y0075610D01*
X0470577Y0075009D01*
X0470577Y0073207D01*
X0474180Y0073207D01*
X0474180Y0075009D01*
X0473579Y0075610D01*
X0474780Y0071926D02*
X0474780Y0069524D01*
X0474180Y0068243D02*
X0474180Y0065841D01*
X0470577Y0065841D01*
X0470577Y0064587D02*
X0470577Y0063386D01*
X0470577Y0063986D02*
X0474180Y0063986D01*
X0474180Y0063386D02*
X0474180Y0064587D01*
X0474180Y0062105D02*
X0471778Y0062105D01*
X0470577Y0060904D01*
X0471778Y0059703D01*
X0474180Y0059703D01*
X0472378Y0059703D02*
X0472378Y0062105D01*
X0314180Y0154703D02*
X0310577Y0154703D01*
X0312378Y0154703D02*
X0312378Y0157105D01*
X0310577Y0157105D02*
X0314180Y0157105D01*
X0314780Y0158386D02*
X0314780Y0160788D01*
X0314180Y0162069D02*
X0314180Y0163870D01*
X0313579Y0164471D01*
X0312979Y0164471D01*
X0312378Y0163870D01*
X0312378Y0162069D01*
X0310577Y0162069D02*
X0310577Y0163870D01*
X0311177Y0164471D01*
X0311778Y0164471D01*
X0312378Y0163870D01*
X0310577Y0162069D02*
X0314180Y0162069D01*
X0264770Y0136559D02*
X0264770Y0135358D01*
X0264770Y0135959D02*
X0261167Y0135959D01*
X0261167Y0136559D02*
X0261167Y0135358D01*
X0261167Y0134077D02*
X0263569Y0134077D01*
X0264770Y0132876D01*
X0263569Y0131675D01*
X0261167Y0131675D01*
X0262368Y0130394D02*
X0264770Y0130394D01*
X0262969Y0130394D02*
X0262969Y0127992D01*
X0262368Y0127992D02*
X0264770Y0127992D01*
X0264770Y0126711D02*
X0261167Y0126711D01*
X0262368Y0127992D02*
X0261167Y0129193D01*
X0262368Y0130394D01*
X0264770Y0126711D02*
X0261167Y0124309D01*
X0264770Y0124309D01*
X0470577Y0209435D02*
X0474180Y0211837D01*
D13*
X0422509Y0205034D02*
X0419306Y0205034D01*
X0420908Y0205034D02*
X0420908Y0209838D01*
X0419306Y0208237D01*
X0417353Y0208237D02*
X0416552Y0207436D01*
X0417353Y0206635D01*
X0417353Y0205835D01*
X0416552Y0205034D01*
X0414951Y0205034D01*
X0414150Y0205835D01*
X0415751Y0207436D02*
X0416552Y0207436D01*
X0417353Y0208237D02*
X0417353Y0209038D01*
X0416552Y0209838D01*
X0414951Y0209838D01*
X0414150Y0209038D01*
X0414951Y0199838D02*
X0416552Y0199838D01*
X0417353Y0199038D01*
X0417353Y0198237D01*
X0416552Y0197436D01*
X0417353Y0196635D01*
X0417353Y0195835D01*
X0416552Y0195034D01*
X0414951Y0195034D01*
X0414150Y0195835D01*
X0415751Y0197436D02*
X0416552Y0197436D01*
X0414951Y0199838D02*
X0414150Y0199038D01*
X0419306Y0199038D02*
X0420107Y0199838D01*
X0421708Y0199838D01*
X0422509Y0199038D01*
X0422509Y0198237D01*
X0421708Y0197436D01*
X0422509Y0196635D01*
X0422509Y0195835D01*
X0421708Y0195034D01*
X0420107Y0195034D01*
X0419306Y0195835D01*
X0420908Y0197436D02*
X0421708Y0197436D01*
X0422509Y0189838D02*
X0419306Y0189838D01*
X0419306Y0187436D01*
X0420908Y0188237D01*
X0421708Y0188237D01*
X0422509Y0187436D01*
X0422509Y0185835D01*
X0421708Y0185034D01*
X0420107Y0185034D01*
X0419306Y0185835D01*
X0417353Y0185835D02*
X0416552Y0185034D01*
X0414951Y0185034D01*
X0414150Y0185835D01*
X0415751Y0187436D02*
X0416552Y0187436D01*
X0417353Y0186635D01*
X0417353Y0185835D01*
X0416552Y0187436D02*
X0417353Y0188237D01*
X0417353Y0189038D01*
X0416552Y0189838D01*
X0414951Y0189838D01*
X0414150Y0189038D01*
X0414951Y0179838D02*
X0416552Y0179838D01*
X0417353Y0179038D01*
X0417353Y0178237D01*
X0416552Y0177436D01*
X0417353Y0176635D01*
X0417353Y0175835D01*
X0416552Y0175034D01*
X0414951Y0175034D01*
X0414150Y0175835D01*
X0415751Y0177436D02*
X0416552Y0177436D01*
X0414951Y0179838D02*
X0414150Y0179038D01*
X0419306Y0179838D02*
X0422509Y0179838D01*
X0422509Y0179038D01*
X0419306Y0175835D01*
X0419306Y0175034D01*
X0420107Y0169838D02*
X0419306Y0169038D01*
X0419306Y0168237D01*
X0420107Y0167436D01*
X0422509Y0167436D01*
X0422509Y0165835D02*
X0422509Y0169038D01*
X0421708Y0169838D01*
X0420107Y0169838D01*
X0417353Y0169038D02*
X0416552Y0169838D01*
X0414951Y0169838D01*
X0414150Y0169038D01*
X0415751Y0167436D02*
X0416552Y0167436D01*
X0417353Y0166635D01*
X0417353Y0165835D01*
X0416552Y0165034D01*
X0414951Y0165034D01*
X0414150Y0165835D01*
X0416552Y0167436D02*
X0417353Y0168237D01*
X0417353Y0169038D01*
X0419306Y0165835D02*
X0420107Y0165034D01*
X0421708Y0165034D01*
X0422509Y0165835D01*
X0420908Y0159838D02*
X0420908Y0155034D01*
X0422509Y0155034D02*
X0419306Y0155034D01*
X0416552Y0155034D02*
X0416552Y0159838D01*
X0414150Y0157436D01*
X0417353Y0157436D01*
X0419306Y0158237D02*
X0420908Y0159838D01*
X0421708Y0149838D02*
X0420107Y0149838D01*
X0419306Y0149038D01*
X0420908Y0147436D02*
X0421708Y0147436D01*
X0422509Y0146635D01*
X0422509Y0145835D01*
X0421708Y0145034D01*
X0420107Y0145034D01*
X0419306Y0145835D01*
X0417353Y0147436D02*
X0414150Y0147436D01*
X0416552Y0149838D01*
X0416552Y0145034D01*
X0416552Y0139838D02*
X0414150Y0137436D01*
X0417353Y0137436D01*
X0419306Y0137436D02*
X0420908Y0138237D01*
X0421708Y0138237D01*
X0422509Y0137436D01*
X0422509Y0135835D01*
X0421708Y0135034D01*
X0420107Y0135034D01*
X0419306Y0135835D01*
X0419306Y0137436D02*
X0419306Y0139838D01*
X0422509Y0139838D01*
X0416552Y0139838D02*
X0416552Y0135034D01*
X0416552Y0129838D02*
X0414150Y0127436D01*
X0417353Y0127436D01*
X0419306Y0125835D02*
X0419306Y0125034D01*
X0419306Y0125835D02*
X0422509Y0129038D01*
X0422509Y0129838D01*
X0419306Y0129838D01*
X0416552Y0129838D02*
X0416552Y0125034D01*
X0416552Y0119838D02*
X0414150Y0117436D01*
X0417353Y0117436D01*
X0419306Y0118237D02*
X0420107Y0117436D01*
X0422509Y0117436D01*
X0422509Y0115835D02*
X0422509Y0119038D01*
X0421708Y0119838D01*
X0420107Y0119838D01*
X0419306Y0119038D01*
X0419306Y0118237D01*
X0419306Y0115835D02*
X0420107Y0115034D01*
X0421708Y0115034D01*
X0422509Y0115835D01*
X0416552Y0115034D02*
X0416552Y0119838D01*
X0417353Y0109838D02*
X0414150Y0109838D01*
X0414150Y0107436D01*
X0415751Y0108237D01*
X0416552Y0108237D01*
X0417353Y0107436D01*
X0417353Y0105835D01*
X0416552Y0105034D01*
X0414951Y0105034D01*
X0414150Y0105835D01*
X0419306Y0105034D02*
X0422509Y0105034D01*
X0420908Y0105034D02*
X0420908Y0109838D01*
X0419306Y0108237D01*
X0420107Y0099838D02*
X0421708Y0099838D01*
X0422509Y0099038D01*
X0422509Y0098237D01*
X0421708Y0097436D01*
X0422509Y0096635D01*
X0422509Y0095835D01*
X0421708Y0095034D01*
X0420107Y0095034D01*
X0419306Y0095835D01*
X0417353Y0095835D02*
X0416552Y0095034D01*
X0414951Y0095034D01*
X0414150Y0095835D01*
X0414150Y0097436D02*
X0415751Y0098237D01*
X0416552Y0098237D01*
X0417353Y0097436D01*
X0417353Y0095835D01*
X0414150Y0097436D02*
X0414150Y0099838D01*
X0417353Y0099838D01*
X0419306Y0099038D02*
X0420107Y0099838D01*
X0420908Y0097436D02*
X0421708Y0097436D01*
X0411250Y0090034D02*
X0411250Y0085034D01*
X0408750Y0082534D01*
X0393750Y0082534D01*
X0391250Y0085034D01*
X0391250Y0090034D01*
X0393750Y0092534D01*
X0408750Y0092534D01*
X0411250Y0090034D01*
X0388350Y0088749D02*
X0388350Y0087148D01*
X0387549Y0086347D01*
X0385948Y0086347D02*
X0385147Y0087948D01*
X0385147Y0088749D01*
X0385948Y0089550D01*
X0387549Y0089550D01*
X0388350Y0088749D01*
X0385948Y0086347D02*
X0383546Y0086347D01*
X0383546Y0089550D01*
X0378850Y0088749D02*
X0374046Y0088749D01*
X0376448Y0086347D01*
X0376448Y0089550D01*
X0378850Y0084393D02*
X0378850Y0081191D01*
X0378850Y0082792D02*
X0374046Y0082792D01*
X0375647Y0081191D01*
X0375647Y0079237D02*
X0378850Y0079237D01*
X0376448Y0079237D02*
X0376448Y0076034D01*
X0375647Y0076034D02*
X0374046Y0077635D01*
X0375647Y0079237D01*
X0375647Y0076034D02*
X0378850Y0076034D01*
X0378750Y0072534D02*
X0373750Y0072534D01*
X0371250Y0070034D01*
X0368750Y0072534D01*
X0363750Y0072534D01*
X0361250Y0070034D01*
X0358750Y0072534D01*
X0353750Y0072534D01*
X0351250Y0070034D01*
X0348750Y0072534D01*
X0343750Y0072534D01*
X0341250Y0070034D01*
X0338750Y0072534D01*
X0333750Y0072534D01*
X0331250Y0070034D01*
X0328750Y0072534D01*
X0323750Y0072534D01*
X0321250Y0070034D01*
X0318750Y0072534D01*
X0313750Y0072534D01*
X0311250Y0070034D01*
X0311250Y0065034D01*
X0313750Y0062534D01*
X0318750Y0062534D01*
X0321250Y0065034D01*
X0323750Y0062534D01*
X0328750Y0062534D01*
X0331250Y0065034D01*
X0333750Y0062534D01*
X0338750Y0062534D01*
X0341250Y0065034D01*
X0343750Y0062534D01*
X0348750Y0062534D01*
X0351250Y0065034D01*
X0353750Y0062534D01*
X0358750Y0062534D01*
X0361250Y0065034D01*
X0363750Y0062534D01*
X0368750Y0062534D01*
X0371250Y0065034D01*
X0373750Y0062534D01*
X0378750Y0062534D01*
X0381250Y0065034D01*
X0383750Y0062534D01*
X0388750Y0062534D01*
X0391250Y0065034D01*
X0391250Y0070034D01*
X0388750Y0072534D01*
X0383750Y0072534D01*
X0381250Y0070034D01*
X0378750Y0072534D01*
X0383546Y0077635D02*
X0385147Y0076034D01*
X0388350Y0076034D01*
X0385948Y0076034D02*
X0385948Y0079237D01*
X0385147Y0079237D02*
X0388350Y0079237D01*
X0388350Y0081191D02*
X0388350Y0084393D01*
X0388350Y0082792D02*
X0383546Y0082792D01*
X0385147Y0081191D01*
X0385147Y0079237D02*
X0383546Y0077635D01*
X0368850Y0076034D02*
X0365647Y0076034D01*
X0364046Y0077635D01*
X0365647Y0079237D01*
X0368850Y0079237D01*
X0368850Y0081191D02*
X0368850Y0084393D01*
X0368850Y0082792D02*
X0364046Y0082792D01*
X0365647Y0081191D01*
X0366448Y0079237D02*
X0366448Y0076034D01*
X0358850Y0076034D02*
X0355647Y0076034D01*
X0354046Y0077635D01*
X0355647Y0079237D01*
X0358850Y0079237D01*
X0358850Y0081191D02*
X0358850Y0084393D01*
X0358850Y0082792D02*
X0354046Y0082792D01*
X0355647Y0081191D01*
X0356448Y0079237D02*
X0356448Y0076034D01*
X0348850Y0076034D02*
X0345647Y0076034D01*
X0344046Y0077635D01*
X0345647Y0079237D01*
X0348850Y0079237D01*
X0348850Y0081191D02*
X0348850Y0084393D01*
X0348850Y0082792D02*
X0344046Y0082792D01*
X0345647Y0081191D01*
X0346448Y0079237D02*
X0346448Y0076034D01*
X0338850Y0076034D02*
X0335647Y0076034D01*
X0334046Y0077635D01*
X0335647Y0079237D01*
X0338850Y0079237D01*
X0338850Y0081191D02*
X0338850Y0084393D01*
X0338850Y0082792D02*
X0334046Y0082792D01*
X0335647Y0081191D01*
X0336448Y0079237D02*
X0336448Y0076034D01*
X0328850Y0076034D02*
X0325647Y0076034D01*
X0324046Y0077635D01*
X0325647Y0079237D01*
X0328850Y0079237D01*
X0328049Y0081191D02*
X0328850Y0081991D01*
X0328850Y0083593D01*
X0328049Y0084393D01*
X0324847Y0084393D01*
X0324046Y0083593D01*
X0324046Y0081991D01*
X0324847Y0081191D01*
X0325647Y0081191D01*
X0326448Y0081991D01*
X0326448Y0084393D01*
X0334046Y0087148D02*
X0334046Y0088749D01*
X0334847Y0089550D01*
X0338049Y0086347D01*
X0338850Y0087148D01*
X0338850Y0088749D01*
X0338049Y0089550D01*
X0334847Y0089550D01*
X0334046Y0087148D02*
X0334847Y0086347D01*
X0338049Y0086347D01*
X0344046Y0087948D02*
X0345647Y0086347D01*
X0344046Y0087948D02*
X0348850Y0087948D01*
X0348850Y0086347D02*
X0348850Y0089550D01*
X0354046Y0088749D02*
X0354046Y0087148D01*
X0354847Y0086347D01*
X0354046Y0088749D02*
X0354847Y0089550D01*
X0355647Y0089550D01*
X0358850Y0086347D01*
X0358850Y0089550D01*
X0364046Y0088749D02*
X0364847Y0089550D01*
X0365647Y0089550D01*
X0366448Y0088749D01*
X0367249Y0089550D01*
X0368049Y0089550D01*
X0368850Y0088749D01*
X0368850Y0087148D01*
X0368049Y0086347D01*
X0366448Y0087948D02*
X0366448Y0088749D01*
X0364046Y0088749D02*
X0364046Y0087148D01*
X0364847Y0086347D01*
X0379750Y0095735D02*
X0380551Y0094934D01*
X0382152Y0094934D01*
X0382953Y0095735D01*
X0382953Y0097336D01*
X0382152Y0098137D01*
X0381351Y0098137D01*
X0379750Y0097336D01*
X0379750Y0099738D01*
X0382953Y0099738D01*
X0384906Y0098938D02*
X0385707Y0099738D01*
X0387308Y0099738D01*
X0388109Y0098938D01*
X0388109Y0098137D01*
X0384906Y0094934D01*
X0388109Y0094934D01*
X0387308Y0104934D02*
X0385707Y0104934D01*
X0384906Y0105735D01*
X0388109Y0108938D01*
X0388109Y0105735D01*
X0387308Y0104934D01*
X0384906Y0105735D02*
X0384906Y0108938D01*
X0385707Y0109738D01*
X0387308Y0109738D01*
X0388109Y0108938D01*
X0382953Y0109738D02*
X0379750Y0109738D01*
X0379750Y0107336D01*
X0381351Y0108137D01*
X0382152Y0108137D01*
X0382953Y0107336D01*
X0382953Y0105735D01*
X0382152Y0104934D01*
X0380551Y0104934D01*
X0379750Y0105735D01*
X0382152Y0114934D02*
X0382152Y0119738D01*
X0379750Y0117336D01*
X0382953Y0117336D01*
X0384906Y0116535D02*
X0385707Y0117336D01*
X0387308Y0117336D01*
X0388109Y0116535D01*
X0388109Y0115735D01*
X0387308Y0114934D01*
X0385707Y0114934D01*
X0384906Y0115735D01*
X0384906Y0116535D01*
X0385707Y0117336D02*
X0384906Y0118137D01*
X0384906Y0118938D01*
X0385707Y0119738D01*
X0387308Y0119738D01*
X0388109Y0118938D01*
X0388109Y0118137D01*
X0387308Y0117336D01*
X0387308Y0124934D02*
X0385707Y0124934D01*
X0384906Y0125735D01*
X0384906Y0127336D01*
X0387308Y0127336D01*
X0388109Y0126535D01*
X0388109Y0125735D01*
X0387308Y0124934D01*
X0384906Y0127336D02*
X0386508Y0128938D01*
X0388109Y0129738D01*
X0387308Y0134934D02*
X0387308Y0139738D01*
X0384906Y0137336D01*
X0388109Y0137336D01*
X0382953Y0137336D02*
X0379750Y0137336D01*
X0382152Y0139738D01*
X0382152Y0134934D01*
X0382152Y0129738D02*
X0379750Y0127336D01*
X0382953Y0127336D01*
X0382152Y0124934D02*
X0382152Y0129738D01*
X0382152Y0144934D02*
X0382152Y0149738D01*
X0379750Y0147336D01*
X0382953Y0147336D01*
X0384906Y0148938D02*
X0385707Y0149738D01*
X0387308Y0149738D01*
X0388109Y0148938D01*
X0388109Y0148137D01*
X0384906Y0144934D01*
X0388109Y0144934D01*
X0387308Y0154934D02*
X0385707Y0154934D01*
X0384906Y0155735D01*
X0388109Y0158938D01*
X0388109Y0155735D01*
X0387308Y0154934D01*
X0384906Y0155735D02*
X0384906Y0158938D01*
X0385707Y0159738D01*
X0387308Y0159738D01*
X0388109Y0158938D01*
X0382953Y0157336D02*
X0379750Y0157336D01*
X0382152Y0159738D01*
X0382152Y0154934D01*
X0382152Y0164934D02*
X0380551Y0164934D01*
X0379750Y0165735D01*
X0381351Y0167336D02*
X0382152Y0167336D01*
X0382953Y0166535D01*
X0382953Y0165735D01*
X0382152Y0164934D01*
X0382152Y0167336D02*
X0382953Y0168137D01*
X0382953Y0168938D01*
X0382152Y0169738D01*
X0380551Y0169738D01*
X0379750Y0168938D01*
X0384906Y0168938D02*
X0385707Y0169738D01*
X0387308Y0169738D01*
X0388109Y0168938D01*
X0388109Y0168137D01*
X0387308Y0167336D01*
X0385707Y0167336D01*
X0384906Y0168137D01*
X0384906Y0168938D01*
X0385707Y0167336D02*
X0384906Y0166535D01*
X0384906Y0165735D01*
X0385707Y0164934D01*
X0387308Y0164934D01*
X0388109Y0165735D01*
X0388109Y0166535D01*
X0387308Y0167336D01*
X0387308Y0174934D02*
X0385707Y0174934D01*
X0384906Y0175735D01*
X0384906Y0177336D01*
X0387308Y0177336D01*
X0388109Y0176535D01*
X0388109Y0175735D01*
X0387308Y0174934D01*
X0384906Y0177336D02*
X0386508Y0178938D01*
X0388109Y0179738D01*
X0382953Y0178938D02*
X0382953Y0178137D01*
X0382152Y0177336D01*
X0382953Y0176535D01*
X0382953Y0175735D01*
X0382152Y0174934D01*
X0380551Y0174934D01*
X0379750Y0175735D01*
X0381351Y0177336D02*
X0382152Y0177336D01*
X0382953Y0178938D02*
X0382152Y0179738D01*
X0380551Y0179738D01*
X0379750Y0178938D01*
X0380551Y0184934D02*
X0379750Y0185735D01*
X0380551Y0184934D02*
X0382152Y0184934D01*
X0382953Y0185735D01*
X0382953Y0186535D01*
X0382152Y0187336D01*
X0381351Y0187336D01*
X0382152Y0187336D02*
X0382953Y0188137D01*
X0382953Y0188938D01*
X0382152Y0189738D01*
X0380551Y0189738D01*
X0379750Y0188938D01*
X0384906Y0187336D02*
X0388109Y0187336D01*
X0387308Y0184934D02*
X0387308Y0189738D01*
X0384906Y0187336D01*
X0384906Y0194934D02*
X0388109Y0198137D01*
X0388109Y0198938D01*
X0387308Y0199738D01*
X0385707Y0199738D01*
X0384906Y0198938D01*
X0382953Y0198938D02*
X0382953Y0198137D01*
X0382152Y0197336D01*
X0382953Y0196535D01*
X0382953Y0195735D01*
X0382152Y0194934D01*
X0380551Y0194934D01*
X0379750Y0195735D01*
X0381351Y0197336D02*
X0382152Y0197336D01*
X0382953Y0198938D02*
X0382152Y0199738D01*
X0380551Y0199738D01*
X0379750Y0198938D01*
X0384906Y0194934D02*
X0388109Y0194934D01*
X0387308Y0204934D02*
X0385707Y0204934D01*
X0384906Y0205735D01*
X0388109Y0208938D01*
X0388109Y0205735D01*
X0387308Y0204934D01*
X0384906Y0205735D02*
X0384906Y0208938D01*
X0385707Y0209738D01*
X0387308Y0209738D01*
X0388109Y0208938D01*
X0382953Y0208938D02*
X0382152Y0209738D01*
X0380551Y0209738D01*
X0379750Y0208938D01*
X0381351Y0207336D02*
X0382152Y0207336D01*
X0382953Y0206535D01*
X0382953Y0205735D01*
X0382152Y0204934D01*
X0380551Y0204934D01*
X0379750Y0205735D01*
X0382152Y0207336D02*
X0382953Y0208137D01*
X0382953Y0208938D01*
X0382953Y0214934D02*
X0379750Y0214934D01*
X0382953Y0218137D01*
X0382953Y0218938D01*
X0382152Y0219738D01*
X0380551Y0219738D01*
X0379750Y0218938D01*
X0384906Y0218938D02*
X0385707Y0219738D01*
X0387308Y0219738D01*
X0388109Y0218938D01*
X0388109Y0218137D01*
X0387308Y0217336D01*
X0385707Y0217336D01*
X0384906Y0218137D01*
X0384906Y0218938D01*
X0385707Y0217336D02*
X0384906Y0216535D01*
X0384906Y0215735D01*
X0385707Y0214934D01*
X0387308Y0214934D01*
X0388109Y0215735D01*
X0388109Y0216535D01*
X0387308Y0217336D01*
X0387308Y0224934D02*
X0385707Y0224934D01*
X0384906Y0225735D01*
X0384906Y0227336D01*
X0387308Y0227336D01*
X0388109Y0226535D01*
X0388109Y0225735D01*
X0387308Y0224934D01*
X0384906Y0227336D02*
X0386508Y0228938D01*
X0388109Y0229738D01*
X0382953Y0228938D02*
X0382152Y0229738D01*
X0380551Y0229738D01*
X0379750Y0228938D01*
X0382953Y0228938D02*
X0382953Y0228137D01*
X0379750Y0224934D01*
X0382953Y0224934D01*
X0382953Y0234934D02*
X0379750Y0234934D01*
X0382953Y0238137D01*
X0382953Y0238938D01*
X0382152Y0239738D01*
X0380551Y0239738D01*
X0379750Y0238938D01*
X0384906Y0237336D02*
X0388109Y0237336D01*
X0387308Y0234934D02*
X0387308Y0239738D01*
X0384906Y0237336D01*
X0384906Y0244934D02*
X0388109Y0248137D01*
X0388109Y0248938D01*
X0387308Y0249738D01*
X0385707Y0249738D01*
X0384906Y0248938D01*
X0382953Y0248938D02*
X0382152Y0249738D01*
X0380551Y0249738D01*
X0379750Y0248938D01*
X0382953Y0248938D02*
X0382953Y0248137D01*
X0379750Y0244934D01*
X0382953Y0244934D01*
X0384906Y0244934D02*
X0388109Y0244934D01*
X0393750Y0252534D02*
X0408750Y0252534D01*
X0411250Y0255034D01*
X0411250Y0260034D01*
X0408750Y0262534D01*
X0393750Y0262534D01*
X0391250Y0260034D01*
X0391250Y0255034D01*
X0393750Y0252534D01*
X0371250Y0255034D02*
X0368750Y0252534D01*
X0363750Y0252534D01*
X0361250Y0255034D01*
X0358750Y0252534D01*
X0353750Y0252534D01*
X0351250Y0255034D01*
X0348750Y0252534D01*
X0343750Y0252534D01*
X0341250Y0255034D01*
X0338750Y0252534D01*
X0333750Y0252534D01*
X0331250Y0255034D01*
X0328750Y0252534D01*
X0323750Y0252534D01*
X0321250Y0255034D01*
X0318750Y0252534D01*
X0313750Y0252534D01*
X0311250Y0255034D01*
X0308750Y0252534D01*
X0303750Y0252534D01*
X0301250Y0255034D01*
X0298750Y0252534D01*
X0293750Y0252534D01*
X0291250Y0255034D01*
X0291250Y0260034D01*
X0293750Y0262534D01*
X0298750Y0262534D01*
X0301250Y0260034D01*
X0303750Y0262534D01*
X0308750Y0262534D01*
X0311250Y0260034D01*
X0313750Y0262534D01*
X0318750Y0262534D01*
X0321250Y0260034D01*
X0323750Y0262534D01*
X0328750Y0262534D01*
X0331250Y0260034D01*
X0333750Y0262534D01*
X0338750Y0262534D01*
X0341250Y0260034D01*
X0343750Y0262534D01*
X0348750Y0262534D01*
X0351250Y0260034D01*
X0353750Y0262534D01*
X0358750Y0262534D01*
X0361250Y0260034D01*
X0363750Y0262534D01*
X0368750Y0262534D01*
X0371250Y0260034D01*
X0371250Y0255034D01*
X0367350Y0250793D02*
X0367350Y0247591D01*
X0367350Y0249192D02*
X0362546Y0249192D01*
X0364147Y0247591D01*
X0364147Y0245637D02*
X0363347Y0245637D01*
X0362546Y0244836D01*
X0362546Y0243235D01*
X0363347Y0242434D01*
X0364147Y0245637D02*
X0367350Y0242434D01*
X0367350Y0245637D01*
X0357350Y0245637D02*
X0357350Y0242434D01*
X0354147Y0245637D01*
X0353347Y0245637D01*
X0352546Y0244836D01*
X0352546Y0243235D01*
X0353347Y0242434D01*
X0347350Y0242434D02*
X0347350Y0245637D01*
X0347350Y0244035D02*
X0342546Y0244035D01*
X0344147Y0242434D01*
X0344147Y0247591D02*
X0343347Y0247591D01*
X0342546Y0248391D01*
X0342546Y0249993D01*
X0343347Y0250793D01*
X0346549Y0250793D01*
X0347350Y0249993D01*
X0347350Y0248391D01*
X0346549Y0247591D01*
X0344948Y0248391D02*
X0344948Y0250793D01*
X0344948Y0248391D02*
X0344147Y0247591D01*
X0352546Y0248391D02*
X0352546Y0249993D01*
X0353347Y0250793D01*
X0356549Y0247591D01*
X0357350Y0248391D01*
X0357350Y0249993D01*
X0356549Y0250793D01*
X0353347Y0250793D01*
X0352546Y0248391D02*
X0353347Y0247591D01*
X0356549Y0247591D01*
X0337350Y0248391D02*
X0336549Y0247591D01*
X0335749Y0247591D01*
X0334948Y0248391D01*
X0334948Y0249993D01*
X0335749Y0250793D01*
X0336549Y0250793D01*
X0337350Y0249993D01*
X0337350Y0248391D01*
X0334948Y0248391D02*
X0334147Y0247591D01*
X0333347Y0247591D01*
X0332546Y0248391D01*
X0332546Y0249993D01*
X0333347Y0250793D01*
X0334147Y0250793D01*
X0334948Y0249993D01*
X0337350Y0245637D02*
X0337350Y0242434D01*
X0337350Y0244035D02*
X0332546Y0244035D01*
X0334147Y0242434D01*
X0327350Y0242434D02*
X0327350Y0245637D01*
X0327350Y0244035D02*
X0322546Y0244035D01*
X0324147Y0242434D01*
X0317350Y0242434D02*
X0317350Y0245637D01*
X0317350Y0244035D02*
X0312546Y0244035D01*
X0314147Y0242434D01*
X0307350Y0242434D02*
X0307350Y0245637D01*
X0307350Y0244035D02*
X0302546Y0244035D01*
X0304147Y0242434D01*
X0297350Y0242434D02*
X0297350Y0245637D01*
X0297350Y0244035D02*
X0292546Y0244035D01*
X0294147Y0242434D01*
X0294948Y0247591D02*
X0294948Y0250793D01*
X0297350Y0249993D02*
X0292546Y0249993D01*
X0294948Y0247591D01*
X0302546Y0247591D02*
X0304948Y0247591D01*
X0304147Y0249192D01*
X0304147Y0249993D01*
X0304948Y0250793D01*
X0306549Y0250793D01*
X0307350Y0249993D01*
X0307350Y0248391D01*
X0306549Y0247591D01*
X0302546Y0247591D02*
X0302546Y0250793D01*
X0312546Y0250793D02*
X0313347Y0249192D01*
X0314948Y0247591D01*
X0314948Y0249993D01*
X0315749Y0250793D01*
X0316549Y0250793D01*
X0317350Y0249993D01*
X0317350Y0248391D01*
X0316549Y0247591D01*
X0314948Y0247591D01*
X0322546Y0247591D02*
X0322546Y0250793D01*
X0323347Y0250793D01*
X0326549Y0247591D01*
X0327350Y0247591D01*
X0281250Y0255034D02*
X0278750Y0252534D01*
X0273750Y0252534D01*
X0271250Y0255034D01*
X0268750Y0252534D01*
X0263750Y0252534D01*
X0261250Y0255034D01*
X0258750Y0252534D01*
X0253750Y0252534D01*
X0251250Y0255034D01*
X0248750Y0252534D01*
X0243750Y0252534D01*
X0241250Y0255034D01*
X0238750Y0252534D01*
X0233750Y0252534D01*
X0231250Y0255034D01*
X0228750Y0252534D01*
X0223750Y0252534D01*
X0221250Y0255034D01*
X0218750Y0252534D01*
X0213750Y0252534D01*
X0211250Y0255034D01*
X0208750Y0252534D01*
X0203750Y0252534D01*
X0201250Y0255034D01*
X0201250Y0260034D01*
X0203750Y0262534D01*
X0208750Y0262534D01*
X0211250Y0260034D01*
X0213750Y0262534D01*
X0218750Y0262534D01*
X0221250Y0260034D01*
X0223750Y0262534D01*
X0228750Y0262534D01*
X0231250Y0260034D01*
X0233750Y0262534D01*
X0238750Y0262534D01*
X0241250Y0260034D01*
X0243750Y0262534D01*
X0248750Y0262534D01*
X0251250Y0260034D01*
X0253750Y0262534D01*
X0258750Y0262534D01*
X0261250Y0260034D01*
X0263750Y0262534D01*
X0268750Y0262534D01*
X0271250Y0260034D01*
X0273750Y0262534D01*
X0278750Y0262534D01*
X0281250Y0260034D01*
X0281250Y0255034D01*
X0276549Y0249137D02*
X0277350Y0248336D01*
X0277350Y0246735D01*
X0276549Y0245934D01*
X0273347Y0249137D01*
X0276549Y0249137D01*
X0273347Y0249137D02*
X0272546Y0248336D01*
X0272546Y0246735D01*
X0273347Y0245934D01*
X0276549Y0245934D01*
X0275750Y0242534D02*
X0275750Y0237534D01*
X0273750Y0239534D01*
X0275750Y0237534D02*
X0277750Y0239534D01*
X0267750Y0240534D02*
X0265750Y0242534D01*
X0263750Y0240534D01*
X0265750Y0242534D02*
X0265750Y0237534D01*
X0267350Y0245934D02*
X0267350Y0249137D01*
X0267350Y0247535D02*
X0262546Y0247535D01*
X0264147Y0245934D01*
X0257350Y0245934D02*
X0254147Y0249137D01*
X0253347Y0249137D01*
X0252546Y0248336D01*
X0252546Y0246735D01*
X0253347Y0245934D01*
X0257350Y0245934D02*
X0257350Y0249137D01*
X0247350Y0248336D02*
X0247350Y0246735D01*
X0246549Y0245934D01*
X0244948Y0247535D02*
X0244948Y0248336D01*
X0245749Y0249137D01*
X0246549Y0249137D01*
X0247350Y0248336D01*
X0244948Y0248336D02*
X0244147Y0249137D01*
X0243347Y0249137D01*
X0242546Y0248336D01*
X0242546Y0246735D01*
X0243347Y0245934D01*
X0237350Y0248336D02*
X0232546Y0248336D01*
X0234948Y0245934D01*
X0234948Y0249137D01*
X0227350Y0248336D02*
X0227350Y0246735D01*
X0226549Y0245934D01*
X0224948Y0245934D02*
X0224147Y0247535D01*
X0224147Y0248336D01*
X0224948Y0249137D01*
X0226549Y0249137D01*
X0227350Y0248336D01*
X0224948Y0245934D02*
X0222546Y0245934D01*
X0222546Y0249137D01*
X0217350Y0248336D02*
X0216549Y0249137D01*
X0215749Y0249137D01*
X0214948Y0248336D01*
X0214948Y0245934D01*
X0216549Y0245934D01*
X0217350Y0246735D01*
X0217350Y0248336D01*
X0214948Y0245934D02*
X0213347Y0247535D01*
X0212546Y0249137D01*
X0207350Y0245934D02*
X0206549Y0245934D01*
X0203347Y0249137D01*
X0202546Y0249137D01*
X0202546Y0245934D01*
X0192350Y0246735D02*
X0191549Y0245934D01*
X0190749Y0245934D01*
X0189948Y0246735D01*
X0189948Y0248336D01*
X0190749Y0249137D01*
X0191549Y0249137D01*
X0192350Y0248336D01*
X0192350Y0246735D01*
X0189948Y0246735D02*
X0189147Y0245934D01*
X0188347Y0245934D01*
X0187546Y0246735D01*
X0187546Y0248336D01*
X0188347Y0249137D01*
X0189147Y0249137D01*
X0189948Y0248336D01*
X0187750Y0252534D02*
X0192750Y0252534D01*
X0195250Y0255034D01*
X0195250Y0260034D01*
X0192750Y0262534D01*
X0187750Y0262534D01*
X0185250Y0260034D01*
X0182750Y0262534D01*
X0177750Y0262534D01*
X0175250Y0260034D01*
X0172750Y0262534D01*
X0167750Y0262534D01*
X0165250Y0260034D01*
X0162750Y0262534D01*
X0157750Y0262534D01*
X0155250Y0260034D01*
X0152750Y0262534D01*
X0147750Y0262534D01*
X0145250Y0260034D01*
X0142750Y0262534D01*
X0137750Y0262534D01*
X0135250Y0260034D01*
X0132750Y0262534D01*
X0127750Y0262534D01*
X0125250Y0260034D01*
X0122750Y0262534D01*
X0117750Y0262534D01*
X0115250Y0260034D01*
X0115250Y0255034D01*
X0117750Y0252534D01*
X0122750Y0252534D01*
X0125250Y0255034D01*
X0127750Y0252534D01*
X0132750Y0252534D01*
X0135250Y0255034D01*
X0137750Y0252534D01*
X0142750Y0252534D01*
X0145250Y0255034D01*
X0147750Y0252534D01*
X0152750Y0252534D01*
X0155250Y0255034D01*
X0157750Y0252534D01*
X0162750Y0252534D01*
X0165250Y0255034D01*
X0167750Y0252534D01*
X0172750Y0252534D01*
X0175250Y0255034D01*
X0177750Y0252534D01*
X0182750Y0252534D01*
X0185250Y0255034D01*
X0187750Y0252534D01*
X0182350Y0248336D02*
X0181549Y0249137D01*
X0178347Y0249137D01*
X0177546Y0248336D01*
X0177546Y0246735D01*
X0178347Y0245934D01*
X0179147Y0245934D01*
X0179948Y0246735D01*
X0179948Y0249137D01*
X0182350Y0248336D02*
X0182350Y0246735D01*
X0181549Y0245934D01*
X0172350Y0246891D02*
X0171549Y0246091D01*
X0168347Y0249293D01*
X0171549Y0249293D01*
X0172350Y0248493D01*
X0172350Y0246891D01*
X0171549Y0246091D02*
X0168347Y0246091D01*
X0167546Y0246891D01*
X0167546Y0248493D01*
X0168347Y0249293D01*
X0172350Y0244137D02*
X0172350Y0240934D01*
X0172350Y0242535D02*
X0167546Y0242535D01*
X0169147Y0240934D01*
X0162350Y0240934D02*
X0162350Y0244137D01*
X0162350Y0242535D02*
X0157546Y0242535D01*
X0159147Y0240934D01*
X0159147Y0246091D02*
X0157546Y0247692D01*
X0162350Y0247692D01*
X0162350Y0246091D02*
X0162350Y0249293D01*
X0152350Y0249293D02*
X0152350Y0246091D01*
X0149147Y0249293D01*
X0148347Y0249293D01*
X0147546Y0248493D01*
X0147546Y0246891D01*
X0148347Y0246091D01*
X0152350Y0244137D02*
X0152350Y0240934D01*
X0152350Y0242535D02*
X0147546Y0242535D01*
X0149147Y0240934D01*
X0142350Y0240934D02*
X0142350Y0244137D01*
X0142350Y0242535D02*
X0137546Y0242535D01*
X0139147Y0240934D01*
X0138347Y0246091D02*
X0137546Y0246891D01*
X0137546Y0248493D01*
X0138347Y0249293D01*
X0139147Y0249293D01*
X0139948Y0248493D01*
X0140749Y0249293D01*
X0141549Y0249293D01*
X0142350Y0248493D01*
X0142350Y0246891D01*
X0141549Y0246091D01*
X0139948Y0247692D02*
X0139948Y0248493D01*
X0132450Y0248180D02*
X0132450Y0245778D01*
X0127646Y0245778D01*
X0127646Y0248180D01*
X0128447Y0248980D01*
X0131649Y0248980D01*
X0132450Y0248180D01*
X0132450Y0243824D02*
X0127646Y0243824D01*
X0127646Y0240621D02*
X0132450Y0243824D01*
X0132450Y0240621D02*
X0127646Y0240621D01*
X0128447Y0238668D02*
X0127646Y0237867D01*
X0127646Y0236266D01*
X0128447Y0235465D01*
X0131649Y0235465D01*
X0132450Y0236266D01*
X0132450Y0237867D01*
X0131649Y0238668D01*
X0130048Y0238668D01*
X0130048Y0237066D01*
X0122950Y0235465D02*
X0118146Y0235465D01*
X0118146Y0237867D01*
X0118947Y0238668D01*
X0120548Y0238668D01*
X0121349Y0237867D01*
X0121349Y0235465D01*
X0121349Y0237066D02*
X0122950Y0238668D01*
X0122950Y0240621D02*
X0118146Y0240621D01*
X0118146Y0243824D01*
X0118146Y0245778D02*
X0118146Y0248980D01*
X0120548Y0247379D02*
X0120548Y0245778D01*
X0122950Y0245778D02*
X0118146Y0245778D01*
X0120548Y0242223D02*
X0120548Y0240621D01*
X0122950Y0240621D02*
X0122950Y0243824D01*
X0122950Y0233511D02*
X0119747Y0233511D01*
X0118146Y0231910D01*
X0119747Y0230308D01*
X0122950Y0230308D01*
X0120548Y0230308D02*
X0120548Y0233511D01*
X0224847Y0084393D02*
X0224046Y0083593D01*
X0224046Y0081991D01*
X0224847Y0081191D01*
X0228049Y0081191D01*
X0224847Y0084393D01*
X0228049Y0084393D01*
X0228850Y0083593D01*
X0228850Y0081991D01*
X0228049Y0081191D01*
X0228850Y0079237D02*
X0225647Y0079237D01*
X0224046Y0077635D01*
X0225647Y0076034D01*
X0228850Y0076034D01*
X0226448Y0076034D02*
X0226448Y0079237D01*
X0233046Y0077635D02*
X0234647Y0079237D01*
X0237850Y0079237D01*
X0237850Y0081191D02*
X0237850Y0084393D01*
X0237850Y0082792D02*
X0233046Y0082792D01*
X0234647Y0081191D01*
X0235448Y0079237D02*
X0235448Y0076034D01*
X0234647Y0076034D02*
X0233046Y0077635D01*
X0234647Y0076034D02*
X0237850Y0076034D01*
X0238750Y0072534D02*
X0233750Y0072534D01*
X0231250Y0070034D01*
X0228750Y0072534D01*
X0223750Y0072534D01*
X0221250Y0070034D01*
X0221250Y0065034D01*
X0223750Y0062534D01*
X0228750Y0062534D01*
X0231250Y0065034D01*
X0233750Y0062534D01*
X0238750Y0062534D01*
X0241250Y0065034D01*
X0243750Y0062534D01*
X0248750Y0062534D01*
X0251250Y0065034D01*
X0253750Y0062534D01*
X0258750Y0062534D01*
X0261250Y0065034D01*
X0263750Y0062534D01*
X0268750Y0062534D01*
X0271250Y0065034D01*
X0273750Y0062534D01*
X0278750Y0062534D01*
X0281250Y0065034D01*
X0283750Y0062534D01*
X0288750Y0062534D01*
X0291250Y0065034D01*
X0293750Y0062534D01*
X0298750Y0062534D01*
X0301250Y0065034D01*
X0301250Y0070034D01*
X0298750Y0072534D01*
X0293750Y0072534D01*
X0291250Y0070034D01*
X0288750Y0072534D01*
X0283750Y0072534D01*
X0281250Y0070034D01*
X0278750Y0072534D01*
X0273750Y0072534D01*
X0271250Y0070034D01*
X0268750Y0072534D01*
X0263750Y0072534D01*
X0261250Y0070034D01*
X0258750Y0072534D01*
X0253750Y0072534D01*
X0251250Y0070034D01*
X0248750Y0072534D01*
X0243750Y0072534D01*
X0241250Y0070034D01*
X0238750Y0072534D01*
X0244046Y0077635D02*
X0245647Y0079237D01*
X0248850Y0079237D01*
X0248850Y0081191D02*
X0245647Y0084393D01*
X0244847Y0084393D01*
X0244046Y0083593D01*
X0244046Y0081991D01*
X0244847Y0081191D01*
X0246448Y0079237D02*
X0246448Y0076034D01*
X0245647Y0076034D02*
X0244046Y0077635D01*
X0245647Y0076034D02*
X0248850Y0076034D01*
X0254046Y0077635D02*
X0255647Y0079237D01*
X0258850Y0079237D01*
X0258049Y0081191D02*
X0258850Y0081991D01*
X0258850Y0083593D01*
X0258049Y0084393D01*
X0257249Y0084393D01*
X0256448Y0083593D01*
X0256448Y0082792D01*
X0256448Y0083593D02*
X0255647Y0084393D01*
X0254847Y0084393D01*
X0254046Y0083593D01*
X0254046Y0081991D01*
X0254847Y0081191D01*
X0256448Y0079237D02*
X0256448Y0076034D01*
X0255647Y0076034D02*
X0254046Y0077635D01*
X0255647Y0076034D02*
X0258850Y0076034D01*
X0264046Y0077635D02*
X0265647Y0079237D01*
X0268850Y0079237D01*
X0266448Y0079237D02*
X0266448Y0076034D01*
X0265647Y0076034D02*
X0264046Y0077635D01*
X0265647Y0076034D02*
X0268850Y0076034D01*
X0273546Y0077635D02*
X0275147Y0079237D01*
X0278350Y0079237D01*
X0277549Y0081191D02*
X0278350Y0081991D01*
X0278350Y0083593D01*
X0277549Y0084393D01*
X0275948Y0084393D01*
X0275147Y0083593D01*
X0275147Y0082792D01*
X0275948Y0081191D01*
X0273546Y0081191D01*
X0273546Y0084393D01*
X0268850Y0083593D02*
X0264046Y0083593D01*
X0266448Y0081191D01*
X0266448Y0084393D01*
X0273546Y0077635D02*
X0275147Y0076034D01*
X0278350Y0076034D01*
X0275948Y0076034D02*
X0275948Y0079237D01*
X0283546Y0079237D02*
X0284347Y0077635D01*
X0285948Y0076034D01*
X0285948Y0078436D01*
X0286749Y0079237D01*
X0287549Y0079237D01*
X0288350Y0078436D01*
X0288350Y0076835D01*
X0287549Y0076034D01*
X0285948Y0076034D01*
X0294046Y0077635D02*
X0295647Y0076034D01*
X0298850Y0076034D01*
X0296448Y0076034D02*
X0296448Y0079237D01*
X0295647Y0079237D02*
X0298850Y0079237D01*
X0298850Y0081191D02*
X0298049Y0081191D01*
X0294847Y0084393D01*
X0294046Y0084393D01*
X0294046Y0081191D01*
X0295647Y0079237D02*
X0294046Y0077635D01*
X0314046Y0077635D02*
X0315647Y0079237D01*
X0318850Y0079237D01*
X0318049Y0081191D02*
X0317249Y0081191D01*
X0316448Y0081991D01*
X0316448Y0083593D01*
X0317249Y0084393D01*
X0318049Y0084393D01*
X0318850Y0083593D01*
X0318850Y0081991D01*
X0318049Y0081191D01*
X0316448Y0081991D02*
X0315647Y0081191D01*
X0314847Y0081191D01*
X0314046Y0081991D01*
X0314046Y0083593D01*
X0314847Y0084393D01*
X0315647Y0084393D01*
X0316448Y0083593D01*
X0316448Y0079237D02*
X0316448Y0076034D01*
X0315647Y0076034D02*
X0314046Y0077635D01*
X0315647Y0076034D02*
X0318850Y0076034D01*
X0326448Y0076034D02*
X0326448Y0079237D01*
X0248850Y0081191D02*
X0248850Y0084393D01*
X0211250Y0070034D02*
X0211250Y0065034D01*
X0208750Y0062534D01*
X0203750Y0062534D01*
X0201250Y0065034D01*
X0198750Y0062534D01*
X0193750Y0062534D01*
X0191250Y0065034D01*
X0188750Y0062534D01*
X0183750Y0062534D01*
X0181250Y0065034D01*
X0178750Y0062534D01*
X0173750Y0062534D01*
X0171250Y0065034D01*
X0168750Y0062534D01*
X0163750Y0062534D01*
X0161250Y0065034D01*
X0158750Y0062534D01*
X0153750Y0062534D01*
X0151250Y0065034D01*
X0151250Y0070034D01*
X0153750Y0072534D01*
X0158750Y0072534D01*
X0161250Y0070034D01*
X0163750Y0072534D01*
X0168750Y0072534D01*
X0171250Y0070034D01*
X0173750Y0072534D01*
X0178750Y0072534D01*
X0181250Y0070034D01*
X0183750Y0072534D01*
X0188750Y0072534D01*
X0191250Y0070034D01*
X0193750Y0072534D01*
X0198750Y0072534D01*
X0201250Y0070034D01*
X0203750Y0072534D01*
X0208750Y0072534D01*
X0211250Y0070034D01*
X0421708Y0147436D02*
X0422509Y0148237D01*
X0422509Y0149038D01*
X0421708Y0149838D01*
D14*
X0411250Y0150034D02*
X0411250Y0145034D01*
X0408750Y0142534D01*
X0393750Y0142534D01*
X0391250Y0145034D01*
X0391250Y0150034D01*
X0393750Y0152534D01*
X0408750Y0152534D01*
X0411250Y0155034D01*
X0411250Y0160034D01*
X0408750Y0162534D01*
X0393750Y0162534D01*
X0391250Y0165034D01*
X0391250Y0170034D01*
X0393750Y0172534D01*
X0408750Y0172534D01*
X0411250Y0170034D01*
X0411250Y0165034D01*
X0408750Y0162534D01*
X0408750Y0152534D02*
X0411250Y0150034D01*
X0408750Y0142534D02*
X0411250Y0140034D01*
X0411250Y0135034D01*
X0408750Y0132534D01*
X0393750Y0132534D01*
X0391250Y0135034D01*
X0391250Y0140034D01*
X0393750Y0142534D01*
X0393750Y0132534D02*
X0391250Y0130034D01*
X0391250Y0125034D01*
X0393750Y0122534D01*
X0408750Y0122534D01*
X0411250Y0125034D01*
X0411250Y0130034D01*
X0408750Y0132534D01*
X0408750Y0122534D02*
X0411250Y0120034D01*
X0411250Y0115034D01*
X0408750Y0112534D01*
X0393750Y0112534D01*
X0391250Y0115034D01*
X0391250Y0120034D01*
X0393750Y0122534D01*
X0393750Y0112534D02*
X0391250Y0110034D01*
X0391250Y0105034D01*
X0393750Y0102534D01*
X0408750Y0102534D01*
X0411250Y0105034D01*
X0411250Y0110034D01*
X0408750Y0112534D01*
X0408750Y0102534D02*
X0411250Y0100034D01*
X0411250Y0095034D01*
X0408750Y0092534D01*
X0414050Y0087770D02*
X0414050Y0085501D01*
X0414617Y0084934D01*
X0415751Y0084934D01*
X0416319Y0085501D01*
X0416319Y0086636D01*
X0415184Y0086636D01*
X0414050Y0087770D02*
X0414617Y0088337D01*
X0415751Y0088337D01*
X0416319Y0087770D01*
X0417733Y0088337D02*
X0420002Y0084934D01*
X0420002Y0088337D01*
X0421416Y0088337D02*
X0421416Y0084934D01*
X0423118Y0084934D01*
X0423685Y0085501D01*
X0423685Y0087770D01*
X0423118Y0088337D01*
X0421416Y0088337D01*
X0417733Y0088337D02*
X0417733Y0084934D01*
X0393750Y0092534D02*
X0391250Y0095034D01*
X0391250Y0100034D01*
X0393750Y0102534D01*
X0393750Y0152534D02*
X0391250Y0155034D01*
X0391250Y0160034D01*
X0393750Y0162534D01*
X0393750Y0172534D02*
X0391250Y0175034D01*
X0391250Y0180034D01*
X0393750Y0182534D01*
X0408750Y0182534D01*
X0411250Y0185034D01*
X0411250Y0190034D01*
X0408750Y0192534D01*
X0393750Y0192534D01*
X0391250Y0195034D01*
X0391250Y0200034D01*
X0393750Y0202534D01*
X0408750Y0202534D01*
X0411250Y0205034D01*
X0411250Y0210034D01*
X0408750Y0212534D01*
X0393750Y0212534D01*
X0391250Y0215034D01*
X0391250Y0220034D01*
X0393750Y0222534D01*
X0408750Y0222534D01*
X0411250Y0225034D01*
X0411250Y0230034D01*
X0408750Y0232534D01*
X0393750Y0232534D01*
X0391250Y0235034D01*
X0391250Y0240034D01*
X0393750Y0242534D01*
X0408750Y0242534D01*
X0411250Y0240034D01*
X0411250Y0235034D01*
X0408750Y0232534D01*
X0408750Y0222534D02*
X0411250Y0220034D01*
X0411250Y0215034D01*
X0408750Y0212534D01*
X0408750Y0202534D02*
X0411250Y0200034D01*
X0411250Y0195034D01*
X0408750Y0192534D01*
X0408750Y0182534D02*
X0411250Y0180034D01*
X0411250Y0175034D01*
X0408750Y0172534D01*
X0393750Y0182534D02*
X0391250Y0185034D01*
X0391250Y0190034D01*
X0393750Y0192534D01*
X0393750Y0202534D02*
X0391250Y0205034D01*
X0391250Y0210034D01*
X0393750Y0212534D01*
X0393750Y0222534D02*
X0391250Y0225034D01*
X0391250Y0230034D01*
X0393750Y0232534D01*
X0393750Y0242534D02*
X0391250Y0245034D01*
X0391250Y0250034D01*
X0393750Y0252534D01*
X0408750Y0252534D02*
X0411250Y0250034D01*
X0411250Y0245034D01*
X0408750Y0242534D01*
X0367450Y0235469D02*
X0367450Y0233200D01*
X0364047Y0233200D01*
X0364614Y0231786D02*
X0364047Y0231219D01*
X0364047Y0230084D01*
X0364614Y0229517D01*
X0366883Y0229517D01*
X0367450Y0230084D01*
X0367450Y0231219D01*
X0366883Y0231786D01*
X0366883Y0228103D02*
X0367450Y0227536D01*
X0367450Y0226401D01*
X0366883Y0225834D01*
X0365749Y0226401D02*
X0365181Y0225834D01*
X0364614Y0225834D01*
X0364047Y0226401D01*
X0364047Y0227536D01*
X0364614Y0228103D01*
X0365749Y0227536D02*
X0366316Y0228103D01*
X0366883Y0228103D01*
X0365749Y0227536D02*
X0365749Y0226401D01*
X0357450Y0226401D02*
X0356883Y0225834D01*
X0357450Y0226401D02*
X0357450Y0227536D01*
X0356883Y0228103D01*
X0356316Y0228103D01*
X0355749Y0227536D01*
X0355749Y0226401D01*
X0355181Y0225834D01*
X0354614Y0225834D01*
X0354047Y0226401D01*
X0354047Y0227536D01*
X0354614Y0228103D01*
X0354047Y0229517D02*
X0354047Y0231219D01*
X0354614Y0231786D01*
X0356883Y0231786D01*
X0357450Y0231219D01*
X0357450Y0229517D01*
X0354047Y0229517D01*
X0355181Y0233200D02*
X0354047Y0234335D01*
X0355181Y0235469D01*
X0357450Y0235469D01*
X0355749Y0235469D02*
X0355749Y0233200D01*
X0355181Y0233200D02*
X0357450Y0233200D01*
X0347450Y0233200D02*
X0347450Y0235469D01*
X0347450Y0234335D02*
X0344047Y0234335D01*
X0345181Y0233200D01*
X0344047Y0231786D02*
X0347450Y0229517D01*
X0347450Y0228103D02*
X0346316Y0226968D01*
X0346316Y0227536D02*
X0346316Y0225834D01*
X0347450Y0225834D02*
X0344047Y0225834D01*
X0344047Y0227536D01*
X0344614Y0228103D01*
X0345749Y0228103D01*
X0346316Y0227536D01*
X0344047Y0229517D02*
X0347450Y0231786D01*
X0337450Y0231786D02*
X0334047Y0229517D01*
X0334047Y0228103D02*
X0334047Y0225834D01*
X0334047Y0226968D02*
X0337450Y0226968D01*
X0337450Y0229517D02*
X0334047Y0231786D01*
X0335181Y0233200D02*
X0334047Y0234335D01*
X0337450Y0234335D01*
X0337450Y0235469D02*
X0337450Y0233200D01*
X0327450Y0233200D02*
X0325181Y0235469D01*
X0324614Y0235469D01*
X0324047Y0234902D01*
X0324047Y0233768D01*
X0324614Y0233200D01*
X0324047Y0231786D02*
X0327450Y0229517D01*
X0327450Y0228103D02*
X0326316Y0226968D01*
X0326316Y0227536D02*
X0326316Y0225834D01*
X0327450Y0225834D02*
X0324047Y0225834D01*
X0324047Y0227536D01*
X0324614Y0228103D01*
X0325749Y0228103D01*
X0326316Y0227536D01*
X0324047Y0229517D02*
X0327450Y0231786D01*
X0327450Y0233200D02*
X0327450Y0235469D01*
X0317450Y0235469D02*
X0317450Y0233200D01*
X0315181Y0235469D01*
X0314614Y0235469D01*
X0314047Y0234902D01*
X0314047Y0233768D01*
X0314614Y0233200D01*
X0314047Y0231786D02*
X0317450Y0229517D01*
X0317450Y0231786D02*
X0314047Y0229517D01*
X0314047Y0228103D02*
X0314047Y0225834D01*
X0314047Y0226968D02*
X0317450Y0226968D01*
X0307450Y0225834D02*
X0304047Y0225834D01*
X0304047Y0227536D01*
X0304614Y0228103D01*
X0305749Y0228103D01*
X0306316Y0227536D01*
X0306316Y0225834D01*
X0306316Y0226968D02*
X0307450Y0228103D01*
X0307450Y0229517D02*
X0304047Y0231786D01*
X0304614Y0233200D02*
X0304047Y0233768D01*
X0304047Y0234902D01*
X0304614Y0235469D01*
X0305181Y0235469D01*
X0305749Y0234902D01*
X0306316Y0235469D01*
X0306883Y0235469D01*
X0307450Y0234902D01*
X0307450Y0233768D01*
X0306883Y0233200D01*
X0307450Y0231786D02*
X0304047Y0229517D01*
X0305749Y0234335D02*
X0305749Y0234902D01*
X0297450Y0234902D02*
X0297450Y0233768D01*
X0296883Y0233200D01*
X0297450Y0231786D02*
X0294047Y0229517D01*
X0294047Y0228103D02*
X0294047Y0225834D01*
X0294047Y0226968D02*
X0297450Y0226968D01*
X0297450Y0229517D02*
X0294047Y0231786D01*
X0294614Y0233200D02*
X0294047Y0233768D01*
X0294047Y0234902D01*
X0294614Y0235469D01*
X0295181Y0235469D01*
X0295749Y0234902D01*
X0296316Y0235469D01*
X0296883Y0235469D01*
X0297450Y0234902D01*
X0295749Y0234902D02*
X0295749Y0234335D01*
X0277450Y0234902D02*
X0277450Y0233768D01*
X0276883Y0233200D01*
X0274614Y0235469D01*
X0276883Y0235469D01*
X0277450Y0234902D01*
X0276883Y0233200D02*
X0274614Y0233200D01*
X0274047Y0233768D01*
X0274047Y0234902D01*
X0274614Y0235469D01*
X0274047Y0231786D02*
X0277450Y0229517D01*
X0277450Y0228103D02*
X0276316Y0226968D01*
X0276316Y0227536D02*
X0276316Y0225834D01*
X0277450Y0225834D02*
X0274047Y0225834D01*
X0274047Y0227536D01*
X0274614Y0228103D01*
X0275749Y0228103D01*
X0276316Y0227536D01*
X0274047Y0229517D02*
X0277450Y0231786D01*
X0267450Y0231786D02*
X0264047Y0229517D01*
X0264047Y0228103D02*
X0264047Y0225834D01*
X0264047Y0226968D02*
X0267450Y0226968D01*
X0267450Y0229517D02*
X0264047Y0231786D01*
X0264614Y0233200D02*
X0264047Y0233768D01*
X0264047Y0234902D01*
X0264614Y0235469D01*
X0266883Y0233200D01*
X0267450Y0233768D01*
X0267450Y0234902D01*
X0266883Y0235469D01*
X0264614Y0235469D01*
X0264614Y0233200D02*
X0266883Y0233200D01*
X0154644Y0272211D02*
X0154644Y0272219D01*
X0154644Y0272211D02*
X0107069Y0272211D01*
X0107069Y0289719D01*
X0107069Y0298219D02*
X0107069Y0318369D01*
X0118856Y0318369D01*
X0142856Y0318369D01*
X0154644Y0318369D01*
X0154644Y0279719D01*
X0142856Y0318369D02*
X0142856Y0329188D01*
X0118856Y0329188D01*
X0120856Y0331188D01*
X0140856Y0331188D01*
X0142856Y0329188D01*
X0118856Y0329188D02*
X0118856Y0318369D01*
X0128250Y0127534D02*
X0134250Y0127534D01*
X0134310Y0127532D01*
X0134371Y0127527D01*
X0134430Y0127518D01*
X0134489Y0127505D01*
X0134548Y0127489D01*
X0134605Y0127469D01*
X0134660Y0127446D01*
X0134715Y0127419D01*
X0134767Y0127390D01*
X0134818Y0127357D01*
X0134867Y0127321D01*
X0134913Y0127283D01*
X0134957Y0127241D01*
X0134999Y0127197D01*
X0135037Y0127151D01*
X0135073Y0127102D01*
X0135106Y0127051D01*
X0135135Y0126999D01*
X0135162Y0126944D01*
X0135185Y0126889D01*
X0135205Y0126832D01*
X0135221Y0126773D01*
X0135234Y0126714D01*
X0135243Y0126655D01*
X0135248Y0126594D01*
X0135250Y0126534D01*
X0135250Y0125034D01*
X0134750Y0124534D01*
X0134750Y0110534D01*
X0135250Y0110034D01*
X0135250Y0108534D01*
X0135248Y0108474D01*
X0135243Y0108413D01*
X0135234Y0108354D01*
X0135221Y0108295D01*
X0135205Y0108236D01*
X0135185Y0108179D01*
X0135162Y0108124D01*
X0135135Y0108069D01*
X0135106Y0108017D01*
X0135073Y0107966D01*
X0135037Y0107917D01*
X0134999Y0107871D01*
X0134957Y0107827D01*
X0134913Y0107785D01*
X0134867Y0107747D01*
X0134818Y0107711D01*
X0134767Y0107678D01*
X0134715Y0107649D01*
X0134660Y0107622D01*
X0134605Y0107599D01*
X0134548Y0107579D01*
X0134489Y0107563D01*
X0134430Y0107550D01*
X0134371Y0107541D01*
X0134310Y0107536D01*
X0134250Y0107534D01*
X0128250Y0107534D01*
X0128190Y0107536D01*
X0128129Y0107541D01*
X0128070Y0107550D01*
X0128011Y0107563D01*
X0127952Y0107579D01*
X0127895Y0107599D01*
X0127840Y0107622D01*
X0127785Y0107649D01*
X0127733Y0107678D01*
X0127682Y0107711D01*
X0127633Y0107747D01*
X0127587Y0107785D01*
X0127543Y0107827D01*
X0127501Y0107871D01*
X0127463Y0107917D01*
X0127427Y0107966D01*
X0127394Y0108017D01*
X0127365Y0108069D01*
X0127338Y0108124D01*
X0127315Y0108179D01*
X0127295Y0108236D01*
X0127279Y0108295D01*
X0127266Y0108354D01*
X0127257Y0108413D01*
X0127252Y0108474D01*
X0127250Y0108534D01*
X0127250Y0110034D01*
X0127750Y0110534D01*
X0127750Y0124534D01*
X0127250Y0125034D01*
X0127250Y0126534D01*
X0127252Y0126594D01*
X0127257Y0126655D01*
X0127266Y0126714D01*
X0127279Y0126773D01*
X0127295Y0126832D01*
X0127315Y0126889D01*
X0127338Y0126944D01*
X0127365Y0126999D01*
X0127394Y0127051D01*
X0127427Y0127102D01*
X0127463Y0127151D01*
X0127501Y0127197D01*
X0127543Y0127241D01*
X0127587Y0127283D01*
X0127633Y0127321D01*
X0127682Y0127357D01*
X0127733Y0127390D01*
X0127785Y0127419D01*
X0127840Y0127446D01*
X0127895Y0127469D01*
X0127952Y0127489D01*
X0128011Y0127505D01*
X0128070Y0127518D01*
X0128129Y0127527D01*
X0128190Y0127532D01*
X0128250Y0127534D01*
X0154547Y0092935D02*
X0154547Y0090667D01*
X0154547Y0091801D02*
X0157950Y0091801D01*
X0157950Y0089252D02*
X0157950Y0086984D01*
X0154547Y0086984D01*
X0154547Y0089252D01*
X0156249Y0088118D02*
X0156249Y0086984D01*
X0156816Y0085569D02*
X0157383Y0085569D01*
X0157950Y0085002D01*
X0157950Y0083868D01*
X0157383Y0083300D01*
X0156249Y0083868D02*
X0156249Y0085002D01*
X0156816Y0085569D01*
X0155114Y0085569D02*
X0154547Y0085002D01*
X0154547Y0083868D01*
X0155114Y0083300D01*
X0155681Y0083300D01*
X0156249Y0083868D01*
X0157950Y0081886D02*
X0157950Y0079617D01*
X0154547Y0079617D01*
X0154547Y0081886D01*
X0156249Y0080752D02*
X0156249Y0079617D01*
X0156249Y0078203D02*
X0156816Y0077636D01*
X0156816Y0075934D01*
X0157950Y0075934D02*
X0154547Y0075934D01*
X0154547Y0077636D01*
X0155114Y0078203D01*
X0156249Y0078203D01*
X0156816Y0077068D02*
X0157950Y0078203D01*
X0164547Y0078203D02*
X0164547Y0075934D01*
X0166249Y0075934D01*
X0165681Y0077068D01*
X0165681Y0077636D01*
X0166249Y0078203D01*
X0167383Y0078203D01*
X0167950Y0077636D01*
X0167950Y0076501D01*
X0167383Y0075934D01*
X0166816Y0079617D02*
X0167950Y0080752D01*
X0166816Y0081886D01*
X0164547Y0081886D01*
X0164547Y0079617D02*
X0166816Y0079617D01*
X0174547Y0079617D02*
X0176816Y0079617D01*
X0177950Y0080752D01*
X0176816Y0081886D01*
X0174547Y0081886D01*
X0174547Y0078203D02*
X0174547Y0075934D01*
X0176249Y0075934D01*
X0175681Y0077068D01*
X0175681Y0077636D01*
X0176249Y0078203D01*
X0177383Y0078203D01*
X0177950Y0077636D01*
X0177950Y0076501D01*
X0177383Y0075934D01*
X0184547Y0076501D02*
X0185114Y0075934D01*
X0187383Y0075934D01*
X0187950Y0076501D01*
X0187950Y0077636D01*
X0187383Y0078203D01*
X0186249Y0078203D01*
X0186249Y0077068D01*
X0185114Y0078203D02*
X0184547Y0077636D01*
X0184547Y0076501D01*
X0184547Y0079617D02*
X0187950Y0081886D01*
X0184547Y0081886D01*
X0184547Y0083300D02*
X0184547Y0085002D01*
X0185114Y0085569D01*
X0187383Y0085569D01*
X0187950Y0085002D01*
X0187950Y0083300D01*
X0184547Y0083300D01*
X0184547Y0079617D02*
X0187950Y0079617D01*
X0194547Y0079617D02*
X0197950Y0081886D01*
X0194547Y0081886D01*
X0194547Y0083300D02*
X0194547Y0085002D01*
X0195114Y0085569D01*
X0197383Y0085569D01*
X0197950Y0085002D01*
X0197950Y0083300D01*
X0194547Y0083300D01*
X0194547Y0079617D02*
X0197950Y0079617D01*
X0197383Y0078203D02*
X0196249Y0078203D01*
X0196249Y0077068D01*
X0197383Y0075934D02*
X0197950Y0076501D01*
X0197950Y0077636D01*
X0197383Y0078203D01*
X0195114Y0078203D02*
X0194547Y0077636D01*
X0194547Y0076501D01*
X0195114Y0075934D01*
X0197383Y0075934D01*
X0204547Y0075934D02*
X0206816Y0075934D01*
X0207950Y0077068D01*
X0206816Y0078203D01*
X0204547Y0078203D01*
X0205681Y0079617D02*
X0205681Y0080184D01*
X0207950Y0080184D01*
X0207950Y0079617D02*
X0207950Y0080752D01*
X0207950Y0082073D02*
X0205681Y0082073D01*
X0205681Y0083774D01*
X0206249Y0084341D01*
X0207950Y0084341D01*
X0204547Y0080184D02*
X0203980Y0080184D01*
D15*
X0209750Y0099134D02*
X0152750Y0099134D01*
X0222750Y0099134D02*
X0365750Y0099134D01*
X0372450Y0092434D01*
X0423150Y0092434D01*
X0423050Y0082534D02*
X0411250Y0082534D01*
X0406250Y0082334D02*
X0406250Y0079334D01*
X0396250Y0079334D01*
X0396250Y0082234D01*
X0365850Y0102534D02*
X0365850Y0213234D01*
X0373850Y0221234D01*
X0373850Y0249034D01*
X0393250Y0265334D02*
X0396250Y0265334D01*
X0406250Y0265334D01*
X0406250Y0262734D01*
X0396250Y0262834D02*
X0396250Y0265334D01*
X0362750Y0214034D02*
X0262250Y0214034D01*
X0260250Y0227034D02*
X0136750Y0227034D01*
D16*
X0141700Y0230484D02*
X0141700Y0235588D01*
X0144252Y0235588D01*
X0145103Y0234738D01*
X0145103Y0233036D01*
X0144252Y0232186D01*
X0141700Y0232186D01*
X0147225Y0230484D02*
X0147225Y0235588D01*
X0150628Y0235588D02*
X0150628Y0230484D01*
X0148926Y0232186D01*
X0147225Y0230484D01*
X0152749Y0230484D02*
X0152749Y0235588D01*
X0154451Y0233887D01*
X0156152Y0235588D01*
X0156152Y0230484D01*
X0264700Y0220738D02*
X0264700Y0217335D01*
X0265551Y0216484D01*
X0267252Y0216484D01*
X0268103Y0217335D01*
X0270225Y0217335D02*
X0271075Y0216484D01*
X0272777Y0216484D01*
X0273628Y0217335D01*
X0273628Y0220738D01*
X0272777Y0221588D01*
X0271075Y0221588D01*
X0270225Y0220738D01*
X0270225Y0217335D01*
X0268103Y0220738D02*
X0267252Y0221588D01*
X0265551Y0221588D01*
X0264700Y0220738D01*
X0275749Y0221588D02*
X0275749Y0216484D01*
X0279152Y0216484D02*
X0279152Y0221588D01*
X0277451Y0219887D01*
X0275749Y0221588D01*
X0281274Y0221588D02*
X0281274Y0216484D01*
X0284677Y0216484D02*
X0284677Y0221588D01*
X0282976Y0219887D01*
X0281274Y0221588D01*
X0286799Y0221588D02*
X0286799Y0217335D01*
X0287650Y0216484D01*
X0289351Y0216484D01*
X0290202Y0217335D01*
X0290202Y0221588D01*
X0292324Y0221588D02*
X0295726Y0216484D01*
X0295726Y0221588D01*
X0297848Y0221588D02*
X0299550Y0221588D01*
X0298699Y0221588D02*
X0298699Y0216484D01*
X0297848Y0216484D02*
X0299550Y0216484D01*
X0301531Y0217335D02*
X0301531Y0220738D01*
X0302382Y0221588D01*
X0304084Y0221588D01*
X0304934Y0220738D01*
X0307056Y0219887D02*
X0307056Y0216484D01*
X0304934Y0217335D02*
X0304084Y0216484D01*
X0302382Y0216484D01*
X0301531Y0217335D01*
X0307056Y0219036D02*
X0310459Y0219036D01*
X0310459Y0219887D02*
X0310459Y0216484D01*
X0310459Y0219887D02*
X0308758Y0221588D01*
X0307056Y0219887D01*
X0312581Y0221588D02*
X0315984Y0221588D01*
X0314282Y0221588D02*
X0314282Y0216484D01*
X0318106Y0216484D02*
X0319807Y0216484D01*
X0318956Y0216484D02*
X0318956Y0221588D01*
X0318106Y0221588D02*
X0319807Y0221588D01*
X0321789Y0220738D02*
X0321789Y0217335D01*
X0322639Y0216484D01*
X0324341Y0216484D01*
X0325192Y0217335D01*
X0325192Y0220738D01*
X0324341Y0221588D01*
X0322639Y0221588D01*
X0321789Y0220738D01*
X0327313Y0221588D02*
X0327313Y0216484D01*
X0330716Y0216484D02*
X0327313Y0221588D01*
X0330716Y0221588D02*
X0330716Y0216484D01*
X0292324Y0216484D02*
X0292324Y0221588D01*
X0374300Y0136852D02*
X0374300Y0133449D01*
X0369196Y0133449D01*
X0370897Y0131327D02*
X0374300Y0131327D01*
X0371748Y0131327D02*
X0371748Y0127925D01*
X0370897Y0127925D02*
X0369196Y0129626D01*
X0370897Y0131327D01*
X0370897Y0127925D02*
X0374300Y0127925D01*
X0374300Y0124101D02*
X0369196Y0124101D01*
X0369196Y0122400D02*
X0369196Y0125803D01*
X0369196Y0120418D02*
X0369196Y0118717D01*
X0369196Y0119567D02*
X0374300Y0119567D01*
X0374300Y0118717D02*
X0374300Y0120418D01*
X0373449Y0116595D02*
X0371748Y0116595D01*
X0371748Y0114893D01*
X0373449Y0113192D02*
X0370046Y0113192D01*
X0369196Y0114043D01*
X0369196Y0115744D01*
X0370046Y0116595D01*
X0373449Y0116595D02*
X0374300Y0115744D01*
X0374300Y0114043D01*
X0373449Y0113192D01*
X0374300Y0111210D02*
X0374300Y0109509D01*
X0374300Y0110360D02*
X0369196Y0110360D01*
X0369196Y0111210D02*
X0369196Y0109509D01*
X0370046Y0107387D02*
X0369196Y0106536D01*
X0369196Y0103984D01*
X0374300Y0103984D01*
X0374300Y0106536D01*
X0373449Y0107387D01*
X0370046Y0107387D01*
X0273459Y0095088D02*
X0273459Y0089984D01*
X0270056Y0095088D01*
X0270056Y0089984D01*
X0268074Y0089984D02*
X0266373Y0089984D01*
X0267224Y0089984D02*
X0267224Y0095088D01*
X0268074Y0095088D02*
X0266373Y0095088D01*
X0258726Y0094238D02*
X0257876Y0095088D01*
X0256174Y0095088D01*
X0255324Y0094238D01*
X0255324Y0090835D01*
X0256174Y0089984D01*
X0257876Y0089984D01*
X0258726Y0090835D01*
X0258726Y0092536D01*
X0257025Y0092536D01*
X0253202Y0090835D02*
X0253202Y0094238D01*
X0252351Y0095088D01*
X0250650Y0095088D01*
X0249799Y0094238D01*
X0249799Y0090835D01*
X0250650Y0089984D01*
X0252351Y0089984D01*
X0253202Y0090835D01*
X0247677Y0089984D02*
X0244274Y0089984D01*
X0244274Y0095088D01*
X0242152Y0093387D02*
X0242152Y0089984D01*
X0242152Y0092536D02*
X0238749Y0092536D01*
X0238749Y0093387D02*
X0238749Y0089984D01*
X0236628Y0089984D02*
X0236628Y0095088D01*
X0238749Y0093387D02*
X0240451Y0095088D01*
X0242152Y0093387D01*
X0236628Y0089984D02*
X0233225Y0095088D01*
X0233225Y0089984D01*
X0231103Y0089984D02*
X0231103Y0093387D01*
X0229401Y0095088D01*
X0227700Y0093387D01*
X0227700Y0089984D01*
X0227700Y0092536D02*
X0231103Y0092536D01*
X0208202Y0092536D02*
X0207351Y0091686D01*
X0204799Y0091686D01*
X0206500Y0091686D02*
X0208202Y0089984D01*
X0208202Y0092536D02*
X0208202Y0094238D01*
X0207351Y0095088D01*
X0204799Y0095088D01*
X0204799Y0089984D01*
X0202677Y0089984D02*
X0199274Y0089984D01*
X0199274Y0095088D01*
X0202677Y0095088D01*
X0200976Y0092536D02*
X0199274Y0092536D01*
X0197152Y0089984D02*
X0197152Y0095088D01*
X0193749Y0095088D02*
X0193749Y0089984D01*
X0195451Y0091686D01*
X0197152Y0089984D01*
X0191628Y0090835D02*
X0191628Y0094238D01*
X0190777Y0095088D01*
X0189075Y0095088D01*
X0188225Y0094238D01*
X0188225Y0090835D01*
X0189075Y0089984D01*
X0190777Y0089984D01*
X0191628Y0090835D01*
X0186103Y0092536D02*
X0185252Y0091686D01*
X0182700Y0091686D01*
X0182700Y0089984D02*
X0182700Y0095088D01*
X0185252Y0095088D01*
X0186103Y0094238D01*
X0186103Y0092536D01*
D17*
X0386500Y0263285D02*
X0387000Y0262784D01*
X0388001Y0262784D01*
X0388502Y0263285D01*
X0388502Y0264285D01*
X0388001Y0264786D01*
X0387501Y0264786D01*
X0386500Y0264285D01*
X0386500Y0265787D01*
X0388502Y0265787D01*
X0389723Y0265787D02*
X0389723Y0263785D01*
X0390724Y0262784D01*
X0391724Y0263785D01*
X0391724Y0265787D01*
X0227768Y0272784D02*
X0226500Y0272784D01*
X0227134Y0272784D02*
X0227134Y0274686D01*
X0226500Y0274052D01*
X0225558Y0274052D02*
X0225241Y0273735D01*
X0224290Y0273735D01*
X0224290Y0274686D02*
X0225241Y0274686D01*
X0225558Y0274369D01*
X0225558Y0274052D01*
X0225241Y0273735D02*
X0225558Y0273418D01*
X0225558Y0273101D01*
X0225241Y0272784D01*
X0224290Y0272784D01*
X0224290Y0274686D01*
X0160606Y0300761D02*
X0156102Y0303764D01*
X0157604Y0305365D02*
X0156102Y0306866D01*
X0160606Y0306866D01*
X0160606Y0305365D02*
X0160606Y0308368D01*
X0160606Y0303764D02*
X0156102Y0300761D01*
X0131030Y0279808D02*
X0128028Y0279808D01*
X0128028Y0277556D01*
X0129529Y0278306D01*
X0130279Y0278306D01*
X0131030Y0277556D01*
X0131030Y0276054D01*
X0130279Y0275304D01*
X0128778Y0275304D01*
X0128028Y0276054D01*
X0126460Y0276054D02*
X0125709Y0276054D01*
X0125709Y0275304D01*
X0126460Y0275304D01*
X0126460Y0276054D01*
X0126460Y0275304D02*
X0124958Y0273803D01*
X0123357Y0276054D02*
X0122606Y0275304D01*
X0121105Y0275304D01*
X0120354Y0276054D01*
X0121856Y0277556D02*
X0122606Y0277556D01*
X0123357Y0276805D01*
X0123357Y0276054D01*
X0122606Y0277556D02*
X0123357Y0278306D01*
X0123357Y0279057D01*
X0122606Y0279808D01*
X0121105Y0279808D01*
X0120354Y0279057D01*
X0132631Y0278306D02*
X0132631Y0275304D01*
X0134133Y0275304D02*
X0134133Y0277556D01*
X0134883Y0278306D01*
X0135634Y0277556D01*
X0135634Y0275304D01*
X0137235Y0275304D02*
X0137235Y0278306D01*
X0137986Y0278306D01*
X0138737Y0277556D01*
X0139487Y0278306D01*
X0140238Y0277556D01*
X0140238Y0275304D01*
X0138737Y0275304D02*
X0138737Y0277556D01*
X0134133Y0277556D02*
X0133382Y0278306D01*
X0132631Y0278306D01*
D18*
X0131250Y0128284D03*
X0131250Y0106784D03*
M02*
