%
M48
M72
T01C0.02400
T02C0.03200
T03C0.04000
T04C0.05906
T05C0.12598
%
T01
X173125Y28159
X218125Y63784
X329375Y121909
X332500Y112534
X250625Y185034
X266875Y193159
X250000Y210034
X315000Y244409
X315000Y249409
X401250Y201909
X423750Y232534
T02
X131250Y132534
X131250Y102534
T03
X131250Y82534
X121250Y82534
X141250Y82534
X156250Y67534
X166250Y67534
X176250Y67534
X186250Y67534
X196250Y67534
X206250Y67534
X226250Y67534
X236250Y67534
X246250Y67534
X256250Y67534
X266250Y67534
X276250Y67534
X286250Y67534
X296250Y67534
X316250Y67534
X326250Y67534
X336250Y67534
X346250Y67534
X356250Y67534
X366250Y67534
X376250Y67534
X386250Y67534
X396250Y87534
X406250Y87534
X406250Y97534
X396250Y97534
X396250Y107534
X406250Y107534
X406250Y117534
X396250Y117534
X396250Y127534
X406250Y127534
X406250Y137534
X396250Y137534
X396250Y147534
X406250Y147534
X406250Y157534
X396250Y157534
X396250Y167534
X406250Y167534
X406250Y177534
X396250Y177534
X396250Y187534
X406250Y187534
X406250Y197534
X396250Y197534
X396250Y207534
X406250Y207534
X406250Y217534
X396250Y217534
X396250Y227534
X406250Y227534
X406250Y237534
X396250Y237534
X396250Y247534
X406250Y247534
X406250Y257534
X396250Y257534
X366250Y257534
X356250Y257534
X346250Y257534
X336250Y257534
X326250Y257534
X316250Y257534
X306250Y257534
X296250Y257534
X276250Y257534
X266250Y257534
X256250Y257534
X246250Y257534
X236250Y257534
X226250Y257534
X216250Y257534
X206250Y257534
X190250Y257534
X180250Y257534
X170250Y257534
X160250Y257534
X150250Y257534
X140250Y257534
X130250Y257534
X120250Y257534
X201250Y287534
X211250Y287534
X221250Y287534
X246250Y287534
X256250Y287534
X266250Y287534
X291250Y287534
X301250Y287534
X311250Y287534
X321250Y287534
X331250Y287534
X341250Y287534
X351250Y287534
X361250Y287534
X386250Y287534
X396250Y287534
X406250Y287534
X416250Y287534
X426250Y287534
X436250Y287534
X446250Y287534
X456250Y287534
X456250Y252534
X446250Y252534
X436250Y252534
X436250Y227534
X446250Y227534
X456250Y227534
X456250Y202534
X446250Y202534
X436250Y202534
X436250Y177534
X446250Y177534
X456250Y177534
X456250Y152534
X446250Y152534
X436250Y152534
X436250Y117534
X446250Y117534
X456250Y117534
X456250Y92534
X446250Y92534
X436250Y92534
X436250Y67534
X446250Y67534
X456250Y67534
X396250Y42534
X396250Y32534
X396250Y22534
X371250Y22534
X371250Y32534
X371250Y42534
X346250Y42534
X346250Y32534
X346250Y22534
X321250Y22534
X321250Y32534
X321250Y42534
X296250Y42534
X296250Y32534
X296250Y22534
X271250Y22534
X271250Y32534
X271250Y42534
X246250Y42534
X246250Y32534
X246250Y22534
X201250Y17534
X191250Y17534
X181250Y17534
X171250Y17534
X161250Y17534
X151250Y17534
X141250Y17534
X131250Y17534
X101250Y17534
X101250Y27534
X101250Y37534
X101250Y47534
X131250Y42534
X141250Y42534
X151250Y42534
X161250Y42534
X171250Y42534
X181250Y42534
X191250Y42534
X201250Y42534
X196250Y112534
X186250Y112534
X176250Y112534
X206250Y112534
X216250Y112534
X226250Y112534
X236250Y112534
X246250Y112534
X276250Y132534
X286250Y132534
X296250Y132534
X306250Y132534
X316250Y132534
X326250Y132534
X336250Y132534
X346250Y132534
X346250Y162534
X336250Y162534
X326250Y162534
X236250Y162534
X226250Y162534
X216250Y162534
X206250Y162534
X196250Y162534
X186250Y162534
X176250Y162534
X166250Y162534
X166250Y197534
X176250Y197534
X186250Y197534
X196250Y197534
X206250Y197534
X216250Y197534
X226250Y197534
X236250Y197534
T04
X150935Y287219
X140305Y287219
X130856Y287219
X121407Y287219
X110778Y287219
X111171Y306904
X130856Y306904
X150541Y306904
T05
X81250Y67534
X286250Y87534
X406250Y67534
X286250Y197534
X381250Y257534
X86250Y257534
M30
